<svg xmlns="http://www.w3.org/2000/svg" width="64" height="64" fill="lightgray">
  <path fill="lightgray" fill-rule="evenodd" d="M51 7H13a6 6 0 0 0-6 6v38a6 6 0 0 0 6 6h38a6 6 0 0 0 6-6V13a6 6 0 0 0-6-6ZM13 6a7 7 0 0 0-7 7v38a7 7 0 0 0 7 7h38a7 7 0 0 0 7-7V13a7 7 0 0 0-7-7H13Z" clip-rule="evenodd" />
  <path fill="lightgray" d="M41 21a3 3 0 0 1-3.094 2.998l-1.114 2.69a6.027 6.027 0 0 1 2.144 1.9 5.024 5.024 0 0 0-1.978.02A4.5 4.5 0 1 0 34 36.5c.284.38.62.717 1 1.001h-.583c-.597 0-1.15.136-1.641.375a6.01 6.01 0 0 1-4.037-2.988L26 36.022a3 3 0 1 1-.37-1.47l2.558-1.06a6.013 6.013 0 0 1 .966-5.029l-2.79-2.79a3 3 0 1 1 1.125-.996l2.694 2.694a6.014 6.014 0 0 1 5.204-1.21l1.072-2.587A3 3 0 1 1 41 21Z" />
  <path fill="lightgray" d="M38 46c4.286 0 6-2.196 6-4.375C44 40.187 42.918 39 41.583 39h-7.166C33.082 39 32 40.187 32 41.625 32 43.812 33.714 46 38 46Z" />
  <defs>
    <linearGradient id="icon-94d104f613d57700__icon-085ed091d19e0044__a" x1="20.444" x2="27.022" y1="6" y2="58.622" gradientUnits="userSpaceOnUse">
      <stop stop-color="lightgray" />
      <stop offset="1" stop-color="lightgray" />
    </linearGradient>
    <linearGradient id="icon-86598cacf6dcc2ad__icon-7f986ce13f1be936__c" x1="22.792" x2="29.793" y1="6" y2="58.511" gradientUnits="userSpaceOnUse">
      <stop stop-color="lightgray" />
      <stop offset="1" stop-color="lightgray" />
    </linearGradient>
    <linearGradient id="icon-21ef2f24bfb65e11__icon-9dafcbd5d606ca4a__d" x1="20" x2="47.671" y1="18" y2="41.718" gradientUnits="userSpaceOnUse">
      <stop stop-color="lightgray" />
      <stop offset="1" stop-color="lightgray" />
    </linearGradient>
    <linearGradient id="icon-dea12edc083800e8__icon-405a01141f7b60d2__e" x1="20" x2="47.671" y1="18" y2="41.718" gradientUnits="userSpaceOnUse">
      <stop stop-color="lightgray" />
      <stop offset="1" stop-color="lightgray" />
    </linearGradient>
    <linearGradient id="icon-81643dddd723902e__icon-2ef5bc30ae07a6c5__f" x1="20" x2="47.671" y1="18" y2="41.718" gradientUnits="userSpaceOnUse">
      <stop stop-color="lightgray" />
      <stop offset="1" stop-color="lightgray" />
    </linearGradient>
    <radialGradient id="icon-64f46f9d10bb73e5__icon-c205e88cc7845fc2__b" cx="0" cy="0" r="1" gradientTransform="rotate(56.31 -6.951 30.895) scale(49.4762 42.8159)" gradientUnits="userSpaceOnUse">
      <stop offset=".177" stop-color="lightgray" />
      <stop offset="1" stop-color="lightgray" />
    </radialGradient>
  </defs>
</svg>
