<svg xmlns="http://www.w3.org/2000/svg" width="64" height="64" fill="lightgray">
  <path fill="lightgray" fill-rule="evenodd" d="M51 7H13a6 6 0 0 0-6 6v38a6 6 0 0 0 6 6h38a6 6 0 0 0 6-6V13a6 6 0 0 0-6-6ZM13 6a7 7 0 0 0-7 7v38a7 7 0 0 0 7 7h38a7 7 0 0 0 7-7V13a7 7 0 0 0-7-7H13Z" clip-rule="evenodd" />
  <path fill="lightgray" fill-rule="evenodd" d="M20 30.908a1 1 0 0 0 1.41.912l2.84-1.278v3.59l-3.66 1.648a1 1 0 0 0-.59.912v6.307a1 1 0 0 0 1.41.912l8-3.6a1 1 0 0 0 .59-.912v-2.604a5.034 5.034 0 0 1 1.21-.41c.783-.157 1.783-.157 2.79.404v2.61a1 1 0 0 0 .59.912l8 3.6a1 1 0 0 0 1.41-.912v-6.307a1 1 0 0 0-.59-.912l-3.66-1.647v-3.59l2.84 1.277a1 1 0 0 0 1.41-.912v-6.307a1 1 0 0 0-.59-.912l-8-3.6a1 1 0 0 0-1.41.912v2.38c-1.145-.431-2.239-.393-3.085-.224a6.56 6.56 0 0 0-.915.254V21a1 1 0 0 0-1.41-.912l-8 3.6a1 1 0 0 0-.59.912v6.307Zm14 4.231v-2.047a1 1 0 0 1 1.41-.912l2.84 1.278v-3.59l-3.66-1.648a1 1 0 0 1-.59-.912v-2.276c-1.007-.562-2.007-.561-2.79-.404a5.034 5.034 0 0 0-1.21.41v2.27a1 1 0 0 1-.59.912l-3.66 1.647v3.59l2.84-1.277a1 1 0 0 1 1.41.912v2.076c.259-.092.568-.184.915-.254.846-.169 1.94-.207 3.085.225Zm8.5-10.215v5.21l-7-3.15v-5.21l7 3.15Zm0 12.091v5.21l-7-3.15v-5.21l7 3.15Z" clip-rule="evenodd" />
  <path fill="lightgray" fill-rule="evenodd" d="M52.12 45h8.38a1.5 1.5 0 0 1 1.282 2.278L59.525 51h.715c1.575 0 2.348 1.918 1.214 3.01l-8.747 8.427c-1.516 1.46-3.969-.11-3.277-2.098L50.592 57h-2.844a1.75 1.75 0 0 1-1.567-2.528l4.147-8.36A2 2 0 0 1 52.119 45Z" clip-rule="evenodd" />
  <path fill="lightgray" d="M60.5 46h-8.38a1 1 0 0 0-.896.556l-4.148 8.36A.75.75 0 0 0 47.748 56H52l-1.625 4.668c-.345.994.881 1.779 1.639 1.049l8.747-8.427a.75.75 0 0 0-.52-1.29h-2.49l3.178-5.24a.5.5 0 0 0-.427-.76Z" />
  <defs>
    <linearGradient id="icon-96ea9f3e08eaff56__a" x1="20.444" x2="27.022" y1="6" y2="58.622" gradientUnits="userSpaceOnUse">
      <stop stop-color="lightgray" />
      <stop offset="1" stop-color="lightgray" />
    </linearGradient>
    <linearGradient id="icon-37853d4454490fa9__c" x1="22.792" x2="29.793" y1="6" y2="58.511" gradientUnits="userSpaceOnUse">
      <stop stop-color="lightgray" />
      <stop offset="1" stop-color="lightgray" />
    </linearGradient>
    <linearGradient id="icon-d289edaf300be112__d" x1="20" x2="44" y1="20" y2="44" gradientUnits="userSpaceOnUse">
      <stop stop-color="lightgray" />
      <stop offset="1" stop-color="lightgray" />
    </linearGradient>
    <linearGradient id="icon-9c5d3a33045d52aa__e" x1="46.997" x2="62.858" y1="46" y2="59.881" gradientUnits="userSpaceOnUse">
      <stop stop-color="lightgray" />
      <stop offset="1" stop-color="lightgray" />
    </linearGradient>
    <radialGradient id="icon-064bb2de041a5e5f__b" cx="0" cy="0" r="1" gradientTransform="matrix(27.4444 41.16672 -35.62501 23.74995 22.61 19.541)" gradientUnits="userSpaceOnUse">
      <stop offset=".177" stop-color="lightgray" />
      <stop offset="1" stop-color="lightgray" />
    </radialGradient>
  </defs>
</svg>
