<svg xmlns="http://www.w3.org/2000/svg" width="64" height="64" fill="lightgray">
  <path fill="lightgray" fill-rule="evenodd" d="M51 7H13a6 6 0 0 0-6 6v38a6 6 0 0 0 6 6h38a6 6 0 0 0 6-6V13a6 6 0 0 0-6-6ZM13 6a7 7 0 0 0-7 7v38a7 7 0 0 0 7 7h38a7 7 0 0 0 7-7V13a7 7 0 0 0-7-7H13Z" clip-rule="evenodd" />
  <path fill="lightgray" d="M41 54.5a6.5 6.5 0 0 1 6.5-6.5h1a.5.5 0 0 1 0 1h-1a5.5 5.5 0 1 0 0 11h1a.5.5 0 0 1 0 1h-1a6.5 6.5 0 0 1-6.5-6.5Z" />
  <path fill="lightgray" d="M63 54.5a6.5 6.5 0 0 1-6.5 6.5h-1a.5.5 0 0 1 0-1h1a5.5 5.5 0 1 0 0-11h-1a.5.5 0 0 1 0-1h1a6.5 6.5 0 0 1 6.5 6.5Z" />
  <defs>
    <linearGradient id="icon-6a2e40d48f2b5ee2__icon-41858de0b8e04e0b__a" x1="20.444" x2="27.022" y1="6" y2="58.622" gradientUnits="userSpaceOnUse">
      <stop stop-color="lightgray" />
      <stop offset="1" stop-color="lightgray" />
    </linearGradient>
    <linearGradient id="icon-ec021c7e9f5d17db__icon-dfc791449047c69e__c" x1="22.792" x2="29.793" y1="6" y2="58.511" gradientUnits="userSpaceOnUse">
      <stop stop-color="lightgray" />
      <stop offset="1" stop-color="lightgray" />
    </linearGradient>
    <linearGradient id="icon-0537277ef9888b67__icon-913dc2c0f66fb960__d" x1="15" x2="32.481" y1="22" y2="51.717" gradientUnits="userSpaceOnUse">
      <stop stop-color="lightgray" />
      <stop offset="1" stop-color="lightgray" />
    </linearGradient>
    <linearGradient id="icon-3f8bb97b0f21c322__icon-b3bb48e128c64725__e" x1="15" x2="32.481" y1="22" y2="51.717" gradientUnits="userSpaceOnUse">
      <stop stop-color="lightgray" />
      <stop offset="1" stop-color="lightgray" />
    </linearGradient>
    <linearGradient id="icon-8a6062ce75cf40ad__icon-7d3917dd6579cae2__f" x1="15" x2="32.481" y1="22" y2="51.717" gradientUnits="userSpaceOnUse">
      <stop stop-color="lightgray" />
      <stop offset="1" stop-color="lightgray" />
    </linearGradient>
    <linearGradient id="icon-0f539984df52f143__icon-0d8e7afe31817a32__g" x1="15" x2="32.481" y1="22" y2="51.717" gradientUnits="userSpaceOnUse">
      <stop stop-color="lightgray" />
      <stop offset="1" stop-color="lightgray" />
    </linearGradient>
    <linearGradient id="icon-6ab42ccadbb39aca__icon-efac4359ba4818b2__h" x1="15" x2="32.481" y1="22" y2="51.717" gradientUnits="userSpaceOnUse">
      <stop stop-color="lightgray" />
      <stop offset="1" stop-color="lightgray" />
    </linearGradient>
    <linearGradient id="icon-822dbc28ddecbfde__icon-25d4e7934fb842e9__i" x1="41" x2="52.387" y1="48" y2="67.271" gradientUnits="userSpaceOnUse">
      <stop stop-color="lightgray" />
      <stop offset="1" stop-color="lightgray" />
    </linearGradient>
    <linearGradient id="icon-7de8662f03c07368__icon-98a1eeeebcdd8247__j" x1="41" x2="52.387" y1="48" y2="67.271" gradientUnits="userSpaceOnUse">
      <stop stop-color="lightgray" />
      <stop offset="1" stop-color="lightgray" />
    </linearGradient>
    <linearGradient id="icon-b1147d42cff9d516__icon-f7dd9357ffc4ef19__k" x1="41" x2="52.387" y1="48" y2="67.271" gradientUnits="userSpaceOnUse">
      <stop stop-color="lightgray" />
      <stop offset="1" stop-color="lightgray" />
    </linearGradient>
    <radialGradient id="icon-d297aef67b4fda03__icon-9e083287b64b7bb6__b" cx="0" cy="0" r="1" gradientTransform="rotate(56.31 -6.951 30.895) scale(49.4762 42.8159)" gradientUnits="userSpaceOnUse">
      <stop offset=".177" stop-color="lightgray" />
      <stop offset="1" stop-color="lightgray" />
    </radialGradient>
  </defs>
</svg>
