<svg xmlns="http://www.w3.org/2000/svg" width="64" height="64" fill="lightgray">
  <path fill="lightgray" d="M12 13a7 7 0 0 1 7-7h30a7 7 0 0 1 7 7v38c0 6.075-4.925 11-11 11H19a7 7 0 0 1-7-7V13Z" />
  <path fill="lightgray" fill-opacity=".2" d="M12 13a7 7 0 0 1 7-7h30a7 7 0 0 1 7 7v38c0 6.075-4.925 11-11 11H19a7 7 0 0 1-7-7V13Z" />
  <path fill="lightgray" fill-rule="evenodd" d="M49 7H19a6 6 0 0 0-6 6v42a6 6 0 0 0 6 6h26c5.523 0 10-4.477 10-10V13a6 6 0 0 0-6-6ZM19 6a7 7 0 0 0-7 7v42a7 7 0 0 0 7 7h26c6.075 0 11-4.925 11-11V13a7 7 0 0 0-7-7H19Z" clip-rule="evenodd" />
  <path fill="lightgray" fill-rule="evenodd" d="M45 3H15a6 6 0 0 0-6 6v42a6 6 0 0 0 6 6h30a6 6 0 0 0 6-6V9a6 6 0 0 0-6-6ZM15 2a7 7 0 0 0-7 7v42a7 7 0 0 0 7 7h30a7 7 0 0 0 7-7V9a7 7 0 0 0-7-7H15Z" clip-rule="evenodd" />
  <path fill="lightgray" d="M30.04 18.148c-.374-.129-.77-.165-1.296-.09-.955.146-1.636.613-2.108 1.28-.477.675-.753 1.578-.835 2.6-.003.295-.062 1.48-.148 3.062H30.5a.5.5 0 0 1 0 1h-4.902c-.214 3.824-.532 9.122-.64 10.522l-.001.003-.009.106c-.08.965-.173 2.07-.498 3.082-.341 1.064-.95 2.06-2.093 2.725-.805.497-1.836.598-2.765.463-.93-.135-1.855-.52-2.446-1.11a.5.5 0 0 1 .708-.707c.394.394 1.095.713 1.881.827.785.114 1.559.01 2.1-.327l.014-.008c.875-.507 1.36-1.268 1.65-2.169.289-.9.373-1.905.456-2.904l.005-.058v-.002c.109-1.4.424-6.646.636-10.443H20.5a.5.5 0 0 1 0-1h4.152c.089-1.631.15-2.84.15-3.084v-.038c.09-1.149.403-2.249 1.018-3.118.623-.882 1.542-1.503 2.776-1.692h.005c.654-.093 1.214-.055 1.764.134.539.185 1.037.504 1.579.917a.5.5 0 1 1-.607.795c-.512-.39-.91-.633-1.296-.766Z" />
  <path fill="lightgray" d="M41.852 29.145a.5.5 0 0 1 .003.707l-5.218 5.266a256.396 256.396 0 0 0 1.94 3.355c.124.2.227.376.315.527l.066.114c.105.178.183.306.261.412.128.175.26.3.531.439.443.082.641.005.767-.08.15-.1.257-.243.436-.48l.151-.199a.5.5 0 0 1 .792.61l-.103.137c-.184.247-.414.557-.716.761-.417.282-.924.357-1.592.218a.499.499 0 0 1-.117-.04c-.443-.216-.715-.446-.956-.775a5.89 5.89 0 0 1-.316-.496l-.07-.122c-.088-.15-.183-.312-.3-.5-.215-.35-.987-1.694-1.819-3.144l-5.052 5.099a.5.5 0 1 1-.71-.704l5.246-5.295a262.148 262.148 0 0 0-1.988-3.438 5.888 5.888 0 0 0-.549-.892c-.21-.273-.426-.474-.641-.584-.215-.077-.405-.043-.616.085-.238.144-.471.394-.7.693a.5.5 0 0 1-.793-.61c.248-.323.573-.694.973-.937.42-.256.943-.38 1.517-.155l.038.016c.416.203.752.54 1.014.881.26.339.473.71.638 1.03.231.378 1.007 1.728 1.837 3.174l5.024-5.07a.5.5 0 0 1 .707-.003Z" />
  <defs>
    <linearGradient id="icon-36bc26012014c515__icon-823c3617cf8ff274__a" x1="24.222" x2="33.153" y1="6" y2="62.135" gradientUnits="userSpaceOnUse">
      <stop stop-color="lightgray" />
      <stop offset="1" stop-color="lightgray" />
    </linearGradient>
    <linearGradient id="icon-eb41e59f56687ce5__icon-bb1ef6ba0c564055__c" x1="26.208" x2="35.702" y1="6" y2="61.944" gradientUnits="userSpaceOnUse">
      <stop stop-color="lightgray" />
      <stop offset="1" stop-color="lightgray" />
    </linearGradient>
    <linearGradient id="icon-702d440e5a3be02d__icon-e6f08b4b4cede4db__d" x1="20.222" x2="29.153" y1="2" y2="58.135" gradientUnits="userSpaceOnUse">
      <stop stop-color="lightgray" />
      <stop offset="1" stop-color="lightgray" />
    </linearGradient>
    <linearGradient id="icon-32acfbd777377b09__icon-b3e38be55fb8fa66__f" x1="22.208" x2="31.702" y1="2" y2="57.944" gradientUnits="userSpaceOnUse">
      <stop stop-color="lightgray" />
      <stop offset="1" stop-color="lightgray" />
    </linearGradient>
    <linearGradient id="icon-824433c5ca44314f__icon-733c545c63f70305__g" x1="17" x2="42.919" y1="17.019" y2="42.002" gradientUnits="userSpaceOnUse">
      <stop stop-color="lightgray" />
      <stop offset="1" stop-color="lightgray" />
    </linearGradient>
    <linearGradient id="icon-a7d8e46abe4dd11c__icon-3d421fca450ce377__h" x1="17" x2="42.919" y1="17.019" y2="42.002" gradientUnits="userSpaceOnUse">
      <stop stop-color="lightgray" />
      <stop offset="1" stop-color="lightgray" />
    </linearGradient>
    <radialGradient id="icon-4eccaf3ebc8de513__icon-ff49fe8a5474d538__b" cx="0" cy="0" r="1" gradientTransform="matrix(23.22222 44.33329 -34.16705 17.89704 26.056 20.583)" gradientUnits="userSpaceOnUse">
      <stop offset=".177" stop-color="lightgray" />
      <stop offset="1" stop-color="lightgray" />
    </radialGradient>
    <radialGradient id="icon-c1713de6dfcc2e61__icon-766925e30e513e7e__e" cx="0" cy="0" r="1" gradientTransform="matrix(23.22222 44.33329 -34.16705 17.89704 22.056 16.583)" gradientUnits="userSpaceOnUse">
      <stop offset=".177" stop-color="lightgray" />
      <stop offset="1" stop-color="lightgray" />
    </radialGradient>
  </defs>
</svg>
