<svg xmlns="http://www.w3.org/2000/svg" width="64" height="64" fill="lightgray">
  <path fill="lightgray" fill-rule="evenodd" d="M51 7H13a6 6 0 0 0-6 6v38a6 6 0 0 0 6 6h38a6 6 0 0 0 6-6V13a6 6 0 0 0-6-6ZM13 6a7 7 0 0 0-7 7v38a7 7 0 0 0 7 7h38a7 7 0 0 0 7-7V13a7 7 0 0 0-7-7H13Z" clip-rule="evenodd" />
  <path fill="lightgray" d="M32.04 20.148c-.374-.128-.77-.165-1.296-.09-.955.146-1.636.613-2.108 1.28-.477.675-.753 1.578-.835 2.6-.003.295-.062 1.48-.148 3.062H32.5a.5.5 0 0 1 0 1h-4.902c-.214 3.824-.532 9.122-.64 10.522l-.001.003-.009.106c-.08.965-.173 2.07-.498 3.082-.341 1.064-.95 2.06-2.093 2.725-.805.497-1.836.598-2.765.463-.93-.135-1.855-.52-2.446-1.11a.5.5 0 0 1 .708-.707c.394.394 1.095.713 1.881.827.785.114 1.559.01 2.1-.327l.014-.008c.875-.507 1.36-1.268 1.65-2.169.289-.9.373-1.905.456-2.904l.005-.058v-.002c.109-1.4.424-6.646.636-10.443H22.5a.5.5 0 1 1 0-1h4.152c.089-1.631.15-2.84.15-3.084a.5.5 0 0 1 0-.038c.09-1.149.403-2.249 1.018-3.118.623-.882 1.542-1.503 2.776-1.692h.005c.654-.093 1.214-.055 1.764.134.539.185 1.037.504 1.579.917a.5.5 0 1 1-.607.795c-.513-.39-.91-.633-1.297-.766Z" />
  <path fill="lightgray" d="M43.852 31.145a.5.5 0 0 1 .003.707l-5.218 5.266a256.844 256.844 0 0 0 1.94 3.355c.124.2.227.376.315.527l.066.114c.105.178.183.306.261.412.128.175.26.3.531.439.443.082.641.005.767-.08.15-.1.257-.243.436-.48l.151-.199a.5.5 0 0 1 .792.61l-.103.137c-.184.248-.414.557-.716.761-.417.282-.924.357-1.592.218a.499.499 0 0 1-.117-.04c-.443-.216-.715-.446-.956-.775a5.874 5.874 0 0 1-.316-.496l-.07-.122c-.088-.15-.183-.312-.3-.5-.215-.35-.987-1.694-1.819-3.144l-5.052 5.099a.5.5 0 0 1-.71-.704l5.246-5.295a262.148 262.148 0 0 0-1.988-3.437 5.894 5.894 0 0 0-.549-.893c-.21-.273-.426-.474-.641-.584-.215-.077-.405-.043-.616.085-.238.145-.471.394-.7.693a.5.5 0 0 1-.793-.61c.248-.323.573-.694.973-.937.42-.256.943-.38 1.517-.155a.46.46 0 0 1 .038.016c.416.203.752.54 1.014.881.26.339.473.71.638 1.03.231.378 1.007 1.728 1.837 3.175l5.024-5.07a.5.5 0 0 1 .707-.004Z" />
  <defs>
    <linearGradient id="icon-4b511f750d4d5ff5__icon-a7847777582465b9__a" x1="20.444" x2="27.022" y1="6" y2="58.622" gradientUnits="userSpaceOnUse">
      <stop stop-color="lightgray" />
      <stop offset="1" stop-color="lightgray" />
    </linearGradient>
    <linearGradient id="icon-ca37c3cb77412813__icon-d9d8613e7d65f51d__c" x1="22.792" x2="29.793" y1="6" y2="58.511" gradientUnits="userSpaceOnUse">
      <stop stop-color="lightgray" />
      <stop offset="1" stop-color="lightgray" />
    </linearGradient>
    <linearGradient id="icon-f7a4420d7c9c11f0__icon-c193d3d1946a5448__d" x1="19" x2="44.919" y1="19.019" y2="44.002" gradientUnits="userSpaceOnUse">
      <stop stop-color="lightgray" />
      <stop offset="1" stop-color="lightgray" />
    </linearGradient>
    <linearGradient id="icon-6e57a47cec97ad3f__icon-a457017aa4cc161a__e" x1="19" x2="44.919" y1="19.019" y2="44.002" gradientUnits="userSpaceOnUse">
      <stop stop-color="lightgray" />
      <stop offset="1" stop-color="lightgray" />
    </linearGradient>
    <radialGradient id="icon-6a09912b15d032cd__icon-bea1dd4cac4ca5b1__b" cx="0" cy="0" r="1" gradientTransform="rotate(56.31 -6.951 30.895) scale(49.4762 42.8159)" gradientUnits="userSpaceOnUse">
      <stop offset=".177" stop-color="lightgray" />
      <stop offset="1" stop-color="lightgray" />
    </radialGradient>
  </defs>
</svg>
