<svg xmlns="http://www.w3.org/2000/svg" width="64" height="64" fill="lightgray">
  <path fill="lightgray" fill-rule="evenodd" d="M51 7H13a6 6 0 0 0-6 6v38a6 6 0 0 0 6 6h38a6 6 0 0 0 6-6V13a6 6 0 0 0-6-6ZM13 6a7 7 0 0 0-7 7v38a7 7 0 0 0 7 7h38a7 7 0 0 0 7-7V13a7 7 0 0 0-7-7H13Z" clip-rule="evenodd" />
  <path fill="lightgray" fill-rule="evenodd" d="M30.383 15.578a16.691 16.691 0 0 1 3.234 0 .5.5 0 1 1-.097.996 15.683 15.683 0 0 0-3.04 0 .5.5 0 0 1-.097-.996Zm5.785.962a.5.5 0 0 1 .623-.334c1.044.317 2.044.734 2.989 1.24a.5.5 0 1 1-.472.881 15.396 15.396 0 0 0-2.807-1.164.5.5 0 0 1-.333-.623Zm-8.336 0a.5.5 0 0 1-.333.623c-.98.297-1.92.689-2.807 1.164a.5.5 0 0 1-.472-.881 16.399 16.399 0 0 1 2.989-1.24.5.5 0 0 1 .623.334Zm13.932 2.774a.5.5 0 0 1 .704-.069 16.61 16.61 0 0 1 2.287 2.287.5.5 0 0 1-.773.635 15.592 15.592 0 0 0-2.149-2.15.5.5 0 0 1-.069-.703Zm-19.528 0a.5.5 0 0 1-.069.704 15.592 15.592 0 0 0-2.15 2.149.5.5 0 0 1-.772-.635 16.61 16.61 0 0 1 2.287-2.287.5.5 0 0 1 .704.069Zm23.641 4.702a.5.5 0 0 1 .677.204c.506.945.923 1.945 1.24 2.989a.5.5 0 1 1-.957.29 15.396 15.396 0 0 0-1.164-2.807.5.5 0 0 1 .204-.676Zm-27.755 0a.5.5 0 0 1 .205.676 15.396 15.396 0 0 0-1.164 2.807.5.5 0 1 1-.957-.29 16.399 16.399 0 0 1 1.24-2.989.5.5 0 0 1 .676-.204Zm29.754 5.918a.5.5 0 0 1 .546.449 16.691 16.691 0 0 1 0 3.234.5.5 0 1 1-.996-.097 15.683 15.683 0 0 0 0-3.04.5.5 0 0 1 .45-.547Zm-31.752 0a.5.5 0 0 1 .45.546 15.683 15.683 0 0 0 0 3.04.5.5 0 0 1-.996.097 16.691 16.691 0 0 1 0-3.234.5.5 0 0 1 .546-.45Zm31.336 6.234a.5.5 0 0 1 .334.623 16.399 16.399 0 0 1-1.24 2.989.5.5 0 1 1-.881-.472c.475-.888.867-1.827 1.163-2.807a.5.5 0 0 1 .624-.333Zm-30.92 0a.5.5 0 0 1 .623.333c.297.98.689 1.92 1.164 2.807a.5.5 0 0 1-.881.472 16.399 16.399 0 0 1-1.24-2.989.5.5 0 0 1 .334-.623Zm28.146 5.596a.5.5 0 0 1 .069.704 16.61 16.61 0 0 1-2.287 2.287.5.5 0 0 1-.635-.773 15.592 15.592 0 0 0 2.15-2.149.5.5 0 0 1 .703-.069Zm-25.372 0a.5.5 0 0 1 .704.069 15.592 15.592 0 0 0 2.149 2.15.5.5 0 0 1-.635.772 16.61 16.61 0 0 1-2.287-2.287.5.5 0 0 1 .069-.704Zm4.702 4.113a.5.5 0 0 1 .676-.204c.888.475 1.827.867 2.807 1.163a.5.5 0 1 1-.29.958 16.399 16.399 0 0 1-2.989-1.24.5.5 0 0 1-.204-.677Zm15.968 0a.5.5 0 0 1-.204.677c-.945.506-1.945.923-2.989 1.24a.5.5 0 1 1-.29-.957c.98-.297 1.92-.689 2.807-1.164a.5.5 0 0 1 .676.204Zm-10.05 1.999a.5.5 0 0 1 .546-.45 15.683 15.683 0 0 0 3.04 0 .5.5 0 0 1 .097.996 16.691 16.691 0 0 1-3.234 0 .5.5 0 0 1-.45-.546Z" clip-rule="evenodd" />
  <defs>
    <linearGradient id="icon-9fc065116fd56ab0__icon-625c5e989a39af77__a" x1="20.444" x2="27.022" y1="6" y2="58.622" gradientUnits="userSpaceOnUse">
      <stop stop-color="lightgray" />
      <stop offset="1" stop-color="lightgray" />
    </linearGradient>
    <linearGradient id="icon-4a634def3bb18c44__icon-d426353902d37e31__c" x1="22.792" x2="29.793" y1="6" y2="58.511" gradientUnits="userSpaceOnUse">
      <stop stop-color="lightgray" />
      <stop offset="1" stop-color="lightgray" />
    </linearGradient>
    <radialGradient id="icon-3bc0aa517bbe7bd3__icon-cbb7af95d96e2186__b" cx="0" cy="0" r="1" gradientTransform="rotate(56.31 -6.951 30.895) scale(49.4762 42.8159)" gradientUnits="userSpaceOnUse">
      <stop offset=".177" stop-color="lightgray" />
      <stop offset="1" stop-color="lightgray" />
    </radialGradient>
  </defs>
</svg>
