<svg xmlns="http://www.w3.org/2000/svg" width="64" height="64" fill="lightgray">
  <path fill="lightgray" fill-rule="evenodd" d="M47 5H17a6 6 0 0 0-6 6v42a6 6 0 0 0 6 6h30a6 6 0 0 0 6-6V11a6 6 0 0 0-6-6ZM17 4a7 7 0 0 0-7 7v42a7 7 0 0 0 7 7h30a7 7 0 0 0 7-7V11a7 7 0 0 0-7-7H17Z" clip-rule="evenodd" />
  <path fill="lightgray" fill-rule="evenodd" d="M41.5 19a3.5 3.5 0 0 1 3.5 3.5V31a1 1 0 0 1-1 1h-3v10A3 3 0 0 1 38.09 45l.001.001H22.5a3.5 3.5 0 0 1-3.5-3.5V37a1 1 0 0 1 1-1h3V23a4 4 0 0 1 4-4h14.5ZM40 20H27a3 3 0 0 0-3 3v13h11.5a.5.5 0 0 1 .5.5V42a2 2 0 0 0 4 0V20Z" clip-rule="evenodd" />
  <path fill="lightgray" fill-rule="evenodd" d="M46.79 59.24a1.499 1.499 0 1 1-2.12-2.12l2.83-2.83c.15-.15.33-.27.53-.34l-2.39-2.39c-.43-.43-.56-1.07-.32-1.64.23-.56.78-.92 1.38-.92h10.79c.83 0 1.5.67 1.5 1.5v10.79c0 .42-.17.81-.47 1.09-.28.26-.65.41-1.03.41-.4 0-.77-.16-1.06-.44l-2.23-2.23c-.07.19-.19.38-.34.53l-2.83 2.83a1.499 1.499 0 0 1-2.15-2.09l-2.09 2.09a1.499 1.499 0 0 1-2.12 0c-.58-.58-.58-1.54 0-2.12" clip-rule="evenodd" />
  <path fill="lightgray" fill-rule="evenodd" d="M58 50.5c0-.28-.22-.5-.5-.5H46.71c-.45 0-.67.54-.35.85l10.79 10.79a.5.5 0 0 0 .85-.35V50.5Zm-9.08 5.21c.2-.2.2-.51 0-.71-.2-.2-.51-.2-.71 0l-2.83 2.83c-.2.2-.2.51 0 .71.2.2.51.2.71 0l2.83-2.83Zm2.12 1.41c.2.2.2.51 0 .71l-4.95 4.95c-.2.2-.51.2-.71 0-.2-.2-.2-.51 0-.71l4.95-4.95c.2-.2.51-.2.71 0Zm2.12 2.83c.2-.2.2-.51 0-.71-.2-.2-.51-.2-.71 0l-2.83 2.83c-.2.2-.2.51 0 .71.2.2.51.2.71 0l2.83-2.83Z" clip-rule="evenodd" />
  <defs>
    <linearGradient id="icon-2dc0f6d1a668b246__icon-6506fac9287d2dfc__a" x1="22.222" x2="31.153" y1="4" y2="60.135" gradientUnits="userSpaceOnUse">
      <stop stop-color="lightgray" />
      <stop offset="1" stop-color="lightgray" />
    </linearGradient>
    <linearGradient id="icon-7e54a44ba083635e__icon-1e43e83d687b6879__c" x1="24.208" x2="33.702" y1="4" y2="59.944" gradientUnits="userSpaceOnUse">
      <stop stop-color="lightgray" />
      <stop offset="1" stop-color="lightgray" />
    </linearGradient>
    <linearGradient id="icon-8b071434355ce6e7__icon-e6c23066b8e51688__d" x1="19" x2="45" y1="19" y2="45" gradientUnits="userSpaceOnUse">
      <stop stop-color="lightgray" />
      <stop offset="1" stop-color="lightgray" />
    </linearGradient>
    <linearGradient id="icon-45c692aa47be5c55__icon-5db6d993502f4154__e" x1="19" x2="45" y1="19" y2="45" gradientUnits="userSpaceOnUse">
      <stop stop-color="lightgray" />
      <stop offset="1" stop-color="lightgray" />
    </linearGradient>
    <linearGradient id="icon-4e92c98ebd3379b4__icon-d0729c3d16449ff4__f" x1="19" x2="45" y1="19" y2="45" gradientUnits="userSpaceOnUse">
      <stop stop-color="lightgray" />
      <stop offset="1" stop-color="lightgray" />
    </linearGradient>
    <linearGradient id="icon-92777f3413e6160a__icon-2cae2a67483d925c__g" x1="19" x2="45" y1="19" y2="45" gradientUnits="userSpaceOnUse">
      <stop stop-color="lightgray" />
      <stop offset="1" stop-color="lightgray" />
    </linearGradient>
    <linearGradient id="icon-46c8f40c6be7fdde__icon-091fa5fcef608c6c__h" x1="45.23" x2="58.16" y1="50" y2="62.769" gradientUnits="userSpaceOnUse">
      <stop stop-color="lightgray" />
      <stop offset="1" stop-color="lightgray" />
    </linearGradient>
    <radialGradient id="icon-d04b75d1674f9852__icon-b41791d0f3e437a8__b" cx="0" cy="0" r="1" gradientTransform="matrix(23.22222 44.33329 -34.16705 17.89704 24.056 18.583)" gradientUnits="userSpaceOnUse">
      <stop offset=".177" stop-color="lightgray" />
      <stop offset="1" stop-color="lightgray" />
    </radialGradient>
  </defs>
</svg>
