<svg xmlns="http://www.w3.org/2000/svg" width="64" height="64" fill="lightgray">
  <path fill="lightgray" fill-rule="evenodd" d="M51 7H13a6 6 0 0 0-6 6v38a6 6 0 0 0 6 6h38a6 6 0 0 0 6-6V13a6 6 0 0 0-6-6M13 6a7 7 0 0 0-7 7v38a7 7 0 0 0 7 7h38a7 7 0 0 0 7-7V13a7 7 0 0 0-7-7z" clip-rule="evenodd" />
  <path fill="lightgray" d="M22.245 18a.75.75 0 0 1 .75.75v26.5a.75.75 0 0 1-1.5 0v-26.5a.75.75 0 0 1 .75-.75" />
  <path fill="lightgray" d="M47 43.5v15a3.5 3.5 0 0 0 3.5 3.5h8a3.5 3.5 0 0 0 3.5-3.5v-15a3.5 3.5 0 0 0-3.5-3.5h-8a3.5 3.5 0 0 0-3.5 3.5" />
  <path fill="lightgray" d="M48 43.5a2.5 2.5 0 0 1 2.5-2.5h8a2.5 2.5 0 0 1 2.5 2.5v15a2.5 2.5 0 0 1-2.5 2.5h-8a2.5 2.5 0 0 1-2.5-2.5z" />
  <defs>
    <linearGradient id="i3b3cfa-id81cbe-paint0_linear_62917_1976" x1="20.444" x2="27.022" y1="6" y2="58.622" gradientUnits="userSpaceOnUse">
      <stop stop-color="lightgray" />
      <stop offset="1" stop-color="lightgray" />
    </linearGradient>
    <radialGradient id="i3b3cfa-id81cbe-paint1_radial_62917_1976" cx="0" cy="0" r="1" gradientTransform="matrix(27.4444 41.1667 -41.1667 15.4375 22.611 19.542)" gradientUnits="userSpaceOnUse">
      <stop offset=".177" stop-color="lightgray" />
      <stop offset="1" stop-color="lightgray" />
    </radialGradient>
    <linearGradient id="i3b3cfa-id81cbe-paint2_linear_62917_1976" x1="22.792" x2="29.793" y1="6" y2="58.511" gradientUnits="userSpaceOnUse">
      <stop stop-color="lightgray" />
      <stop offset="1" stop-color="lightgray" />
    </linearGradient>
    <linearGradient id="i3b3cfa-id81cbe-paint3_linear_62917_1976" x1="21.495" x2="48.379" y1="18" y2="38.172" gradientUnits="userSpaceOnUse">
      <stop stop-color="lightgray" />
      <stop offset="1" stop-color="lightgray" />
    </linearGradient>
    <linearGradient id="i3b3cfa-id81cbe-paint4_linear_62917_1976" x1="21.495" x2="48.379" y1="18" y2="38.172" gradientUnits="userSpaceOnUse">
      <stop stop-color="lightgray" />
      <stop offset="1" stop-color="lightgray" />
    </linearGradient>
    <linearGradient id="i3b3cfa-id81cbe-paint5_linear_62917_1976" x1="21.495" x2="48.379" y1="18" y2="38.172" gradientUnits="userSpaceOnUse">
      <stop stop-color="lightgray" />
      <stop offset="1" stop-color="lightgray" />
    </linearGradient>
    <linearGradient id="i3b3cfa-id81cbe-paint6_linear_62917_1976" x1="48" x2="66.278" y1="41" y2="52.88" gradientUnits="userSpaceOnUse">
      <stop stop-color="lightgray" />
      <stop offset="1" stop-color="lightgray" />
    </linearGradient>
  </defs>
</svg>
