<svg xmlns="http://www.w3.org/2000/svg" width="64" height="64" fill="lightgray">
  <path fill="lightgray" fill-rule="evenodd" d="M51 7H13a6 6 0 0 0-6 6v38a6 6 0 0 0 6 6h38a6 6 0 0 0 6-6V13a6 6 0 0 0-6-6M13 6a7 7 0 0 0-7 7v38a7 7 0 0 0 7 7h38a7 7 0 0 0 7-7V13a7 7 0 0 0-7-7z" clip-rule="evenodd" />
  <path fill="lightgray" d="M32 19c1.74 0 3.4.342 4.916.962l-.773.773A12 12 0 0 0 32 20c-6.627 0-12 5.373-12 12s5.373 12 12 12 12-5.373 12-12c0-1.457-.261-2.852-.736-4.144l.773-.773C44.657 28.6 45 30.26 45 32c0 7.18-5.82 13-13 13s-13-5.82-13-13 5.82-13 13-13" />
  <path fill="lightgray" d="M32 25c.881 0 1.724.164 2.5.46v1.085a6 6 0 1 0 2.954 2.955h1.085A7 7 0 1 1 32 25" />
  <path fill="lightgray" d="M39.147 19.147A.5.5 0 0 1 40 19.5V24h4.5a.5.5 0 0 1 .353.854l-3.5 3.5A.5.5 0 0 1 41 28.5h-4.793l-2.486 2.485a2 2 0 1 1-.707-.707l2.486-2.485V23a.5.5 0 0 1 .147-.354z" />
  <defs>
    <linearGradient id="id7301e-i23abb4-paint0_linear_65420_301" x1="20.444" x2="27.022" y1="6" y2="58.622" gradientUnits="userSpaceOnUse">
      <stop stop-color="lightgray" />
      <stop offset="1" stop-color="lightgray" />
    </linearGradient>
    <radialGradient id="id7301e-i23abb4-paint1_radial_65420_301" cx="0" cy="0" r="1" gradientTransform="matrix(27.4444 41.1667 -41.1667 15.4375 22.611 19.542)" gradientUnits="userSpaceOnUse">
      <stop offset=".177" stop-color="lightgray" />
      <stop offset="1" stop-color="lightgray" />
    </radialGradient>
    <linearGradient id="id7301e-i23abb4-paint2_linear_65420_301" x1="22.792" x2="29.793" y1="6" y2="58.511" gradientUnits="userSpaceOnUse">
      <stop stop-color="lightgray" />
      <stop offset="1" stop-color="lightgray" />
    </linearGradient>
    <linearGradient id="id7301e-i23abb4-paint3_linear_65420_301" x1="19" x2="45" y1="19" y2="45" gradientUnits="userSpaceOnUse">
      <stop stop-color="lightgray" />
      <stop offset="1" stop-color="lightgray" />
    </linearGradient>
    <linearGradient id="id7301e-i23abb4-paint4_linear_65420_301" x1="19" x2="45" y1="19" y2="45" gradientUnits="userSpaceOnUse">
      <stop stop-color="lightgray" />
      <stop offset="1" stop-color="lightgray" />
    </linearGradient>
    <linearGradient id="id7301e-i23abb4-paint5_linear_65420_301" x1="19" x2="45" y1="19" y2="45" gradientUnits="userSpaceOnUse">
      <stop stop-color="lightgray" />
      <stop offset="1" stop-color="lightgray" />
    </linearGradient>
    <linearGradient id="id7301e-i23abb4-paint6_linear_65420_301" x1="19" x2="45" y1="19" y2="45" gradientUnits="userSpaceOnUse">
      <stop stop-color="lightgray" />
      <stop offset="1" stop-color="lightgray" />
    </linearGradient>
  </defs>
</svg>
