<svg xmlns="http://www.w3.org/2000/svg" width="64" height="64" fill="lightgray">
  <path fill="lightgray" d="M49 6a7 7 0 0 1 7 7v38c0 5.36-3.835 9.823-8.911 10.799v-3.393h-3.406V62H19a7 7 0 0 1-7-7V13a7 7 0 0 1 7-7z" />
  <path fill="lightgray" fill-opacity=".2" d="M49 6a7 7 0 0 1 7 7v38c0 5.36-3.835 9.823-8.911 10.799v-3.393h-3.406V62H19a7 7 0 0 1-7-7V13a7 7 0 0 1 7-7z" />
  <path fill="lightgray" d="M49 6a7 7 0 0 1 7 7v38c0 5.46-3.977 9.986-9.192 10.849v-1.016C51.468 59.982 55 55.905 55 51V13a6 6 0 0 0-6-6H19a6 6 0 0 0-6 6v42a6 6 0 0 0 6 6h25.339v1H19a7 7 0 0 1-7-7V13a7 7 0 0 1 7-7z" />
  <path fill="lightgray" fill-rule="evenodd" d="M45 3H15a6 6 0 0 0-6 6v42a6 6 0 0 0 6 6h30a6 6 0 0 0 6-6V9a6 6 0 0 0-6-6M15 2a7 7 0 0 0-7 7v42a7 7 0 0 0 7 7h30a7 7 0 0 0 7-7V9a7 7 0 0 0-7-7z" clip-rule="evenodd" />
  <path fill="lightgray" d="M20.271 16a.75.75 0 0 1 .75.75v26.5a.75.75 0 0 1-1.5 0v-26.5a.75.75 0 0 1 .75-.75" />
  <path fill="lightgray" d="M42.817 50.938a3.5 3.5 0 0 1 2.949 1.614v-.114a1.5 1.5 0 0 1 1.5-1.5h1.72c1.639 0 3.062.905 3.809 2.239v-.74a1.5 1.5 0 0 1 1.5-1.5l.153.008a1.5 1.5 0 0 1 1.347 1.492V59h2.942a1.5 1.5 0 0 1 0 3h-4.442a1.5 1.5 0 0 1-1.5-1.5v-.74a4.36 4.36 0 0 1-3.583 2.234l-.226.006h-1.72c-.424 0-.806-.177-1.078-.459A1.5 1.5 0 0 1 45.11 62l-.068-.005V62h-4.805a1.5 1.5 0 0 1-1.5-1.5v-8.063a1.5 1.5 0 0 1 1.5-1.5h2.58Z" />
  <path fill="lightgray" d="M42.817 51.938a2.516 2.516 0 0 1 1.004 4.818c.44.453.73 1.032.931 1.546.204.523.352 1.07.463 1.416.052.164.095.273.128.342a.498.498 0 0 1-.233.94.65.65 0 0 1-.44-.177 1 1 0 0 1-.193-.258 3.3 3.3 0 0 1-.214-.542c-.131-.41-.253-.871-.443-1.356-.384-.982-.913-1.698-1.864-1.698h-1.22V60.5a.5.5 0 0 1-1 0v-8.063a.5.5 0 0 1 .5-.5h2.581Zm6.17 0a3.375 3.375 0 0 1 3.366 3.38v2.302A3.375 3.375 0 0 1 48.986 61h-1.72a.5.5 0 0 1-.5-.5v-8.063a.5.5 0 0 1 .5-.5h1.72Zm5.308 0a.5.5 0 0 1 .5.5V60h3.941a.5.5 0 0 1 0 1h-4.441a.5.5 0 0 1-.5-.5v-8.063a.5.5 0 0 1 .5-.5ZM47.765 60h1.221a2.375 2.375 0 0 0 2.367-2.38v-2.303a2.375 2.375 0 0 0-2.367-2.38h-1.22V60Zm-7.029-4.031h2.081c.83 0 1.507-.678 1.507-1.516s-.677-1.515-1.507-1.516h-2.08v3.032Z" />
  <defs>
    <linearGradient id="iacaf74-i53c8bc-a" x1="24.222" x2="33.153" y1="6" y2="62.135" gradientUnits="userSpaceOnUse">
      <stop stop-color="lightgray" />
      <stop offset="1" stop-color="lightgray" />
    </linearGradient>
    <linearGradient id="iacaf74-i53c8bc-c" x1="26.208" x2="35.702" y1="6" y2="61.944" gradientUnits="userSpaceOnUse">
      <stop stop-color="lightgray" />
      <stop offset="1" stop-color="lightgray" />
    </linearGradient>
    <linearGradient id="iacaf74-i53c8bc-d" x1="20.222" x2="29.153" y1="2" y2="58.135" gradientUnits="userSpaceOnUse">
      <stop stop-color="lightgray" />
      <stop offset="1" stop-color="lightgray" />
    </linearGradient>
    <linearGradient id="iacaf74-i53c8bc-f" x1="22.208" x2="31.702" y1="2" y2="57.944" gradientUnits="userSpaceOnUse">
      <stop stop-color="lightgray" />
      <stop offset="1" stop-color="lightgray" />
    </linearGradient>
    <linearGradient id="iacaf74-i53c8bc-g" x1="19.521" x2="46.404" y1="16" y2="36.172" gradientUnits="userSpaceOnUse">
      <stop stop-color="lightgray" />
      <stop offset="1" stop-color="lightgray" />
    </linearGradient>
    <linearGradient id="iacaf74-i53c8bc-h" x1="19.521" x2="46.404" y1="16" y2="36.172" gradientUnits="userSpaceOnUse">
      <stop stop-color="lightgray" />
      <stop offset="1" stop-color="lightgray" />
    </linearGradient>
    <linearGradient id="iacaf74-i53c8bc-i" x1="19.521" x2="46.404" y1="16" y2="36.172" gradientUnits="userSpaceOnUse">
      <stop stop-color="lightgray" />
      <stop offset="1" stop-color="lightgray" />
    </linearGradient>
    <linearGradient id="iacaf74-i53c8bc-j" x1="39.735" x2="46.662" y1="51.938" y2="66.843" gradientUnits="userSpaceOnUse">
      <stop stop-color="lightgray" />
      <stop offset="1" stop-color="lightgray" />
    </linearGradient>
    <radialGradient id="iacaf74-i53c8bc-b" cx="0" cy="0" r="1" gradientTransform="matrix(23.2222 44.3333 -34.8333 16.625 26.056 20.583)" gradientUnits="userSpaceOnUse">
      <stop offset=".177" stop-color="lightgray" />
      <stop offset="1" stop-color="lightgray" />
    </radialGradient>
    <radialGradient id="iacaf74-i53c8bc-e" cx="0" cy="0" r="1" gradientTransform="matrix(23.2222 44.3333 -34.8333 16.625 22.056 16.583)" gradientUnits="userSpaceOnUse">
      <stop offset=".177" stop-color="lightgray" />
      <stop offset="1" stop-color="lightgray" />
    </radialGradient>
  </defs>
</svg>
