<svg xmlns="http://www.w3.org/2000/svg" width="64" height="64" fill="lightgray">
  <path fill="lightgray" fill-rule="evenodd" d="M51 7H13a6 6 0 0 0-6 6v38a6 6 0 0 0 6 6h38a6 6 0 0 0 6-6V13a6 6 0 0 0-6-6ZM13 6a7 7 0 0 0-7 7v38a7 7 0 0 0 7 7h38a7 7 0 0 0 7-7V13a7 7 0 0 0-7-7H13Z" clip-rule="evenodd" />
  <path fill="lightgray" d="M26.406 20.852A1.333 1.333 0 0 1 27.65 20h8.515c.927 0 1.57.922 1.252 1.792L35.324 27.5h4.837c1.178 0 1.777 1.416.957 2.262L27.784 43.503c-1.14 1.175-3.106.117-2.753-1.482l1.66-7.521h-2.774a1.917 1.917 0 0 1-1.788-2.61l4.277-11.038Z" />
  <defs>
    <linearGradient id="icon-16437ba73226a8b3__icon-0179ed2902fdf5b1__a" x1="20.444" x2="27.022" y1="6" y2="58.622" gradientUnits="userSpaceOnUse">
      <stop stop-color="lightgray" />
      <stop offset="1" stop-color="lightgray" />
    </linearGradient>
    <linearGradient id="icon-1054242dc4dd6223__icon-b667238bb7552d74__c" x1="22.792" x2="29.793" y1="6" y2="58.511" gradientUnits="userSpaceOnUse">
      <stop stop-color="lightgray" />
      <stop offset="1" stop-color="lightgray" />
    </linearGradient>
    <linearGradient id="icon-19fa30691569ca5f__icon-cf3c0634980bf1a7__d" x1="21.998" x2="45.492" y1="20" y2="39.085" gradientUnits="userSpaceOnUse">
      <stop stop-color="lightgray" />
      <stop offset="1" stop-color="lightgray" />
    </linearGradient>
    <radialGradient id="icon-9b0e3e8b84c081be__icon-afcd8ccfc3ca0676__b" cx="0" cy="0" r="1" gradientTransform="rotate(56.31 -6.951 30.895) scale(49.4762 42.8159)" gradientUnits="userSpaceOnUse">
      <stop offset=".177" stop-color="lightgray" />
      <stop offset="1" stop-color="lightgray" />
    </radialGradient>
  </defs>
</svg>
