<svg xmlns="http://www.w3.org/2000/svg" width="64" height="64" fill="lightgray">
  <path fill="lightgray" fill-rule="evenodd" d="M51 7H13a6 6 0 0 0-6 6v38a6 6 0 0 0 6 6h38a6 6 0 0 0 6-6V13a6 6 0 0 0-6-6ZM13 6a7 7 0 0 0-7 7v38a7 7 0 0 0 7 7h38a7 7 0 0 0 7-7V13a7 7 0 0 0-7-7H13Z" clip-rule="evenodd" />
  <path fill="lightgray" d="M22.245 18a.75.75 0 0 1 .75.75v26.5a.75.75 0 0 1-1.5 0v-26.5a.75.75 0 0 1 .75-.75Z" />
  <path fill="lightgray" d="M59.778 44.222c-4.296-4.296-11.26-4.296-15.556 0-4.296 4.296-4.296 11.26 0 15.556 4.296 4.296 11.26 4.296 15.556 0 4.296-4.296 4.296-11.26 0-15.556Z" />
  <path fill="lightgray" fill-rule="evenodd" d="M44.929 44.929c3.905-3.905 10.237-3.905 14.142 0 3.905 3.905 3.905 10.237 0 14.142-3.905 3.905-10.237 3.905-14.142 0-3.905-3.905-3.905-10.237 0-14.142Zm13.779 1.07-12.71 12.709a9 9 0 0 0 12.71-12.71Zm-13.072-.363A9 9 0 0 1 58 45.292L45.292 58a9 9 0 0 1 .344-12.364Z" clip-rule="evenodd" />
  <defs>
    <linearGradient id="icon-249be75617703d78__icon-eb7959849f7f5328__a" x1="20.444" x2="27.022" y1="6" y2="58.622" gradientUnits="userSpaceOnUse">
      <stop stop-color="lightgray" />
      <stop offset="1" stop-color="lightgray" />
    </linearGradient>
    <linearGradient id="icon-7474638e1fd51422__icon-30e71f7f5e91ca4b__c" x1="22.792" x2="29.793" y1="6" y2="58.511" gradientUnits="userSpaceOnUse">
      <stop stop-color="lightgray" />
      <stop offset="1" stop-color="lightgray" />
    </linearGradient>
    <linearGradient id="icon-39d045e2d23051bf__icon-cb35c2a6d8ae3b35__d" x1="21.495" x2="48.379" y1="18" y2="38.172" gradientUnits="userSpaceOnUse">
      <stop stop-color="lightgray" />
      <stop offset="1" stop-color="lightgray" />
    </linearGradient>
    <linearGradient id="icon-8a058bcb3dc0b3ac__icon-291df71175ab5759__e" x1="21.495" x2="48.379" y1="18" y2="38.172" gradientUnits="userSpaceOnUse">
      <stop stop-color="lightgray" />
      <stop offset="1" stop-color="lightgray" />
    </linearGradient>
    <linearGradient id="icon-523063872e5b2130__icon-feef98204f1ee732__f" x1="21.495" x2="48.379" y1="18" y2="38.172" gradientUnits="userSpaceOnUse">
      <stop stop-color="lightgray" />
      <stop offset="1" stop-color="lightgray" />
    </linearGradient>
    <linearGradient id="icon-2a249d3f5a248e76__icon-e46868b7a636c21e__g" x1="42" x2="62" y1="42" y2="62" gradientUnits="userSpaceOnUse">
      <stop stop-color="lightgray" />
      <stop offset="1" stop-color="lightgray" />
    </linearGradient>
    <radialGradient id="icon-3706dc3a51f0b7e5__icon-96cd3f50246d6cbb__b" cx="0" cy="0" r="1" gradientTransform="rotate(56.31 -6.951 30.895) scale(49.4762 42.8159)" gradientUnits="userSpaceOnUse">
      <stop offset=".177" stop-color="lightgray" />
      <stop offset="1" stop-color="lightgray" />
    </radialGradient>
  </defs>
</svg>
