<svg xmlns="http://www.w3.org/2000/svg" width="64" height="64" fill="lightgray">
  <path fill="lightgray" fill-rule="evenodd" d="M51 7H13a6 6 0 0 0-6 6v38a6 6 0 0 0 6 6h38a6 6 0 0 0 6-6V13a6 6 0 0 0-6-6ZM13 6a7 7 0 0 0-7 7v38a7 7 0 0 0 7 7h38a7 7 0 0 0 7-7V13a7 7 0 0 0-7-7H13Z" clip-rule="evenodd" />
  <path fill="lightgray" d="M20 21.75a.75.75 0 0 1 .75-.75h.58a2.75 2.75 0 0 1 2.597 1.842L24.332 24h17.105a1.5 1.5 0 0 1 1.428 1.962l-2.915 9A1.5 1.5 0 0 1 38.523 36H27.109a1.5 1.5 0 0 1-1.457-1.144l-2.056-8.416-1.085-3.103a1.25 1.25 0 0 0-1.18-.837h-.581a.75.75 0 0 1-.75-.75Z" />
  <defs>
    <linearGradient id="icon-c8749a8314e64ce0__icon-f9e219ba7237ad8b__a" x1="20.444" x2="27.022" y1="6" y2="58.622" gradientUnits="userSpaceOnUse">
      <stop stop-color="lightgray" />
      <stop offset="1" stop-color="lightgray" />
    </linearGradient>
    <linearGradient id="icon-fc1527f77b10b41f__icon-06946a0ba9b1d103__c" x1="22.792" x2="29.793" y1="6" y2="58.511" gradientUnits="userSpaceOnUse">
      <stop stop-color="lightgray" />
      <stop offset="1" stop-color="lightgray" />
    </linearGradient>
    <linearGradient id="icon-04e0e221740fe424__icon-67f4ec503f220ba5__d" x1="20" x2="43" y1="21" y2="43.938" gradientUnits="userSpaceOnUse">
      <stop stop-color="lightgray" />
      <stop offset="1" stop-color="lightgray" />
    </linearGradient>
    <linearGradient id="icon-8b5d6e5846c05023__icon-9f9d6583ee0ffd79__e" x1="20" x2="43" y1="21" y2="43.938" gradientUnits="userSpaceOnUse">
      <stop stop-color="lightgray" />
      <stop offset="1" stop-color="lightgray" />
    </linearGradient>
    <linearGradient id="icon-420c42c2ff1bd116__icon-547fcfe1e588ecd0__f" x1="20" x2="43" y1="21" y2="43.938" gradientUnits="userSpaceOnUse">
      <stop stop-color="lightgray" />
      <stop offset="1" stop-color="lightgray" />
    </linearGradient>
    <radialGradient id="icon-e0629900143a8505__icon-8dabc3149d8672e0__b" cx="0" cy="0" r="1" gradientTransform="rotate(56.31 -6.951 30.895) scale(49.4762 42.8159)" gradientUnits="userSpaceOnUse">
      <stop offset=".177" stop-color="lightgray" />
      <stop offset="1" stop-color="lightgray" />
    </radialGradient>
  </defs>
</svg>
