<svg xmlns="http://www.w3.org/2000/svg" width="64" height="64" fill="lightgray">
  <path fill="lightgray" fill-rule="evenodd" d="M51 7H13a6 6 0 0 0-6 6v38a6 6 0 0 0 6 6h38a6 6 0 0 0 6-6V13a6 6 0 0 0-6-6M13 6a7 7 0 0 0-7 7v38a7 7 0 0 0 7 7h38a7 7 0 0 0 7-7V13a7 7 0 0 0-7-7z" clip-rule="evenodd" />
  <path fill="lightgray" d="M40 21a4 4 0 1 1-3.929 4.75H34.25c-.69 0-1.25.56-1.25 1.25v10c0 .69.56 1.25 1.25 1.25h1.821a4 4 0 1 1 0 1.5H34.25A2.75 2.75 0 0 1 31.5 37v-4.253h-3.57a4 4 0 1 1-.001-1.5H31.5V27a2.75 2.75 0 0 1 2.75-2.75h1.821A4 4 0 0 1 40 21" />
  <defs>
    <linearGradient id="ie1d58b-i4076d5-paint0_linear_64423_1027" x1="20.444" x2="27.022" y1="6" y2="58.622" gradientUnits="userSpaceOnUse">
      <stop stop-color="lightgray" />
      <stop offset="1" stop-color="lightgray" />
    </linearGradient>
    <radialGradient id="ie1d58b-i4076d5-paint1_radial_64423_1027" cx="0" cy="0" r="1" gradientTransform="matrix(27.4444 41.1667 -41.1667 15.4375 22.611 19.542)" gradientUnits="userSpaceOnUse">
      <stop offset=".177" stop-color="lightgray" />
      <stop offset="1" stop-color="lightgray" />
    </radialGradient>
    <linearGradient id="ie1d58b-i4076d5-paint2_linear_64423_1027" x1="22.792" x2="29.793" y1="6" y2="58.511" gradientUnits="userSpaceOnUse">
      <stop stop-color="lightgray" />
      <stop offset="1" stop-color="lightgray" />
    </linearGradient>
    <linearGradient id="ie1d58b-i4076d5-paint3_linear_64423_1027" x1="20" x2="41.917" y1="21" y2="44.909" gradientUnits="userSpaceOnUse">
      <stop stop-color="lightgray" />
      <stop offset="1" stop-color="lightgray" />
    </linearGradient>
  </defs>
</svg>
