<svg xmlns="http://www.w3.org/2000/svg" width="64" height="64" fill="lightgray">
  <path fill="lightgray" fill-rule="evenodd" d="M51 7H13a6 6 0 0 0-6 6v38a6 6 0 0 0 6 6h38a6 6 0 0 0 6-6V13a6 6 0 0 0-6-6ZM13 6a7 7 0 0 0-7 7v38a7 7 0 0 0 7 7h38a7 7 0 0 0 7-7V13a7 7 0 0 0-7-7H13Z" clip-rule="evenodd" />
  <path fill="lightgray" d="M43.59 60a4.83 4.83 0 0 1-3.03-1.09 1.505 1.505 0 0 1-.21-2.11 1.5 1.5 0 0 1 2.11-.21c.33.27.74.41 1.17.41h.16c.94 0 .94-.19.94-.5 0-.21-.82-.44-1.09-.51l-.13-.04c-.87-.24-3.5-.98-3.5-3.44.04-.59.17-1.06.4-1.52.23-.44.54-.83.92-1.14.7-.59 1.64-.9 2.7-.9 1.16 0 2.36.39 3.2 1.03.32.243.513.592.57.961.153-.22.327-.428.52-.621.82-.82 1.98-1.28 3.18-1.28 1.2 0 2.37.47 3.18 1.28a4.47 4.47 0 0 1 1.297 2.72.997.997 0 0 1 .523.26v-2.8c0-.83.67-1.5 1.5-1.5s1.5.67 1.5 1.5V57h3c.83 0 1.5.67 1.5 1.5s-.67 1.5-1.5 1.5H58c-.41 0-.78-.163-1.051-.429a1.497 1.497 0 0 1-1.109.489c-.33 0-.64-.1-.9-.3l-.81-.61c-.76.55-1.67.85-2.63.85a4.471 4.471 0 0 1-3.737-2h-.302c-.535 1.249-1.788 1.98-3.531 1.98l-.088.004c-.062.002-.142.006-.222.006l-.03.01Z" />
  <path fill="lightgray" d="M42.59 51.39c.85-.71 2.53-.49 3.4.18.22.17.53.13.7-.09.17-.22.13-.53-.09-.7-1.19-.91-3.39-1.21-4.65-.16a2.65 2.65 0 0 0-.96 1.89c0 1.69 1.92 2.24 2.77 2.47l.13.04c.96.26 1.82.58 1.82 1.47 0 .64-.19 1.49-1.86 1.49a2.82 2.82 0 0 1-2.04-.63.503.503 0 0 0-.7.07c-.17.21-.14.53.07.7.69.56 1.55.86 2.4.86.1 0 .21 0 .31-.01 1.79 0 2.82-.91 2.82-2.49 0-1.73-1.73-2.21-2.56-2.44l-.14-.04c-1.05-.29-2.01-.68-2.02-1.47.01-.22.07-.44.18-.64.1-.2.24-.37.42-.52v.02Z" />
  <path fill="lightgray" fill-rule="evenodd" d="M54.63 57.03c.23-.48.37-1 .37-1.53v-2c0-.94-.36-1.81-1.03-2.48-1.32-1.32-3.63-1.32-4.95 0-.66.66-1.03 1.54-1.03 2.48v2c0 .92.37 1.82 1.03 2.47.66.65 1.54 1.03 2.47 1.03.93 0 1.81-.36 2.47-1.03a.482.482 0 0 0 .062-.08l.028-.04 1.47 1.1c.09.07.2.1.3.1.15 0 .3-.07.4-.2.17-.22.12-.53-.1-.7l-1.51-1.13.02.01Zm-1.36.24c-.95.94-2.59.94-3.54 0-.47-.47-.73-1.11-.73-1.77v-2c0-.67.26-1.3.73-1.77s1.1-.73 1.77-.73c.67 0 1.3.26 1.77.73s.73 1.1.73 1.77v2c0 .32-.06.63-.18.92l-.92-.69a.498.498 0 0 0-.7.1c-.17.22-.12.53.1.7l.97.73v.01Z" clip-rule="evenodd" />
  <path fill="lightgray" d="M58.5 58h4c.28 0 .5.22.5.5s-.22.5-.5.5H58c-.28 0-.5-.22-.5-.5v-8c0-.28.22-.5.5-.5s.5.22.5.5V58Z" />
  <path fill="lightgray" d="M21 24.866v16.148h.003c.036.793.426 1.495 1 2.077.601.61 1.439 1.13 2.424 1.553C26.401 45.49 29.085 46 32.02 46c2.934 0 5.61-.51 7.574-1.357.98-.423 1.814-.943 2.411-1.553.576-.588.964-1.296.994-2.096H43V24.867c-.11.12-.227.232-.345.337-.721.643-1.676 1.15-2.723 1.545C37.827 27.54 35.022 28 32 28c-3.022 0-5.827-.459-7.932-1.252-1.047-.395-2.002-.902-2.723-1.545a5.022 5.022 0 0 1-.345-.337Z" />
  <path fill="lightgray" d="M43 22.484v.032c-.006.76-.418 1.414-1.01 1.94-.597.533-1.43.986-2.41 1.356C37.612 26.553 34.932 27 32 27s-5.613-.447-7.58-1.188c-.85-.32-1.59-.704-2.16-1.148l-.038-.03a4.748 4.748 0 0 1-.212-.177c-.596-.531-1.01-1.19-1.01-1.957a2.127 2.127 0 0 1 .019-.282c.087-.647.47-1.21.991-1.675.597-.532 1.43-.985 2.41-1.355C26.388 18.447 29.068 18 32 18s5.613.447 7.58 1.188c.98.37 1.813.823 2.41 1.355.047.042.093.085.138.129.517.503.867 1.113.872 1.812Z" />
  <defs>
    <linearGradient id="icon-83fcab0d9b1c34f7__icon-1f08392829e3293d__a" x1="20.444" x2="27.022" y1="6" y2="58.622" gradientUnits="userSpaceOnUse">
      <stop stop-color="lightgray" />
      <stop offset="1" stop-color="lightgray" />
    </linearGradient>
    <linearGradient id="icon-1c5676755988e4e4__icon-769ecaeb22e1b1b4__c" x1="22.792" x2="29.793" y1="6" y2="58.511" gradientUnits="userSpaceOnUse">
      <stop stop-color="lightgray" />
      <stop offset="1" stop-color="lightgray" />
    </linearGradient>
    <linearGradient id="icon-781045181bbdd447__icon-c2754c90a813adf8__d" x1="40.99" x2="47.411" y1="49.955" y2="65.492" gradientUnits="userSpaceOnUse">
      <stop stop-color="lightgray" />
      <stop offset="1" stop-color="lightgray" />
    </linearGradient>
    <linearGradient id="icon-d8765d48708027e5__icon-d602f5427c250348__e" x1="40.99" x2="47.411" y1="49.955" y2="65.492" gradientUnits="userSpaceOnUse">
      <stop stop-color="lightgray" />
      <stop offset="1" stop-color="lightgray" />
    </linearGradient>
    <linearGradient id="icon-464344577a97f67e__icon-7a7806aa22e5b393__f" x1="40.99" x2="47.411" y1="49.955" y2="65.492" gradientUnits="userSpaceOnUse">
      <stop stop-color="lightgray" />
      <stop offset="1" stop-color="lightgray" />
    </linearGradient>
    <linearGradient id="icon-33769f11184b89ff__icon-5d04d1b4809a58a6__g" x1="21" x2="48.205" y1="18" y2="39.375" gradientUnits="userSpaceOnUse">
      <stop stop-color="lightgray" />
      <stop offset="1" stop-color="lightgray" />
    </linearGradient>
    <linearGradient id="icon-b4239062ca384afb__icon-6759990ecd305907__h" x1="21" x2="48.205" y1="18" y2="39.375" gradientUnits="userSpaceOnUse">
      <stop stop-color="lightgray" />
      <stop offset="1" stop-color="lightgray" />
    </linearGradient>
    <radialGradient id="icon-000e8477d7098004__icon-ff2474b83811eaf2__b" cx="0" cy="0" r="1" gradientTransform="rotate(56.31 -6.951 30.895) scale(49.4762 42.8159)" gradientUnits="userSpaceOnUse">
      <stop offset=".177" stop-color="lightgray" />
      <stop offset="1" stop-color="lightgray" />
    </radialGradient>
  </defs>
</svg>
