<svg xmlns="http://www.w3.org/2000/svg" width="64" height="64" fill="lightgray">
  <path fill="lightgray" fill-rule="evenodd" d="M51 7H13a6 6 0 0 0-6 6v38a6 6 0 0 0 6 6h38a6 6 0 0 0 6-6V13a6 6 0 0 0-6-6ZM13 6a7 7 0 0 0-7 7v38a7 7 0 0 0 7 7h38a7 7 0 0 0 7-7V13a7 7 0 0 0-7-7H13Z" clip-rule="evenodd" />
  <path fill="lightgray" d="M30.05 19.807a2.758 2.758 0 0 1 3.9 0l5.121 5.121a10.05 10.05 0 0 1 1.282 1.569c2.562 3.882 2.135 9.156-1.282 12.574l-.08.079A9.954 9.954 0 0 1 33 41.95V45a1 1 0 1 1-2 0v-3.05a9.958 9.958 0 0 1-6.071-2.88A9.969 9.969 0 0 1 22 31.965a10.034 10.034 0 0 1 1.038-4.407 9.99 9.99 0 0 1 1.89-2.629l5.122-5.12Zm.95 20.13a8.044 8.044 0 0 0 2 0V31a1 1 0 1 0-2 0v8.937Z" />
  <defs>
    <linearGradient id="icon-80e1727bddefaef7__icon-f88b668de5e7eee0__a" x1="20.444" x2="27.022" y1="6" y2="58.622" gradientUnits="userSpaceOnUse">
      <stop stop-color="lightgray" />
      <stop offset="1" stop-color="lightgray" />
    </linearGradient>
    <linearGradient id="icon-753e2b7346d24f8d__icon-f40682627211d6d9__c" x1="22.792" x2="29.793" y1="6" y2="58.511" gradientUnits="userSpaceOnUse">
      <stop stop-color="lightgray" />
      <stop offset="1" stop-color="lightgray" />
    </linearGradient>
    <linearGradient id="icon-16d715d5a399e0f9__icon-598d7a3a4d62fb22__d" x1="22" x2="47.828" y1="19" y2="38.131" gradientUnits="userSpaceOnUse">
      <stop stop-color="lightgray" />
      <stop offset="1" stop-color="lightgray" />
    </linearGradient>
    <radialGradient id="icon-1586e0e0fcc29c55__icon-f5ea6f717ae6f825__b" cx="0" cy="0" r="1" gradientTransform="rotate(56.31 -6.951 30.895) scale(49.4762 42.8159)" gradientUnits="userSpaceOnUse">
      <stop offset=".177" stop-color="lightgray" />
      <stop offset="1" stop-color="lightgray" />
    </radialGradient>
  </defs>
</svg>
