<svg xmlns="http://www.w3.org/2000/svg" width="64" height="64" fill="currentColor"><path fill="url(#icon-820b3d947e2b0656__icon-182c80284d528a72__a)" d="M6 13a7 7 0 0 1 7-7h38a7 7 0 0 1 7 7v38a7 7 0 0 1-7 7H13a7 7 0 0 1-7-7V13Z"/><path fill="url(#icon-563dbd5ebfdc24c8__icon-272affb4ce9a3b3a__b)" fill-opacity=".2" d="M6 13a7 7 0 0 1 7-7h38a7 7 0 0 1 7 7v38a7 7 0 0 1-7 7H13a7 7 0 0 1-7-7V13Z"/><path fill="url(#icon-107307a345283025__icon-00782b4262f36505__c)" fill-rule="evenodd" d="M51 7H13a6 6 0 0 0-6 6v38a6 6 0 0 0 6 6h38a6 6 0 0 0 6-6V13a6 6 0 0 0-6-6ZM13 6a7 7 0 0 0-7 7v38a7 7 0 0 0 7 7h38a7 7 0 0 0 7-7V13a7 7 0 0 0-7-7H13Z" clip-rule="evenodd"/><path fill="url(#icon-0084779ff6e2d363__icon-cdc4ece4fa45a9b1__d)" fill-rule="evenodd" d="M21 24a2 2 0 0 1 2-2h7.52a2 2 0 0 1 2 2v8.5h8.489a2 2 0 0 1 2 2v7.52a2 2 0 0 1-2 2h-9.52V44h-8.488a2 2 0 0 1-2-2L21 24Zm2-1h7.52a1 1 0 0 1 1 1v8.48H22V24a1 1 0 0 1 1-1Zm-1 10.52V42a1 1 0 0 0 1 1h8.49v-9.48H22Zm19.009 9.5H32.52V33.5h8.489a1 1 0 0 1 1 1v7.52a1 1 0 0 1-1 1Z" clip-rule="evenodd"/><path fill="url(#icon-4e341b144e7579ae__icon-972509edfddc6e82__e)" d="M32.182 27.914a2 2 0 0 1 0-2.828l4.413-4.412a2 2 0 0 1 2.828 0l4.412 4.412a2 2 0 0 1 0 2.828l-4.412 4.412a2 2 0 0 1-2.828 0l-4.413-4.412Z"/><defs><linearGradient id="icon-820b3d947e2b0656__icon-182c80284d528a72__a" x1="20.444" x2="27.022" y1="6" y2="58.622" gradientUnits="userSpaceOnUse"><stop stop-color="#fff"/><stop offset="1" stop-color="#EBEBEB"/></linearGradient><linearGradient id="icon-107307a345283025__icon-00782b4262f36505__c" x1="22.792" x2="29.793" y1="6" y2="58.511" gradientUnits="userSpaceOnUse"><stop stop-color="#BBB"/><stop offset="1" stop-color="#888"/></linearGradient><linearGradient id="icon-0084779ff6e2d363__icon-cdc4ece4fa45a9b1__d" x1="21" x2="43.02" y1="22" y2="44.009" gradientUnits="userSpaceOnUse"><stop stop-color="#EB6D00"/><stop offset="1" stop-color="#B85500"/></linearGradient><linearGradient id="icon-4e341b144e7579ae__icon-972509edfddc6e82__e" x1="31.597" x2="44.421" y1="20.088" y2="32.912" gradientUnits="userSpaceOnUse"><stop stop-color="#EB6D00"/><stop offset="1" stop-color="#B85500"/></linearGradient><radialGradient id="icon-563dbd5ebfdc24c8__icon-272affb4ce9a3b3a__b" cx="0" cy="0" r="1" gradientTransform="rotate(56.31 -6.951 30.895) scale(49.4762 42.8159)" gradientUnits="userSpaceOnUse"><stop offset=".177" stop-color="#fff"/><stop offset="1" stop-color="#B8B8B8"/></radialGradient></defs></svg>
