<svg xmlns="http://www.w3.org/2000/svg" width="64" height="64" fill="currentColor"><path fill="url(#a)" d="M6 13a7 7 0 0 1 7-7h38a7 7 0 0 1 7 7v38a7 7 0 0 1-7 7H13a7 7 0 0 1-7-7V13Z"/><path fill="url(#b)" fill-opacity=".2" d="M6 13a7 7 0 0 1 7-7h38a7 7 0 0 1 7 7v38a7 7 0 0 1-7 7H13a7 7 0 0 1-7-7V13Z"/><path fill="url(#c)" fill-rule="evenodd" d="M51 7H13a6 6 0 0 0-6 6v38a6 6 0 0 0 6 6h38a6 6 0 0 0 6-6V13a6 6 0 0 0-6-6ZM13 6a7 7 0 0 0-7 7v38a7 7 0 0 0 7 7h38a7 7 0 0 0 7-7V13a7 7 0 0 0-7-7H13Z" clip-rule="evenodd"/><path fill="url(#d)" d="M41 21a3 3 0 0 1-3.094 2.998l-1.114 2.69a6.027 6.027 0 0 1 2.144 1.9 5.024 5.024 0 0 0-1.978.02A4.5 4.5 0 1 0 34 36.5c.284.38.62.717 1 1.001h-.583c-.597 0-1.15.136-1.641.375a6.01 6.01 0 0 1-4.037-2.988L26 36.022a3 3 0 1 1-.37-1.47l2.558-1.06a6.013 6.013 0 0 1 .966-5.029l-2.79-2.79a3 3 0 1 1 1.125-.996l2.694 2.694a6.014 6.014 0 0 1 5.204-1.21l1.072-2.587A3 3 0 1 1 41 21Z"/><path fill="url(#e)" d="M41.5 33.5a3.5 3.5 0 1 1-7 0 3.5 3.5 0 0 1 7 0Z"/><path fill="url(#f)" d="M38 46c4.286 0 6-2.196 6-4.375C44 40.187 42.918 39 41.583 39h-7.166C33.082 39 32 40.187 32 41.625 32 43.812 33.714 46 38 46Z"/><defs><linearGradient id="a" x1="20.444" x2="27.022" y1="6" y2="58.622" gradientUnits="userSpaceOnUse"><stop stop-color="#fff"/><stop offset="1" stop-color="#EBEBEB"/></linearGradient><linearGradient id="c" x1="22.792" x2="29.793" y1="6" y2="58.511" gradientUnits="userSpaceOnUse"><stop stop-color="#BBB"/><stop offset="1" stop-color="#888"/></linearGradient><linearGradient id="d" x1="20" x2="47.671" y1="18" y2="41.718" gradientUnits="userSpaceOnUse"><stop stop-color="#7751B8"/><stop offset="1" stop-color="#5A409C"/></linearGradient><linearGradient id="e" x1="20" x2="47.671" y1="18" y2="41.718" gradientUnits="userSpaceOnUse"><stop stop-color="#7751B8"/><stop offset="1" stop-color="#5A409C"/></linearGradient><linearGradient id="f" x1="20" x2="47.671" y1="18" y2="41.718" gradientUnits="userSpaceOnUse"><stop stop-color="#7751B8"/><stop offset="1" stop-color="#5A409C"/></linearGradient><radialGradient id="b" cx="0" cy="0" r="1" gradientTransform="rotate(56.31 -6.951 30.895) scale(49.4762 42.8159)" gradientUnits="userSpaceOnUse"><stop offset=".177" stop-color="#fff"/><stop offset="1" stop-color="#B8B8B8"/></radialGradient></defs></svg>
