<svg xmlns="http://www.w3.org/2000/svg" width="64" height="64" fill="none"><path fill="url(#i453247-i0b2ba8-paint0_linear_62220_743)" d="M6 13a7 7 0 0 1 7-7h38a7 7 0 0 1 7 7v38a7 7 0 0 1-7 7H13a7 7 0 0 1-7-7z"/><path fill="url(#i453247-i0b2ba8-paint1_radial_62220_743)" fill-opacity=".2" d="M6 13a7 7 0 0 1 7-7h38a7 7 0 0 1 7 7v38a7 7 0 0 1-7 7H13a7 7 0 0 1-7-7z"/><path fill="url(#i453247-i0b2ba8-paint2_linear_62220_743)" fill-rule="evenodd" d="M51 7H13a6 6 0 0 0-6 6v38a6 6 0 0 0 6 6h38a6 6 0 0 0 6-6V13a6 6 0 0 0-6-6M13 6a7 7 0 0 0-7 7v38a7 7 0 0 0 7 7h38a7 7 0 0 0 7-7V13a7 7 0 0 0-7-7z" clip-rule="evenodd"/><path fill="url(#i453247-i0b2ba8-paint3_linear_62220_743)" d="M29.454 22.526a3.25 3.25 0 0 0 0 4.597l7.426 7.424a3.25 3.25 0 0 0 4.596 0l.036-.037a8.5 8.5 0 0 0 .666-11.272l3.53-3.53a1 1 0 0 0-1.415-1.414l-3.53 3.53a8.5 8.5 0 0 0-11.272.666zm5.095 14.351a3.25 3.25 0 0 1 0 4.596l-.036.037a8.5 8.5 0 0 1-11.273.666l-3.529 3.53a1 1 0 0 1-1.414-1.415l3.53-3.53a8.5 8.5 0 0 1 .665-11.272l.036-.036a3.25 3.25 0 0 1 4.596 0z"/><path fill="#F5F5F5" d="M57.5 43a1.5 1.5 0 0 1 0 3h-.124l.002.003L57.5 46h4a1.5 1.5 0 0 1 0 3 1.5 1.5 0 0 1 0 3H58v1a8 8 0 0 1-8 8h-.5a1.5 1.5 0 0 1-.157-2.992L49.34 58H46.5a1.5 1.5 0 0 1 0-3 1.5 1.5 0 0 1 0-3H49v-1a8 8 0 0 1 8-8z"/><path fill="url(#i453247-i0b2ba8-paint4_linear_62220_743)" d="M51 51a6 6 0 0 1 6-6h.5a.5.5 0 0 0 0-1H57a7 7 0 0 0-7 7v1a1 1 0 0 1-1 1h-2.5a.5.5 0 0 0 0 1H49a2 2 0 0 0 2-2zm6.5-3a3.5 3.5 0 0 0-3.5 3.5v1a4.5 4.5 0 0 1-4.5 4.5h-3a.5.5 0 0 1 0-1h3a3.5 3.5 0 0 0 3.5-3.5v-1a4.5 4.5 0 0 1 4.5-4.5h4a.5.5 0 0 1 0 1zm.5 3a1 1 0 0 0-1 1v1a7 7 0 0 1-7 7h-.5a.5.5 0 0 1 0-1h.5a6 6 0 0 0 6-6v-1a2 2 0 0 1 2-2h3.5a.5.5 0 0 1 0 1z"/><defs><linearGradient id="i453247-i0b2ba8-paint0_linear_62220_743" x1="20.444" x2="27.022" y1="6" y2="58.622" gradientUnits="userSpaceOnUse"><stop stop-color="#fff"/><stop offset="1" stop-color="#EBEBEB"/></linearGradient><radialGradient id="i453247-i0b2ba8-paint1_radial_62220_743" cx="0" cy="0" r="1" gradientTransform="matrix(27.44448 41.16667 -35.62497 23.75 22.611 19.542)" gradientUnits="userSpaceOnUse"><stop offset=".177" stop-color="#fff"/><stop offset="1" stop-color="#B8B8B8"/></radialGradient><linearGradient id="i453247-i0b2ba8-paint2_linear_62220_743" x1="22.792" x2="29.793" y1="6" y2="58.511" gradientUnits="userSpaceOnUse"><stop stop-color="#BBB"/><stop offset="1" stop-color="#888"/></linearGradient><linearGradient id="i453247-i0b2ba8-paint3_linear_62220_743" x1="18.004" x2="46.001" y1="18.001" y2="45.998" gradientUnits="userSpaceOnUse"><stop stop-color="#4BA446"/><stop offset="1" stop-color="#3F7D35"/></linearGradient><linearGradient id="i453247-i0b2ba8-paint4_linear_62220_743" x1="46" x2="62" y1="44" y2="60" gradientUnits="userSpaceOnUse"><stop stop-color="#4BA446"/><stop offset="1" stop-color="#3F7D35"/></linearGradient></defs></svg>
