<svg xmlns="http://www.w3.org/2000/svg" width="64" height="64" fill="currentColor"><path fill="url(#a)" d="M6 13a7 7 0 0 1 7-7h38a7 7 0 0 1 7 7v38a7 7 0 0 1-7 7H13a7 7 0 0 1-7-7V13Z"/><path fill="url(#b)" fill-opacity=".2" d="M6 13a7 7 0 0 1 7-7h38a7 7 0 0 1 7 7v38a7 7 0 0 1-7 7H13a7 7 0 0 1-7-7V13Z"/><path fill="url(#c)" fill-rule="evenodd" d="M51 7H13a6 6 0 0 0-6 6v38a6 6 0 0 0 6 6h38a6 6 0 0 0 6-6V13a6 6 0 0 0-6-6ZM13 6a7 7 0 0 0-7 7v38a7 7 0 0 0 7 7h38a7 7 0 0 0 7-7V13a7 7 0 0 0-7-7H13Z" clip-rule="evenodd"/><path fill="url(#d)" stroke="currentColor" d="M32 45.5c7.456 0 13.5-6.044 13.5-13.5S39.456 18.5 32 18.5 18.5 24.544 18.5 32 24.544 45.5 32 45.5Z"/><path fill="#F4D58A" fill-rule="evenodd" d="M31.646 22.938a8.655 8.655 0 0 0-7.285 13.33.5.5 0 0 1-.84.54 9.616 9.616 0 0 1-1.53-5.216 9.655 9.655 0 0 1 9.655-9.655c1.188 0 2.327.215 3.38.608a.5.5 0 0 1-.35.937 8.634 8.634 0 0 0-3.03-.544Z" clip-rule="evenodd"/><path fill="#F4D58A" d="M33.58 33.88c1.55-2.46 3.12-4.94 4.64-7.39l.63-.99c.65-.98-.83-2.06-1.59-1.18l-.21.18c-.16.14-.32.27-.48.41l-1.03.88c-.71.6-1.42 1.21-2.13 1.81-.91.77-1.82 1.55-2.73 2.32l-.59.5c-3.15 2.42 1.1 6.64 3.48 3.47l.01-.01Z"/><defs><linearGradient id="a" x1="20.444" x2="27.022" y1="6" y2="58.622" gradientUnits="userSpaceOnUse"><stop stop-color="#fff"/><stop offset="1" stop-color="#EBEBEB"/></linearGradient><linearGradient id="c" x1="22.792" x2="29.793" y1="6" y2="58.511" gradientUnits="userSpaceOnUse"><stop stop-color="#BBB"/><stop offset="1" stop-color="#888"/></linearGradient><linearGradient id="d" x1="18" x2="46" y1="18" y2="46" gradientUnits="userSpaceOnUse"><stop stop-color="#C28400"/><stop offset="1" stop-color="#A86500"/></linearGradient><radialGradient id="b" cx="0" cy="0" r="1" gradientTransform="rotate(56.31 -6.951 30.895) scale(49.4762 42.8159)" gradientUnits="userSpaceOnUse"><stop offset=".177" stop-color="#fff"/><stop offset="1" stop-color="#B8B8B8"/></radialGradient></defs></svg>
