<svg xmlns="http://www.w3.org/2000/svg" width="64" height="64" fill="currentColor"><path fill="url(#icon-34dec29ac086211c__icon-1a21a3b7c69dd5bf__a)" d="M4 17a7 7 0 0 1 7-7h42a7 7 0 0 1 7 7v30a7 7 0 0 1-7 7H11a7 7 0 0 1-7-7V17Z"/><path fill="url(#icon-ecf6da96d16849c3__icon-730cf0b0dfdfb7e0__b)" fill-opacity=".2" d="M4 17a7 7 0 0 1 7-7h42a7 7 0 0 1 7 7v30a7 7 0 0 1-7 7H11a7 7 0 0 1-7-7V17Z"/><path fill="url(#icon-81eda64f8ecbabd6__icon-ffa10f9b9e7e6f90__c)" fill-rule="evenodd" d="M53 11H11a6 6 0 0 0-6 6v30a6 6 0 0 0 6 6h42a6 6 0 0 0 6-6V17a6 6 0 0 0-6-6Zm-42-1a7 7 0 0 0-7 7v30a7 7 0 0 0 7 7h42a7 7 0 0 0 7-7V17a7 7 0 0 0-7-7H11Z" clip-rule="evenodd"/><path fill="url(#icon-ff7905daa078ff35__icon-0f2307daf18bc6ef__d)" d="M32 36.966a1.5 1.5 0 1 0 0-3 1.5 1.5 0 0 0 0 3Z"/><path fill="url(#icon-90522182c2289a3d__icon-7b4750d1117ca8ea__e)" d="M27.5 35.466a1.5 1.5 0 1 1-3 0 1.5 1.5 0 0 1 3 0Z"/><path fill="url(#icon-70c4beac73543fe4__icon-49f6bea32cc3c820__f)" d="M38 36.966a1.5 1.5 0 1 0 0-3 1.5 1.5 0 0 0 0 3Z"/><path fill="url(#icon-6a79860ade2d6960__icon-38ce38a97302e995__g)" fill-rule="evenodd" d="M23.573 22.45c-.335 0-.654.141-.88.388l-4.377 4.774c-.702.766-.159 2 .88 2H21v10.032c0 1.319 1.094 2.387 2.444 2.387h17.112c1.35 0 2.444-1.068 2.444-2.387V29.613h1.804c1.039 0 1.582-1.235.88-2l-4.377-4.775a1.193 1.193 0 0 0-.88-.387H23.573ZM22 29.614h20v10.031c0 .744-.624 1.387-1.444 1.387H23.444c-.82 0-1.444-.643-1.444-1.387V29.613Z" clip-rule="evenodd"/><defs><linearGradient id="icon-34dec29ac086211c__icon-1a21a3b7c69dd5bf__a" x1="19.556" x2="23.955" y1="10" y2="54.79" gradientUnits="userSpaceOnUse"><stop stop-color="#fff"/><stop offset="1" stop-color="#EBEBEB"/></linearGradient><linearGradient id="icon-81eda64f8ecbabd6__icon-ffa10f9b9e7e6f90__c" x1="22.083" x2="26.77" y1="10" y2="54.731" gradientUnits="userSpaceOnUse"><stop stop-color="#BBB"/><stop offset="1" stop-color="#888"/></linearGradient><linearGradient id="icon-ff7905daa078ff35__icon-0f2307daf18bc6ef__d" x1="18" x2="36.392" y1="22.451" y2="48.751" gradientUnits="userSpaceOnUse"><stop stop-color="#7751B8"/><stop offset="1" stop-color="#5A409C"/></linearGradient><linearGradient id="icon-90522182c2289a3d__icon-7b4750d1117ca8ea__e" x1="18" x2="36.392" y1="22.451" y2="48.751" gradientUnits="userSpaceOnUse"><stop stop-color="#7751B8"/><stop offset="1" stop-color="#5A409C"/></linearGradient><linearGradient id="icon-70c4beac73543fe4__icon-49f6bea32cc3c820__f" x1="18" x2="36.392" y1="22.451" y2="48.751" gradientUnits="userSpaceOnUse"><stop stop-color="#7751B8"/><stop offset="1" stop-color="#5A409C"/></linearGradient><linearGradient id="icon-6a79860ade2d6960__icon-38ce38a97302e995__g" x1="18" x2="36.392" y1="22.451" y2="48.751" gradientUnits="userSpaceOnUse"><stop stop-color="#7751B8"/><stop offset="1" stop-color="#5A409C"/></linearGradient><radialGradient id="icon-ecf6da96d16849c3__icon-730cf0b0dfdfb7e0__b" cx="0" cy="0" r="1" gradientTransform="matrix(29.55555 34.83332 -32.22036 27.33848 21.889 21.458)" gradientUnits="userSpaceOnUse"><stop offset=".177" stop-color="#fff"/><stop offset="1" stop-color="#B8B8B8"/></radialGradient></defs></svg>
