<svg xmlns="http://www.w3.org/2000/svg" width="64" height="64" fill="none"><path fill="url(#ia34f0d-i8c6737-paint0_linear_64423_1185)" d="M6 13a7 7 0 0 1 7-7h38a7 7 0 0 1 7 7v38a7 7 0 0 1-7 7H13a7 7 0 0 1-7-7z"/><path fill="url(#ia34f0d-i8c6737-paint1_radial_64423_1185)" fill-opacity=".2" d="M6 13a7 7 0 0 1 7-7h38a7 7 0 0 1 7 7v38a7 7 0 0 1-7 7H13a7 7 0 0 1-7-7z"/><path fill="url(#ia34f0d-i8c6737-paint2_linear_64423_1185)" fill-rule="evenodd" d="M51 7H13a6 6 0 0 0-6 6v38a6 6 0 0 0 6 6h38a6 6 0 0 0 6-6V13a6 6 0 0 0-6-6M13 6a7 7 0 0 0-7 7v38a7 7 0 0 0 7 7h38a7 7 0 0 0 7-7V13a7 7 0 0 0-7-7z" clip-rule="evenodd"/><path fill="url(#ia34f0d-i8c6737-paint3_linear_64423_1185)" d="M26.09 45.998a.955.955 0 0 1-.944-1.092c1.244-8.42 8.46-14.657 16.954-14.657h1.719c1.173 0 2.033-.7 2.033-1.876l.097-.462v8.169c0 1.287-1.04 2.33-2.326 2.33h-.964a8.15 8.15 0 0 0-7.789 5.768l-.307.994c-.154.49-.6.826-1.11.826z"/><path fill="url(#ia34f0d-i8c6737-paint4_linear_64423_1185)" d="M26.09 45.998a.955.955 0 0 1-.944-1.092c1.244-8.42 8.46-14.657 16.954-14.657h1.719c1.173 0 2.033-.7 2.033-1.876l.097-.462v8.169c0 1.287-1.04 2.33-2.326 2.33h-.964a8.15 8.15 0 0 0-7.789 5.768l-.307.994c-.154.49-.6.826-1.11.826z"/><path fill="url(#ia34f0d-i8c6737-paint5_linear_64423_1185)" d="M19.167 36.667A1.17 1.17 0 0 1 18 35.498V28.5a1.17 1.17 0 0 1 1.167-1.169h20.956A1.17 1.17 0 0 1 41.29 28.5v7a1.17 1.17 0 0 1-1.167 1.168z"/><path fill="url(#ia34f0d-i8c6737-paint6_radial_64423_1185)" d="M19.167 36.667A1.17 1.17 0 0 1 18 35.498V28.5a1.17 1.17 0 0 1 1.167-1.169h20.956A1.17 1.17 0 0 1 41.29 28.5v7a1.17 1.17 0 0 1-1.167 1.168z"/><path fill="url(#ia34f0d-i8c6737-paint7_linear_64423_1185)" d="M26.103 18a.97.97 0 0 0-.957 1.106c1.244 8.574 8.578 14.93 17.227 14.93h1.446c1.173 0 2.123.951 2.123 2.127v-8.245c0-1.288-1.04-2.33-2.326-2.33h-.964a8.15 8.15 0 0 1-7.789-5.768l-.307-.994c-.154-.49-.6-.826-1.11-.826z"/><path fill="url(#ia34f0d-i8c6737-paint8_linear_64423_1185)" d="M43.616 25.58h-.964a8.1 8.1 0 0 1-4.527-1.385v9.309c1.362.343 2.787.532 4.254.532h1.446c1.174 0 2.124.951 2.124 2.127v-8.245a2.327 2.327 0 0 0-2.326-2.33z" opacity=".4"/><path fill="url(#ia34f0d-i8c6737-paint9_linear_64423_1185)" d="M26.159 18a.97.97 0 0 0-.957 1.106c1.243 8.574 8.578 14.93 17.226 14.93h1.446c1.173 0 2.124.951 2.124 2.127v-8.245a2.327 2.327 0 0 0-2.327-2.33h-.964a8.15 8.15 0 0 1-7.789-5.768l-.307-.994c-.154-.49-.6-.826-1.11-.826h-7.343" opacity=".7"/><defs><linearGradient id="ia34f0d-i8c6737-paint0_linear_64423_1185" x1="20.444" x2="27.022" y1="6" y2="58.622" gradientUnits="userSpaceOnUse"><stop stop-color="#fff"/><stop offset="1" stop-color="#EBEBEB"/></linearGradient><radialGradient id="ia34f0d-i8c6737-paint1_radial_64423_1185" cx="0" cy="0" r="1" gradientTransform="matrix(27.4444 41.1667 -41.1667 15.4375 22.611 19.542)" gradientUnits="userSpaceOnUse"><stop offset=".177" stop-color="#fff"/><stop offset="1" stop-color="#B8B8B8"/></radialGradient><linearGradient id="ia34f0d-i8c6737-paint2_linear_64423_1185" x1="22.792" x2="29.793" y1="6" y2="58.511" gradientUnits="userSpaceOnUse"><stop stop-color="#BBB"/><stop offset="1" stop-color="#888"/></linearGradient><linearGradient id="ia34f0d-i8c6737-paint3_linear_64423_1185" x1="26.781" x2="46.106" y1="47.37" y2="28.082" gradientUnits="userSpaceOnUse"><stop offset=".26" stop-color="#0D7012"/><stop offset="1" stop-color="#085714"/></linearGradient><linearGradient id="ia34f0d-i8c6737-paint4_linear_64423_1185" x1="55.387" x2="18.72" y1="33.476" y2="41.606" gradientUnits="userSpaceOnUse"><stop offset=".04" stop-color="#114A8A"/><stop offset="1" stop-color="#0C59A3" stop-opacity="0"/></linearGradient><linearGradient id="ia34f0d-i8c6737-paint5_linear_64423_1185" x1="3.4" x2="40.57" y1="31.999" y2="31.999" gradientUnits="userSpaceOnUse"><stop stop-color="#107C10"/><stop offset=".96" stop-color="#56B50E"/></linearGradient><radialGradient id="ia34f0d-i8c6737-paint6_radial_64423_1185" cx="0" cy="0" r="1" gradientTransform="matrix(3.94488 -5.92007 -15.0664 -10.0793 36.53 30.48)" gradientUnits="userSpaceOnUse"><stop stop-opacity=".3"/><stop offset="1" stop-opacity="0"/></radialGradient><linearGradient id="ia34f0d-i8c6737-paint7_linear_64423_1185" x1="47.276" x2="29.178" y1="41.56" y2="15.759" gradientUnits="userSpaceOnUse"><stop offset=".04" stop-color="#33980F"/><stop offset="1" stop-color="#BAE884"/></linearGradient><linearGradient id="ia34f0d-i8c6737-paint8_linear_64423_1185" x1="41.653" x2="45.858" y1="30.179" y2="30.179" gradientUnits="userSpaceOnUse"><stop stop-color="#E5FAC1" stop-opacity="0"/><stop offset=".56" stop-color="#E5FAC1" stop-opacity=".52"/><stop offset="1" stop-color="#E5FAC1"/></linearGradient><linearGradient id="ia34f0d-i8c6737-paint9_linear_64423_1185" x1="24.259" x2="35.174" y1="4.764" y2="23.623" gradientUnits="userSpaceOnUse"><stop offset=".14" stop-color="#FDE100"/><stop offset=".98" stop-color="#FFC600" stop-opacity="0"/></linearGradient></defs></svg>
