<svg xmlns="http://www.w3.org/2000/svg" width="64" height="64" fill="currentColor"><path fill="url(#a)" d="M51 6.5H13A6.5 6.5 0 0 0 6.5 13v38a6.5 6.5 0 0 0 6.5 6.5h38a6.5 6.5 0 0 0 6.5-6.5V13A6.5 6.5 0 0 0 51 6.5Z"/><path fill="url(#b)" fill-opacity=".2" d="M51 6.5H13A6.5 6.5 0 0 0 6.5 13v38a6.5 6.5 0 0 0 6.5 6.5h38a6.5 6.5 0 0 0 6.5-6.5V13A6.5 6.5 0 0 0 51 6.5Z"/><path stroke="currentColor" d="M51 6.5H13A6.5 6.5 0 0 0 6.5 13v38a6.5 6.5 0 0 0 6.5 6.5h38a6.5 6.5 0 0 0 6.5-6.5V13A6.5 6.5 0 0 0 51 6.5Z"/><path fill="url(#c)" d="M26.75 27.93A4.001 4.001 0 0 0 26 20a4 4 0 0 0-.75 7.93v8.14A4.001 4.001 0 0 0 26 44a4 4 0 0 0 .75-7.93v-3.274H34a4.75 4.75 0 0 0 4.75-4.75v-.116a4.001 4.001 0 1 0-1.5 0v.116a3.25 3.25 0 0 1-3.25 3.25h-7.25V27.93Z"/><defs><linearGradient id="a" x1="20.444" x2="27.022" y1="6" y2="58.622" gradientUnits="userSpaceOnUse"><stop stop-color="#fff"/><stop offset="1" stop-color="#EBEBEB"/></linearGradient><linearGradient id="c" x1="22" x2="45.607" y1="20" y2="39.672" gradientUnits="userSpaceOnUse"><stop stop-color="#7751B8"/><stop offset="1" stop-color="#5A409C"/></linearGradient><radialGradient id="b" cx="0" cy="0" r="1" gradientTransform="rotate(56.31 -6.951 30.895) scale(49.4762 42.8159)" gradientUnits="userSpaceOnUse"><stop offset=".177" stop-color="#fff"/><stop offset="1" stop-color="#B8B8B8"/></radialGradient></defs></svg>
