<svg xmlns="http://www.w3.org/2000/svg" width="64" height="64" fill="none"><path fill="url(#icon-6cedb955626e5c5b__a)" d="M6 13a7 7 0 0 1 7-7h38a7 7 0 0 1 7 7v38a7 7 0 0 1-7 7H13a7 7 0 0 1-7-7V13Z"/><path fill="url(#icon-99b92709b0ca55d4__b)" fill-opacity=".2" d="M6 13a7 7 0 0 1 7-7h38a7 7 0 0 1 7 7v38a7 7 0 0 1-7 7H13a7 7 0 0 1-7-7V13Z"/><path fill="url(#icon-75ea85df8ea10b5a__c)" fill-rule="evenodd" d="M51 7H13a6 6 0 0 0-6 6v38a6 6 0 0 0 6 6h38a6 6 0 0 0 6-6V13a6 6 0 0 0-6-6ZM13 6a7 7 0 0 0-7 7v38a7 7 0 0 0 7 7h38a7 7 0 0 0 7-7V13a7 7 0 0 0-7-7H13Z" clip-rule="evenodd"/><path fill="url(#icon-aacbdba038647823__d)" fill-rule="evenodd" d="M20 30.908a1 1 0 0 0 1.41.912l2.84-1.278v3.59l-3.66 1.648a1 1 0 0 0-.59.912v6.307a1 1 0 0 0 1.41.912l8-3.6a1 1 0 0 0 .59-.912v-2.604a5.034 5.034 0 0 1 1.21-.41c.783-.157 1.783-.157 2.79.404v2.61a1 1 0 0 0 .59.912l8 3.6a1 1 0 0 0 1.41-.912v-6.307a1 1 0 0 0-.59-.912l-3.66-1.647v-3.59l2.84 1.277a1 1 0 0 0 1.41-.912v-6.307a1 1 0 0 0-.59-.912l-8-3.6a1 1 0 0 0-1.41.912v2.38c-1.145-.431-2.239-.393-3.085-.224a6.56 6.56 0 0 0-.915.254V21a1 1 0 0 0-1.41-.912l-8 3.6a1 1 0 0 0-.59.912v6.307Zm14 4.231v-2.047a1 1 0 0 1 1.41-.912l2.84 1.278v-3.59l-3.66-1.648a1 1 0 0 1-.59-.912v-2.276c-1.007-.562-2.007-.561-2.79-.404a5.034 5.034 0 0 0-1.21.41v2.27a1 1 0 0 1-.59.912l-3.66 1.647v3.59l2.84-1.277a1 1 0 0 1 1.41.912v2.076c.259-.092.568-.184.915-.254.846-.169 1.94-.207 3.085.225Zm8.5-10.215v5.21l-7-3.15v-5.21l7 3.15Zm0 12.091v5.21l-7-3.15v-5.21l7 3.15Z" clip-rule="evenodd"/><defs><linearGradient id="icon-6cedb955626e5c5b__a" x1="20.444" x2="27.022" y1="6" y2="58.622" gradientUnits="userSpaceOnUse"><stop stop-color="#fff"/><stop offset="1" stop-color="#EBEBEB"/></linearGradient><linearGradient id="icon-75ea85df8ea10b5a__c" x1="22.792" x2="29.793" y1="6" y2="58.511" gradientUnits="userSpaceOnUse"><stop stop-color="#BBB"/><stop offset="1" stop-color="#888"/></linearGradient><linearGradient id="icon-aacbdba038647823__d" x1="20" x2="44" y1="20" y2="44" gradientUnits="userSpaceOnUse"><stop stop-color="#E03F8F"/><stop offset="1" stop-color="#BD1E7B"/></linearGradient><radialGradient id="icon-99b92709b0ca55d4__b" cx="0" cy="0" r="1" gradientTransform="matrix(27.4444 41.16672 -35.62501 23.74995 22.61 19.541)" gradientUnits="userSpaceOnUse"><stop offset=".177" stop-color="#fff"/><stop offset="1" stop-color="#B8B8B8"/></radialGradient></defs></svg>
