<svg xmlns="http://www.w3.org/2000/svg" width="64" height="64" fill="currentColor"><path fill="url(#icon-6b47a0e1e5834d03__icon-30ebc64fcf91a342__a)" d="M58 32c0 14.36-11.64 26-26 26S6 46.36 6 32 17.64 6 32 6s26 11.64 26 26Z"/><path fill="url(#icon-1bb7a001762a101c__icon-31b2832bf021ef1c__b)" fill-opacity=".2" d="M58 32c0 14.36-11.64 26-26 26S6 46.36 6 32 17.64 6 32 6s26 11.64 26 26Z"/><path fill="url(#icon-4d8e864fed608fc0__icon-95b3d78f891c70dc__c)" fill-rule="evenodd" d="M32 57c13.807 0 25-11.193 25-25S45.807 7 32 7 7 18.193 7 32s11.193 25 25 25Zm0 1c14.36 0 26-11.64 26-26S46.36 6 32 6 6 17.64 6 32s11.64 26 26 26Z" clip-rule="evenodd"/><path fill="url(#icon-aba20a752a94500c__icon-1a35d066c8d5d1a9__d)" fill-rule="evenodd" d="M37.057 20.976a.75.75 0 0 0-1.398-.545l-8.807 22.594a.75.75 0 1 0 1.398.545l8.807-22.595ZM23.53 25.22a.75.75 0 0 1 0 1.06L17.81 32l5.72 5.72a.75.75 0 1 1-1.06 1.06l-6.25-6.25a.75.75 0 0 1 0-1.06l6.25-6.25a.75.75 0 0 1 1.06 0Zm16.94 13.56a.75.75 0 0 1 0-1.06L46.19 32l-5.72-5.72a.75.75 0 1 1 1.06-1.06l6.25 6.25a.75.75 0 0 1 0 1.06l-6.25 6.25a.75.75 0 0 1-1.06 0Z" clip-rule="evenodd"/><defs><linearGradient id="icon-6b47a0e1e5834d03__icon-30ebc64fcf91a342__a" x1="20.444" x2="27.022" y1="6" y2="58.622" gradientUnits="userSpaceOnUse"><stop stop-color="#fff"/><stop offset="1" stop-color="#EBEBEB"/></linearGradient><linearGradient id="icon-4d8e864fed608fc0__icon-95b3d78f891c70dc__c" x1="22.792" x2="29.793" y1="6" y2="58.511" gradientUnits="userSpaceOnUse"><stop stop-color="#BBB"/><stop offset="1" stop-color="#888"/></linearGradient><linearGradient id="icon-aba20a752a94500c__icon-1a35d066c8d5d1a9__d" x1="16" x2="39.156" y1="19.953" y2="50.706" gradientUnits="userSpaceOnUse"><stop stop-color="#4BA446"/><stop offset="1" stop-color="#3F7D35"/></linearGradient><radialGradient id="icon-1bb7a001762a101c__icon-31b2832bf021ef1c__b" cx="0" cy="0" r="1" gradientTransform="rotate(56.31 -6.951 30.895) scale(49.4762 42.8159)" gradientUnits="userSpaceOnUse"><stop offset=".177" stop-color="#fff"/><stop offset="1" stop-color="#B8B8B8"/></radialGradient></defs></svg>
