<svg xmlns="http://www.w3.org/2000/svg" width="64" height="64" fill="currentColor"><path fill="url(#icon-e53979a80642e4de__icon-4e9ef6242a017668__a)" d="M10 11a7 7 0 0 1 7-7h30a7 7 0 0 1 7 7v42a7 7 0 0 1-7 7H17a7 7 0 0 1-7-7V11Z"/><path fill="url(#icon-14d89fd26eeb2d3d__icon-1e43146e34d5ba58__b)" fill-opacity=".2" d="M10 11a7 7 0 0 1 7-7h30a7 7 0 0 1 7 7v42a7 7 0 0 1-7 7H17a7 7 0 0 1-7-7V11Z"/><path fill="url(#icon-170f11aa104b2645__icon-322986ab14d0dc92__c)" fill-rule="evenodd" d="M47 5H17a6 6 0 0 0-6 6v42a6 6 0 0 0 6 6h30a6 6 0 0 0 6-6V11a6 6 0 0 0-6-6ZM17 4a7 7 0 0 0-7 7v42a7 7 0 0 0 7 7h30a7 7 0 0 0 7-7V11a7 7 0 0 0-7-7H17Z" clip-rule="evenodd"/><path fill="url(#icon-b26d19617cddf2b8__icon-bdda03453b7bb000__d)" d="M38.5 18H35a9 9 0 0 0-9 8.997V29a4 4 0 0 1-4 4h-3.5a.5.5 0 1 1 0-1H22a3 3 0 0 0 3-3v-2c0-5.523 4.477-10 10-10h3.5a.5.5 0 0 1 0 1Z"/><path fill="url(#icon-49f34001c7dee14b__icon-cc34099c11a63e16__e)" d="M35 22a6 6 0 0 0-6 6v3a5 5 0 0 1-5 5h-5.5a.5.5 0 0 0 0 1H24a6 6 0 0 0 6-6v-3a5 5 0 0 1 5-5h6.5a.5.5 0 1 0 0-1H35Z"/><path fill="url(#icon-1422eeacf3ee89cf__icon-d09452026badbf6e__f)" d="M26.072 40H22.5a.5.5 0 1 0 0 1h3.572c.72 0 1.419-.096 2.082-.276-.058-.33-.1-.665-.125-1.004a6.93 6.93 0 0 1-1.957.28Z"/><path fill="url(#icon-f3d11a61fefa2562__icon-03a6c8d0acd6e856__g)" d="M34.122 29.726c-.385.164-.757.35-1.115.558A3.5 3.5 0 0 1 36.5 27h5a.5.5 0 0 1 0 1h-5c-1.11 0-2.052.724-2.378 1.726Z"/><path fill="url(#icon-e337bafdad312335__icon-20819b882d1057f3__h)" fill-rule="evenodd" d="M33.068 33.529a3.09 3.09 0 0 1-2.226 3.856l-.903.223a8.845 8.845 0 0 0 .01 2.792l.833.2a3.09 3.09 0 0 1 2.24 3.878l-.288.975a8.156 8.156 0 0 0 2.293 1.424l.762-.802a3.09 3.09 0 0 1 4.478.001l.77.81c.84-.34 1.613-.819 2.291-1.41l-.306-1.059a3.09 3.09 0 0 1 2.226-3.856l.902-.223a8.857 8.857 0 0 0-.01-2.792l-.832-.2a3.09 3.09 0 0 1-2.24-3.878l.288-.975a8.155 8.155 0 0 0-2.293-1.423l-.762.8a3.09 3.09 0 0 1-4.478 0l-.77-.81a8.15 8.15 0 0 0-2.291 1.409l.306 1.06Zm4.977 7.761c1.236 0 2.239-1.037 2.239-2.317 0-1.28-1.002-2.317-2.24-2.317-1.236 0-2.239 1.037-2.239 2.317 0 1.28 1.003 2.317 2.24 2.317Z" clip-rule="evenodd"/><defs><linearGradient id="icon-e53979a80642e4de__icon-4e9ef6242a017668__a" x1="22.222" x2="31.153" y1="4" y2="60.135" gradientUnits="userSpaceOnUse"><stop stop-color="#fff"/><stop offset="1" stop-color="#EBEBEB"/></linearGradient><linearGradient id="icon-170f11aa104b2645__icon-322986ab14d0dc92__c" x1="24.208" x2="33.702" y1="4" y2="59.944" gradientUnits="userSpaceOnUse"><stop stop-color="#BBB"/><stop offset="1" stop-color="#888"/></linearGradient><linearGradient id="icon-b26d19617cddf2b8__icon-bdda03453b7bb000__d" x1="18" x2="47.84" y1="17" y2="45.211" gradientUnits="userSpaceOnUse"><stop stop-color="#E03F8F"/><stop offset="1" stop-color="#BD1E7B"/></linearGradient><linearGradient id="icon-49f34001c7dee14b__icon-cc34099c11a63e16__e" x1="18" x2="47.84" y1="17" y2="45.211" gradientUnits="userSpaceOnUse"><stop stop-color="#E03F8F"/><stop offset="1" stop-color="#BD1E7B"/></linearGradient><linearGradient id="icon-1422eeacf3ee89cf__icon-d09452026badbf6e__f" x1="18" x2="47.84" y1="17" y2="45.211" gradientUnits="userSpaceOnUse"><stop stop-color="#E03F8F"/><stop offset="1" stop-color="#BD1E7B"/></linearGradient><linearGradient id="icon-f3d11a61fefa2562__icon-03a6c8d0acd6e856__g" x1="18" x2="47.84" y1="17" y2="45.211" gradientUnits="userSpaceOnUse"><stop stop-color="#E03F8F"/><stop offset="1" stop-color="#BD1E7B"/></linearGradient><linearGradient id="icon-e337bafdad312335__icon-20819b882d1057f3__h" x1="18" x2="47.84" y1="17" y2="45.211" gradientUnits="userSpaceOnUse"><stop stop-color="#E03F8F"/><stop offset="1" stop-color="#BD1E7B"/></linearGradient><radialGradient id="icon-14d89fd26eeb2d3d__icon-1e43146e34d5ba58__b" cx="0" cy="0" r="1" gradientTransform="matrix(23.22222 44.33329 -34.16705 17.89704 24.056 18.583)" gradientUnits="userSpaceOnUse"><stop offset=".177" stop-color="#fff"/><stop offset="1" stop-color="#B8B8B8"/></radialGradient></defs></svg>
