<svg xmlns="http://www.w3.org/2000/svg" width="64" height="64" fill="currentColor"><path fill="url(#if8d178-a)" d="M10 11a7 7 0 0 1 7-7h30a7 7 0 0 1 7 7v42a7 7 0 0 1-7 7H17a7 7 0 0 1-7-7z"/><path fill="url(#if8d178-b)" fill-opacity=".2" d="M10 11a7 7 0 0 1 7-7h30a7 7 0 0 1 7 7v42a7 7 0 0 1-7 7H17a7 7 0 0 1-7-7z"/><path fill="url(#if8d178-c)" fill-rule="evenodd" d="M47 5H17a6 6 0 0 0-6 6v42a6 6 0 0 0 6 6h30a6 6 0 0 0 6-6V11a6 6 0 0 0-6-6M17 4a7 7 0 0 0-7 7v42a7 7 0 0 0 7 7h30a7 7 0 0 0 7-7V11a7 7 0 0 0-7-7z" clip-rule="evenodd"/><path fill="url(#if8d178-d)" d="M38.5 18H35a9 9 0 0 0-9 8.997V29a4 4 0 0 1-4 4h-3.5a.5.5 0 1 1 0-1H22a3 3 0 0 0 3-3v-2c0-5.523 4.477-10 10-10h3.5a.5.5 0 0 1 0 1"/><path fill="url(#if8d178-e)" d="M35 22a6 6 0 0 0-6 6v3a5 5 0 0 1-5 5h-5.5a.5.5 0 0 0 0 1H24a6 6 0 0 0 6-6v-3a5 5 0 0 1 5-5h6.5a.5.5 0 1 0 0-1z"/><path fill="url(#if8d178-f)" d="M26.072 40H22.5a.5.5 0 1 0 0 1h3.572c.72 0 1.419-.096 2.082-.276q-.087-.495-.125-1.004a7 7 0 0 1-1.957.28"/><path fill="url(#if8d178-g)" d="M34.122 29.726q-.578.246-1.115.558A3.5 3.5 0 0 1 36.5 27h5a.5.5 0 0 1 0 1h-5c-1.11 0-2.052.724-2.378 1.726"/><path fill="url(#if8d178-h)" fill-rule="evenodd" d="M33.068 33.529a3.09 3.09 0 0 1-2.226 3.856l-.903.223a8.9 8.9 0 0 0 .01 2.792l.833.2a3.09 3.09 0 0 1 2.24 3.878l-.288.975a8.2 8.2 0 0 0 2.293 1.424l.762-.802a3.09 3.09 0 0 1 4.478.001l.77.81a8.1 8.1 0 0 0 2.291-1.41l-.306-1.059a3.09 3.09 0 0 1 2.226-3.856l.902-.223a8.9 8.9 0 0 0-.01-2.792l-.832-.2a3.09 3.09 0 0 1-2.24-3.878l.288-.975a8.2 8.2 0 0 0-2.293-1.423l-.762.8a3.09 3.09 0 0 1-4.478 0l-.77-.81a8.2 8.2 0 0 0-2.291 1.409zm4.977 7.761c1.236 0 2.239-1.037 2.239-2.317s-1.002-2.317-2.24-2.317c-1.236 0-2.239 1.037-2.239 2.317s1.003 2.317 2.24 2.317" clip-rule="evenodd"/><defs><linearGradient id="if8d178-a" x1="22.222" x2="31.153" y1="4" y2="60.135" gradientUnits="userSpaceOnUse"><stop stop-color="#fff"/><stop offset="1" stop-color="#EBEBEB"/></linearGradient><linearGradient id="if8d178-c" x1="24.208" x2="33.702" y1="4" y2="59.944" gradientUnits="userSpaceOnUse"><stop stop-color="#BBB"/><stop offset="1" stop-color="#888"/></linearGradient><linearGradient id="if8d178-d" x1="18" x2="47.84" y1="17" y2="45.211" gradientUnits="userSpaceOnUse"><stop stop-color="#E03F8F"/><stop offset="1" stop-color="#BD1E7B"/></linearGradient><linearGradient id="if8d178-e" x1="18" x2="47.84" y1="17" y2="45.211" gradientUnits="userSpaceOnUse"><stop stop-color="#E03F8F"/><stop offset="1" stop-color="#BD1E7B"/></linearGradient><linearGradient id="if8d178-f" x1="18" x2="47.84" y1="17" y2="45.211" gradientUnits="userSpaceOnUse"><stop stop-color="#E03F8F"/><stop offset="1" stop-color="#BD1E7B"/></linearGradient><linearGradient id="if8d178-g" x1="18" x2="47.84" y1="17" y2="45.211" gradientUnits="userSpaceOnUse"><stop stop-color="#E03F8F"/><stop offset="1" stop-color="#BD1E7B"/></linearGradient><linearGradient id="if8d178-h" x1="18" x2="47.84" y1="17" y2="45.211" gradientUnits="userSpaceOnUse"><stop stop-color="#E03F8F"/><stop offset="1" stop-color="#BD1E7B"/></linearGradient><radialGradient id="if8d178-b" cx="0" cy="0" r="1" gradientTransform="matrix(23.22222 44.33329 -34.16705 17.89704 24.056 18.583)" gradientUnits="userSpaceOnUse"><stop offset=".177" stop-color="#fff"/><stop offset="1" stop-color="#B8B8B8"/></radialGradient></defs></svg>
