<svg xmlns="http://www.w3.org/2000/svg" width="64" height="64" fill="currentColor"><path fill="url(#icon-2d7aeae43a66a829__icon-83b93d2ccce79b40__a)" d="M6 13a7 7 0 0 1 7-7h38a7 7 0 0 1 7 7v38a7 7 0 0 1-7 7H13a7 7 0 0 1-7-7V13Z"/><path fill="url(#icon-de1af21d8e6d0d0d__icon-b3e0bbfe132b6431__b)" fill-opacity=".2" d="M6 13a7 7 0 0 1 7-7h38a7 7 0 0 1 7 7v38a7 7 0 0 1-7 7H13a7 7 0 0 1-7-7V13Z"/><path fill="url(#icon-ff5c51d605bf581d__icon-1f98dfdab206da8b__c)" fill-rule="evenodd" d="M51 7H13a6 6 0 0 0-6 6v38a6 6 0 0 0 6 6h38a6 6 0 0 0 6-6V13a6 6 0 0 0-6-6ZM13 6a7 7 0 0 0-7 7v38a7 7 0 0 0 7 7h38a7 7 0 0 0 7-7V13a7 7 0 0 0-7-7H13Z" clip-rule="evenodd"/><path fill="url(#icon-4a56dc38486db824__icon-1553e1307bcbc5e4__d)" fill-rule="evenodd" d="M27 20a.5.5 0 0 0 0 1h1v8.53a3.5 3.5 0 0 1-.503 1.807l-4.89 8.114C21.4 41.451 22.84 44 25.176 44h13.648c2.335 0 3.775-2.55 2.57-4.549l-4.892-8.114A3.5 3.5 0 0 1 36 29.531V21h1a.5.5 0 1 0 0-1H27Zm-3.537 19.968L25.855 36h12.29l2.392 3.968C41.34 41.3 40.38 43 38.824 43H25.176c-1.556 0-2.516-1.7-1.713-3.032Z" clip-rule="evenodd"/><defs><linearGradient id="icon-2d7aeae43a66a829__icon-83b93d2ccce79b40__a" x1="20.444" x2="27.022" y1="6" y2="58.622" gradientUnits="userSpaceOnUse"><stop stop-color="#fff"/><stop offset="1" stop-color="#EBEBEB"/></linearGradient><linearGradient id="icon-ff5c51d605bf581d__icon-1f98dfdab206da8b__c" x1="22.792" x2="29.793" y1="6" y2="58.511" gradientUnits="userSpaceOnUse"><stop stop-color="#BBB"/><stop offset="1" stop-color="#888"/></linearGradient><linearGradient id="icon-4a56dc38486db824__icon-1553e1307bcbc5e4__d" x1="22.171" x2="45.701" y1="20" y2="39.272" gradientUnits="userSpaceOnUse"><stop stop-color="#4BA446"/><stop offset="1" stop-color="#3F7D35"/></linearGradient><radialGradient id="icon-de1af21d8e6d0d0d__icon-b3e0bbfe132b6431__b" cx="0" cy="0" r="1" gradientTransform="rotate(56.31 -6.951 30.895) scale(49.4762 42.8159)" gradientUnits="userSpaceOnUse"><stop offset=".177" stop-color="#fff"/><stop offset="1" stop-color="#B8B8B8"/></radialGradient></defs></svg>
