<svg xmlns="http://www.w3.org/2000/svg" width="64" height="64" fill="currentColor"><path fill="url(#i5a8975-a)" d="M6 13a7 7 0 0 1 7-7h38a7 7 0 0 1 7 7v38a7 7 0 0 1-7 7H13a7 7 0 0 1-7-7z"/><path fill="url(#i5a8975-b)" fill-opacity=".2" d="M6 13a7 7 0 0 1 7-7h38a7 7 0 0 1 7 7v38a7 7 0 0 1-7 7H13a7 7 0 0 1-7-7z"/><path fill="url(#i5a8975-c)" fill-rule="evenodd" d="M51 7H13a6 6 0 0 0-6 6v38a6 6 0 0 0 6 6h38a6 6 0 0 0 6-6V13a6 6 0 0 0-6-6M13 6a7 7 0 0 0-7 7v38a7 7 0 0 0 7 7h38a7 7 0 0 0 7-7V13a7 7 0 0 0-7-7z" clip-rule="evenodd"/><path fill="url(#i5a8975-d)" fill-rule="evenodd" d="M34 32v7a6 6 0 0 0 12 0v-.597L42.923 22.64A4.505 4.505 0 0 0 38.502 19 4.5 4.5 0 0 0 34 23.5V26h-4v-2.5c0-2.463-1.995-4.5-4.476-4.5a4.476 4.476 0 0 0-4.39 3.605L18 38.402V39a6 6 0 0 0 12 0v-7zM24 43.5a4.5 4.5 0 1 0 0-9 4.5 4.5 0 0 0 0 9M44.5 39a4.5 4.5 0 1 1-9 0 4.5 4.5 0 0 1 9 0" clip-rule="evenodd"/><defs><linearGradient id="i5a8975-a" x1="20.444" x2="27.022" y1="6" y2="58.622" gradientUnits="userSpaceOnUse"><stop stop-color="#fff"/><stop offset="1" stop-color="#EBEBEB"/></linearGradient><linearGradient id="i5a8975-c" x1="22.792" x2="29.793" y1="6" y2="58.511" gradientUnits="userSpaceOnUse"><stop stop-color="#BBB"/><stop offset="1" stop-color="#888"/></linearGradient><linearGradient id="i5a8975-d" x1="18" x2="43.929" y1="19" y2="46.923" gradientUnits="userSpaceOnUse"><stop stop-color="#C28400"/><stop offset="1" stop-color="#A86500"/></linearGradient><radialGradient id="i5a8975-b" cx="0" cy="0" r="1" gradientTransform="matrix(27.4444 41.16672 -35.62501 23.74995 22.61 19.541)" gradientUnits="userSpaceOnUse"><stop offset=".177" stop-color="#fff"/><stop offset="1" stop-color="#B8B8B8"/></radialGradient></defs></svg>
