<svg xmlns="http://www.w3.org/2000/svg" width="64" height="64" fill="currentColor"><path fill="url(#i0a15fa-a)" d="M6 13a7 7 0 0 1 7-7h38a7 7 0 0 1 7 7v38a7 7 0 0 1-7 7H13a7 7 0 0 1-7-7z"/><path fill="url(#i0a15fa-b)" fill-opacity=".2" d="M6 13a7 7 0 0 1 7-7h38a7 7 0 0 1 7 7v38a7 7 0 0 1-7 7H13a7 7 0 0 1-7-7z"/><path fill="url(#i0a15fa-c)" fill-rule="evenodd" d="M51 7H13a6 6 0 0 0-6 6v38a6 6 0 0 0 6 6h38a6 6 0 0 0 6-6V13a6 6 0 0 0-6-6M13 6a7 7 0 0 0-7 7v38a7 7 0 0 0 7 7h38a7 7 0 0 0 7-7V13a7 7 0 0 0-7-7z" clip-rule="evenodd"/><path fill="url(#i0a15fa-d)" d="M26.75 27.93A4.001 4.001 0 0 0 26 20a4 4 0 0 0-.75 7.93v8.14A4.001 4.001 0 0 0 26 44a4 4 0 0 0 .75-7.93v-3.274H34a4.75 4.75 0 0 0 4.75-4.75v-.116a4.001 4.001 0 1 0-1.5 0v.116a3.25 3.25 0 0 1-3.25 3.25h-7.25z"/><path fill="#F5F5F5" d="M40 54.5a7.5 7.5 0 0 1 7.5-7.5h9a7.5 7.5 0 0 1 0 15h-9a7.5 7.5 0 0 1-7.5-7.5"/><path fill="url(#i0a15fa-e)" d="M41 54.5a6.5 6.5 0 0 1 6.5-6.5h1a.5.5 0 0 1 0 1h-1a5.5 5.5 0 1 0 0 11h1a.5.5 0 0 1 0 1h-1a6.5 6.5 0 0 1-6.5-6.5"/><path fill="url(#i0a15fa-f)" d="M63 54.5a6.5 6.5 0 0 1-6.5 6.5h-1a.5.5 0 0 1 0-1h1a5.5 5.5 0 1 0 0-11h-1a.5.5 0 0 1 0-1h1a6.5 6.5 0 0 1 6.5 6.5"/><path fill="url(#i0a15fa-g)" d="M47.5 53.979a.5.5 0 0 0 0 1h9.594a.5.5 0 0 0 0-1z"/><defs><linearGradient id="i0a15fa-a" x1="20.444" x2="27.022" y1="6" y2="58.622" gradientUnits="userSpaceOnUse"><stop stop-color="#fff"/><stop offset="1" stop-color="#EBEBEB"/></linearGradient><linearGradient id="i0a15fa-c" x1="22.792" x2="29.793" y1="6" y2="58.511" gradientUnits="userSpaceOnUse"><stop stop-color="#BBB"/><stop offset="1" stop-color="#888"/></linearGradient><linearGradient id="i0a15fa-d" x1="22" x2="45.607" y1="20" y2="39.672" gradientUnits="userSpaceOnUse"><stop stop-color="#7751B8"/><stop offset="1" stop-color="#5A409C"/></linearGradient><linearGradient id="i0a15fa-e" x1="41" x2="52.387" y1="48" y2="67.271" gradientUnits="userSpaceOnUse"><stop stop-color="#7751B8"/><stop offset="1" stop-color="#5A409C"/></linearGradient><linearGradient id="i0a15fa-f" x1="41" x2="52.387" y1="48" y2="67.271" gradientUnits="userSpaceOnUse"><stop stop-color="#7751B8"/><stop offset="1" stop-color="#5A409C"/></linearGradient><linearGradient id="i0a15fa-g" x1="41" x2="52.387" y1="48" y2="67.271" gradientUnits="userSpaceOnUse"><stop stop-color="#7751B8"/><stop offset="1" stop-color="#5A409C"/></linearGradient><radialGradient id="i0a15fa-b" cx="0" cy="0" r="1" gradientTransform="matrix(27.4444 41.16672 -35.62501 23.74995 22.61 19.541)" gradientUnits="userSpaceOnUse"><stop offset=".177" stop-color="#fff"/><stop offset="1" stop-color="#B8B8B8"/></radialGradient></defs></svg>
