<svg xmlns="http://www.w3.org/2000/svg" width="64" height="64" fill="currentColor"><path fill="url(#a)" d="M6 13a7 7 0 0 1 7-7h38a7 7 0 0 1 7 7v38a7 7 0 0 1-7 7H13a7 7 0 0 1-7-7V13Z"/><path fill="url(#b)" fill-opacity=".2" d="M6 13a7 7 0 0 1 7-7h38a7 7 0 0 1 7 7v38a7 7 0 0 1-7 7H13a7 7 0 0 1-7-7V13Z"/><path fill="url(#c)" fill-rule="evenodd" d="M51 7H13a6 6 0 0 0-6 6v38a6 6 0 0 0 6 6h38a6 6 0 0 0 6-6V13a6 6 0 0 0-6-6ZM13 6a7 7 0 0 0-7 7v38a7 7 0 0 0 7 7h38a7 7 0 0 0 7-7V13a7 7 0 0 0-7-7H13Z" clip-rule="evenodd"/><path fill="url(#d)" d="M18 28a3 3 0 1 0 0-6 3 3 0 0 0 0 6Z"/><path fill="url(#e)" d="M32 28a3 3 0 1 0 0-6 3 3 0 0 0 0 6Z"/><path fill="url(#f)" d="M34.873 39a3 3 0 1 1-6 0 3 3 0 0 1 6 0Z"/><path fill="url(#g)" d="M18 42a3 3 0 1 0 0-6 3 3 0 0 0 0 6Z"/><path fill="url(#h)" d="M49 25a3 3 0 1 1-6 0 3 3 0 0 1 6 0Z"/><path fill="#F5F5F5" d="M40 54.5a7.5 7.5 0 0 1 7.5-7.5h9a7.5 7.5 0 0 1 0 15h-9a7.5 7.5 0 0 1-7.5-7.5Z"/><path fill="url(#i)" d="M41 54.5a6.5 6.5 0 0 1 6.5-6.5h1a.5.5 0 0 1 0 1h-1a5.5 5.5 0 1 0 0 11h1a.5.5 0 0 1 0 1h-1a6.5 6.5 0 0 1-6.5-6.5Z"/><path fill="url(#j)" d="M63 54.5a6.5 6.5 0 0 1-6.5 6.5h-1a.5.5 0 0 1 0-1h1a5.5 5.5 0 1 0 0-11h-1a.5.5 0 0 1 0-1h1a6.5 6.5 0 0 1 6.5 6.5Z"/><path fill="url(#k)" d="M47.5 53.979a.5.5 0 0 0 0 1h9.594a.5.5 0 0 0 0-1H47.5Z"/><defs><linearGradient id="a" x1="20.444" x2="27.022" y1="6" y2="58.622" gradientUnits="userSpaceOnUse"><stop stop-color="#fff"/><stop offset="1" stop-color="#EBEBEB"/></linearGradient><linearGradient id="c" x1="22.792" x2="29.793" y1="6" y2="58.511" gradientUnits="userSpaceOnUse"><stop stop-color="#BBB"/><stop offset="1" stop-color="#888"/></linearGradient><linearGradient id="d" x1="15" x2="32.481" y1="22" y2="51.717" gradientUnits="userSpaceOnUse"><stop stop-color="#7751B8"/><stop offset="1" stop-color="#5A409C"/></linearGradient><linearGradient id="e" x1="15" x2="32.481" y1="22" y2="51.717" gradientUnits="userSpaceOnUse"><stop stop-color="#7751B8"/><stop offset="1" stop-color="#5A409C"/></linearGradient><linearGradient id="f" x1="15" x2="32.481" y1="22" y2="51.717" gradientUnits="userSpaceOnUse"><stop stop-color="#7751B8"/><stop offset="1" stop-color="#5A409C"/></linearGradient><linearGradient id="g" x1="15" x2="32.481" y1="22" y2="51.717" gradientUnits="userSpaceOnUse"><stop stop-color="#7751B8"/><stop offset="1" stop-color="#5A409C"/></linearGradient><linearGradient id="h" x1="15" x2="32.481" y1="22" y2="51.717" gradientUnits="userSpaceOnUse"><stop stop-color="#7751B8"/><stop offset="1" stop-color="#5A409C"/></linearGradient><linearGradient id="i" x1="41" x2="52.387" y1="48" y2="67.271" gradientUnits="userSpaceOnUse"><stop stop-color="#7751B8"/><stop offset="1" stop-color="#5A409C"/></linearGradient><linearGradient id="j" x1="41" x2="52.387" y1="48" y2="67.271" gradientUnits="userSpaceOnUse"><stop stop-color="#7751B8"/><stop offset="1" stop-color="#5A409C"/></linearGradient><linearGradient id="k" x1="41" x2="52.387" y1="48" y2="67.271" gradientUnits="userSpaceOnUse"><stop stop-color="#7751B8"/><stop offset="1" stop-color="#5A409C"/></linearGradient><radialGradient id="b" cx="0" cy="0" r="1" gradientTransform="rotate(56.31 -6.951 30.895) scale(49.4762 42.8159)" gradientUnits="userSpaceOnUse"><stop offset=".177" stop-color="#fff"/><stop offset="1" stop-color="#B8B8B8"/></radialGradient></defs></svg>
