<svg xmlns="http://www.w3.org/2000/svg" width="64" height="64" fill="currentColor"><path fill="url(#icon-de17c9b7cd80226e__icon-98f73796ac224839__a)" d="M4 17a7 7 0 0 1 7-7h42a7 7 0 0 1 7 7v30a7 7 0 0 1-7 7H11a7 7 0 0 1-7-7V17Z"/><path fill="url(#icon-3cb815b5fb182361__icon-560b9bd751663bb4__b)" fill-opacity=".2" d="M4 17a7 7 0 0 1 7-7h42a7 7 0 0 1 7 7v30a7 7 0 0 1-7 7H11a7 7 0 0 1-7-7V17Z"/><path fill="url(#icon-3502398fb473df9e__icon-54d73c27df11d654__c)" fill-rule="evenodd" d="M53 11H11a6 6 0 0 0-6 6v30a6 6 0 0 0 6 6h42a6 6 0 0 0 6-6V17a6 6 0 0 0-6-6Zm-42-1a7 7 0 0 0-7 7v30a7 7 0 0 0 7 7h42a7 7 0 0 0 7-7V17a7 7 0 0 0-7-7H11Z" clip-rule="evenodd"/><path fill="url(#icon-27bc970599b4cb04__icon-a846c23f12b85ca0__d)" d="M32 36.966a1.5 1.5 0 1 0 0-3 1.5 1.5 0 0 0 0 3Z"/><path fill="url(#icon-db2a5e5b63d07862__icon-b982fa75e453e3b0__e)" d="M27.5 35.466a1.5 1.5 0 1 1-3 0 1.5 1.5 0 0 1 3 0Z"/><path fill="url(#icon-d2a97a0e54364bb4__icon-c5c3875fb11de2a5__f)" d="M38 36.966a1.5 1.5 0 1 0 0-3 1.5 1.5 0 0 0 0 3Z"/><path fill="url(#icon-52015f1df1199bf9__icon-a8102dc7190b4a86__g)" fill-rule="evenodd" d="M23.573 22.45c-.335 0-.654.141-.88.388l-4.377 4.774c-.702.766-.159 2 .88 2H21v10.032c0 1.319 1.094 2.387 2.444 2.387h17.112c1.35 0 2.444-1.068 2.444-2.387V29.613h1.804c1.039 0 1.582-1.235.88-2l-4.377-4.775a1.193 1.193 0 0 0-.88-.387H23.573ZM22 29.614h20v10.031c0 .744-.624 1.387-1.444 1.387H23.444c-.82 0-1.444-.643-1.444-1.387V29.613Z" clip-rule="evenodd"/><path fill="#F5F5F5" d="M40 52.5a7.5 7.5 0 0 1 7.5-7.5h9a7.5 7.5 0 0 1 0 15h-9a7.5 7.5 0 0 1-7.5-7.5Z"/><path fill="url(#icon-1c57c078e68c0c53__icon-79caa32292ebcec9__h)" d="M41 52.5a6.5 6.5 0 0 1 6.5-6.5h1a.5.5 0 0 1 0 1h-1a5.5 5.5 0 1 0 0 11h1a.5.5 0 0 1 0 1h-1a6.5 6.5 0 0 1-6.5-6.5Z"/><path fill="url(#icon-be0189f5f98a4c63__icon-c2bad1d15034f5b2__i)" d="M63 52.5a6.5 6.5 0 0 1-6.5 6.5h-1a.5.5 0 0 1 0-1h1a5.5 5.5 0 1 0 0-11h-1a.5.5 0 0 1 0-1h1a6.5 6.5 0 0 1 6.5 6.5Z"/><path fill="url(#icon-494d43cee739a29d__icon-e3676d25169501dc__j)" d="M47.5 51.979a.5.5 0 0 0 0 1h9.594a.5.5 0 0 0 0-1H47.5Z"/><defs><linearGradient id="icon-de17c9b7cd80226e__icon-98f73796ac224839__a" x1="19.556" x2="23.955" y1="10" y2="54.79" gradientUnits="userSpaceOnUse"><stop stop-color="#fff"/><stop offset="1" stop-color="#EBEBEB"/></linearGradient><linearGradient id="icon-3502398fb473df9e__icon-54d73c27df11d654__c" x1="22.083" x2="26.77" y1="10" y2="54.731" gradientUnits="userSpaceOnUse"><stop stop-color="#BBB"/><stop offset="1" stop-color="#888"/></linearGradient><linearGradient id="icon-27bc970599b4cb04__icon-a846c23f12b85ca0__d" x1="18" x2="36.392" y1="22.451" y2="48.751" gradientUnits="userSpaceOnUse"><stop stop-color="#7751B8"/><stop offset="1" stop-color="#5A409C"/></linearGradient><linearGradient id="icon-db2a5e5b63d07862__icon-b982fa75e453e3b0__e" x1="18" x2="36.392" y1="22.451" y2="48.751" gradientUnits="userSpaceOnUse"><stop stop-color="#7751B8"/><stop offset="1" stop-color="#5A409C"/></linearGradient><linearGradient id="icon-d2a97a0e54364bb4__icon-c5c3875fb11de2a5__f" x1="18" x2="36.392" y1="22.451" y2="48.751" gradientUnits="userSpaceOnUse"><stop stop-color="#7751B8"/><stop offset="1" stop-color="#5A409C"/></linearGradient><linearGradient id="icon-52015f1df1199bf9__icon-a8102dc7190b4a86__g" x1="18" x2="36.392" y1="22.451" y2="48.751" gradientUnits="userSpaceOnUse"><stop stop-color="#7751B8"/><stop offset="1" stop-color="#5A409C"/></linearGradient><linearGradient id="icon-1c57c078e68c0c53__icon-79caa32292ebcec9__h" x1="41" x2="52.387" y1="46" y2="65.271" gradientUnits="userSpaceOnUse"><stop stop-color="#7751B8"/><stop offset="1" stop-color="#5A409C"/></linearGradient><linearGradient id="icon-be0189f5f98a4c63__icon-c2bad1d15034f5b2__i" x1="41" x2="52.387" y1="46" y2="65.271" gradientUnits="userSpaceOnUse"><stop stop-color="#7751B8"/><stop offset="1" stop-color="#5A409C"/></linearGradient><linearGradient id="icon-494d43cee739a29d__icon-e3676d25169501dc__j" x1="41" x2="52.387" y1="46" y2="65.271" gradientUnits="userSpaceOnUse"><stop stop-color="#7751B8"/><stop offset="1" stop-color="#5A409C"/></linearGradient><radialGradient id="icon-3cb815b5fb182361__icon-560b9bd751663bb4__b" cx="0" cy="0" r="1" gradientTransform="matrix(29.55555 34.83332 -32.22036 27.33848 21.889 21.458)" gradientUnits="userSpaceOnUse"><stop offset=".177" stop-color="#fff"/><stop offset="1" stop-color="#B8B8B8"/></radialGradient></defs></svg>
