<svg xmlns="http://www.w3.org/2000/svg" width="64" height="64" fill="currentColor"><path fill="#FFB900" d="m29.333 16-2.437-2.437c-1-1-2.357-1.563-3.772-1.563H7.334A3.333 3.333 0 0 0 4 15.333v33.334A3.333 3.333 0 0 0 7.333 52h49.334A3.333 3.333 0 0 0 60 48.667V19.333A3.333 3.333 0 0 0 56.667 16H29.333Z"/><path fill="#FFD75E" d="M29.333 16 26.7 18.633A4.666 4.666 0 0 1 23.4 20H4v28.667A3.333 3.333 0 0 0 7.333 52h49.334A3.333 3.333 0 0 0 60 48.667V19.333A3.333 3.333 0 0 0 56.667 16H29.333Z"/><path fill="url(#icon-6d0353097abe3acf__icon-6cd126f657ddb6b1__a)" d="m29.333 16-2.437 2.437c-1 1-2.357 1.563-3.772 1.563H4v28.667A3.333 3.333 0 0 0 7.333 52h49.334A3.333 3.333 0 0 0 60 48.667V19.333A3.333 3.333 0 0 0 56.667 16H29.333Z"/><path fill="#BF5712" d="M4 47.666v1A3.333 3.333 0 0 0 7.333 52h49.334A3.333 3.333 0 0 0 60 48.666v-1A3.333 3.333 0 0 1 56.667 51H7.333A3.333 3.333 0 0 1 4 47.666Z"/><path fill="#fff" fill-opacity=".4" fill-rule="evenodd" d="m30.752 16-3.441 3.419A5.496 5.496 0 0 1 23.453 21H4v-1h19.453a4.495 4.495 0 0 0 3.156-1.294L29.34 16h1.41Z" clip-rule="evenodd"/><defs><linearGradient id="icon-6d0353097abe3acf__icon-6cd126f657ddb6b1__a" x1="4" x2="4" y1="16" y2="52" gradientUnits="userSpaceOnUse"><stop stop-color="#fff" stop-opacity=".01"/><stop offset=".999" stop-color="#FFD75E" stop-opacity=".3"/></linearGradient></defs></svg>