<svg xmlns="http://www.w3.org/2000/svg" width="64" height="64" fill="none"><path fill="url(#i59d8d2-i2cf0f8-paint0_linear_62220_694)" d="M6 13a7 7 0 0 1 7-7h38a7 7 0 0 1 7 7v38a7 7 0 0 1-7 7H13a7 7 0 0 1-7-7z"/><path fill="url(#i59d8d2-i2cf0f8-paint1_radial_62220_694)" fill-opacity=".2" d="M6 13a7 7 0 0 1 7-7h38a7 7 0 0 1 7 7v38a7 7 0 0 1-7 7H13a7 7 0 0 1-7-7z"/><path fill="url(#i59d8d2-i2cf0f8-paint2_linear_62220_694)" fill-rule="evenodd" d="M51 7H13a6 6 0 0 0-6 6v38a6 6 0 0 0 6 6h38a6 6 0 0 0 6-6V13a6 6 0 0 0-6-6M13 6a7 7 0 0 0-7 7v38a7 7 0 0 0 7 7h38a7 7 0 0 0 7-7V13a7 7 0 0 0-7-7z" clip-rule="evenodd"/><path fill="url(#i59d8d2-i2cf0f8-paint3_linear_62220_694)" fill-rule="evenodd" d="M32 15a3 3 0 0 1 2.996 2.863l8.206 4.738A3 3 0 0 1 45 22a3 3 0 0 1 0 6c-.37 0-.725-.07-1.053-.194L41.527 32l2.42 4.193A3 3 0 0 1 45 36a3 3 0 0 1 0 6 3 3 0 0 1-1.798-.603l-8.206 4.738a3 3 0 0 1-5.993 0l-8.206-4.738A3 3 0 0 1 19 42a3 3 0 1 1 0-6c.37 0 .724.07 1.052.193L22.474 32l-2.421-4.195A3 3 0 0 1 19 28a3 3 0 1 1 0-6 2.98 2.98 0 0 1 1.796.601l8.207-4.738A3 3 0 0 1 32 15M21.98 38.65q.02.17.021.349c0 .431-.094.84-.258 1.212l7.605 4.39q.093-.177.209-.337l-4.325-7.491zm12.465 5.614q.114.161.209.336l7.603-4.39a3 3 0 0 1-.235-1.56l-3.251-1.877zm-7.915-8.241 4.195 7.265q.251-.12.526-.19V34.9a3 3 0 0 1-1.39-.8zm7.61-1.924a3 3 0 0 1-1.389.801v8.197q.274.072.526.19l4.194-7.264zm-12.855 2.958q.074.088.14.18l3.057-1.764L23.34 33.5zm18.236-1.583 3.054 1.764q.068-.094.141-.18l-2.055-3.56zM24.205 32l1.574 2.725 3.332-1.924a3 3 0 0 1-.11-.801c0-.276.039-.542.108-.795l-3.337-1.92zm10.685-.795A3 3 0 0 1 35 32c0 .278-.041.546-.112.801l3.332 1.924L39.794 32l-1.567-2.715zm-13.48-4.427q-.06.083-.127.162l2.056 3.56 1.132-1.962zm18.117 1.759 1.132 1.962 2.055-3.559a3 3 0 0 1-.127-.162zm-6.251-7.826a2.973 2.973 0 0 1-2.555-.001l-4.2 7.276 3.335 1.917A3 3 0 0 1 32 29c.84 0 1.598.346 2.143.903l3.334-1.918zm-11.535 3.076a3 3 0 0 1 .234 1.585l3.246 1.866 4.333-7.505a3 3 0 0 1-.21-.337zm12.91-4.39q-.093.176-.208.337l4.334 7.504 3.246-1.866a3 3 0 0 1 .233-1.585z" clip-rule="evenodd"/><defs><linearGradient id="i59d8d2-i2cf0f8-paint0_linear_62220_694" x1="20.444" x2="27.022" y1="6" y2="58.622" gradientUnits="userSpaceOnUse"><stop stop-color="#fff"/><stop offset="1" stop-color="#EBEBEB"/></linearGradient><radialGradient id="i59d8d2-i2cf0f8-paint1_radial_62220_694" cx="0" cy="0" r="1" gradientTransform="matrix(27.44448 41.16667 -35.62497 23.75 22.611 19.542)" gradientUnits="userSpaceOnUse"><stop offset=".177" stop-color="#fff"/><stop offset="1" stop-color="#B8B8B8"/></radialGradient><linearGradient id="i59d8d2-i2cf0f8-paint2_linear_62220_694" x1="22.792" x2="29.793" y1="6" y2="58.511" gradientUnits="userSpaceOnUse"><stop stop-color="#BBB"/><stop offset="1" stop-color="#888"/></linearGradient><linearGradient id="i59d8d2-i2cf0f8-paint3_linear_62220_694" x1="16" x2="49.939" y1="15" y2="46.941" gradientUnits="userSpaceOnUse"><stop stop-color="#7751B8"/><stop offset="1" stop-color="#5A409C"/></linearGradient></defs></svg>
