<svg xmlns="http://www.w3.org/2000/svg" width="64" height="64" fill="none"><path fill="url(#i54c98f-iccf6c1-paint0_linear_62220_668)" d="M12 13a7 7 0 0 1 7-7h30a7 7 0 0 1 7 7v38c0 6.075-4.925 11-11 11H19a7 7 0 0 1-7-7z"/><path fill="url(#i54c98f-iccf6c1-paint1_radial_62220_668)" fill-opacity=".2" d="M12 13a7 7 0 0 1 7-7h30a7 7 0 0 1 7 7v38c0 6.075-4.925 11-11 11H19a7 7 0 0 1-7-7z"/><path fill="url(#i54c98f-iccf6c1-paint2_linear_62220_668)" fill-rule="evenodd" d="M49 7H19a6 6 0 0 0-6 6v42a6 6 0 0 0 6 6h26c5.523 0 10-4.477 10-10V13a6 6 0 0 0-6-6M19 6a7 7 0 0 0-7 7v42a7 7 0 0 0 7 7h26c6.075 0 11-4.925 11-11V13a7 7 0 0 0-7-7z" clip-rule="evenodd"/><path fill="url(#i54c98f-iccf6c1-paint3_linear_62220_668)" d="M9.531 9a7 7 0 0 1 7-7h30a7 7 0 0 1 7 7v42a7 7 0 0 1-7 7h-30a7 7 0 0 1-7-7z"/><path fill="url(#i54c98f-iccf6c1-paint4_radial_62220_668)" fill-opacity=".2" d="M9.531 9a7 7 0 0 1 7-7h30a7 7 0 0 1 7 7v42a7 7 0 0 1-7 7h-30a7 7 0 0 1-7-7z"/><path fill="url(#i54c98f-iccf6c1-paint5_linear_62220_668)" fill-rule="evenodd" d="M45 3H15a6 6 0 0 0-6 6v42a6 6 0 0 0 6 6h30a6 6 0 0 0 6-6V9a6 6 0 0 0-6-6M15 2a7 7 0 0 0-7 7v42a7 7 0 0 0 7 7h30a7 7 0 0 0 7-7V9a7 7 0 0 0-7-7z" clip-rule="evenodd"/><path fill="url(#i54c98f-iccf6c1-paint6_linear_62220_668)" fill-rule="evenodd" d="M30 13a3 3 0 0 1 2.996 2.863l8.206 4.739A3 3 0 0 1 43 20a3 3 0 0 1 0 6c-.37 0-.725-.07-1.053-.193L39.527 30l2.42 4.193A3 3 0 0 1 43 34a3 3 0 0 1 0 6 3 3 0 0 1-1.798-.602l-8.206 4.738a3 3 0 0 1-5.993 0l-8.206-4.739A3 3 0 0 1 17 40a3 3 0 1 1 0-6c.37 0 .724.07 1.052.193L20.474 30l-2.421-4.194A3 3 0 0 1 17 26a3 3 0 1 1 0-6c.674 0 1.295.226 1.796.602l8.207-4.739A3 3 0 0 1 30 13M19.979 36.651q.02.172.021.349c0 .432-.094.841-.258 1.212l7.605 4.39q.093-.177.209-.336l-4.326-7.492zm12.464 5.615q.115.16.21.336l7.603-4.39a3 3 0 0 1-.236-1.56l-3.25-1.878zm-7.914-8.242 4.195 7.265q.251-.118.526-.19v-8.198a3 3 0 0 1-1.39-.8zm7.61-1.923a3 3 0 0 1-1.389.8V41.1q.275.071.525.19l4.195-7.265zm-12.855 2.958q.074.088.14.18l3.057-1.764-1.141-1.976zm18.236-1.583 3.054 1.763a3 3 0 0 1 .14-.18L38.66 31.5zM22.205 30l1.574 2.726 3.332-1.924A3 3 0 0 1 27 30c0-.276.04-.541.11-.795l-3.338-1.92zm10.685-.795c.07.254.11.52.11.795 0 .278-.041.546-.112.802l3.332 1.924L37.794 30l-1.567-2.715zm-13.48-4.427q-.06.084-.127.162l2.056 3.56 1.132-1.962zm18.116 1.76 1.133 1.961 2.055-3.559a3 3 0 0 1-.127-.162zm-6.25-7.827a2.973 2.973 0 0 1-2.555-.001l-4.2 7.276 3.334 1.917a2.99 2.99 0 0 1 4.287 0l3.334-1.918zm-11.535 3.076a3 3 0 0 1 .234 1.585l3.246 1.866 4.333-7.505a3 3 0 0 1-.21-.337zm12.91-4.39q-.093.177-.208.337l4.333 7.504 3.246-1.866a3 3 0 0 1 .233-1.585z" clip-rule="evenodd"/><defs><linearGradient id="i54c98f-iccf6c1-paint0_linear_62220_668" x1="24.222" x2="33.153" y1="6" y2="62.135" gradientUnits="userSpaceOnUse"><stop stop-color="#fff"/><stop offset="1" stop-color="#EBEBEB"/></linearGradient><radialGradient id="i54c98f-iccf6c1-paint1_radial_62220_668" cx="0" cy="0" r="1" gradientTransform="matrix(23.22222 44.33329 -34.16705 17.89704 26.056 20.583)" gradientUnits="userSpaceOnUse"><stop offset=".177" stop-color="#fff"/><stop offset="1" stop-color="#B8B8B8"/></radialGradient><linearGradient id="i54c98f-iccf6c1-paint2_linear_62220_668" x1="26.208" x2="35.702" y1="6" y2="61.944" gradientUnits="userSpaceOnUse"><stop stop-color="#BBB"/><stop offset="1" stop-color="#888"/></linearGradient><linearGradient id="i54c98f-iccf6c1-paint3_linear_62220_668" x1="21.753" x2="30.684" y1="2" y2="58.135" gradientUnits="userSpaceOnUse"><stop stop-color="#fff"/><stop offset="1" stop-color="#EBEBEB"/></linearGradient><radialGradient id="i54c98f-iccf6c1-paint4_radial_62220_668" cx="0" cy="0" r="1" gradientTransform="matrix(23.22222 44.33329 -34.16705 17.89704 23.587 16.583)" gradientUnits="userSpaceOnUse"><stop offset=".177" stop-color="#fff"/><stop offset="1" stop-color="#B8B8B8"/></radialGradient><linearGradient id="i54c98f-iccf6c1-paint5_linear_62220_668" x1="22.208" x2="31.702" y1="2" y2="57.944" gradientUnits="userSpaceOnUse"><stop stop-color="#BBB"/><stop offset="1" stop-color="#888"/></linearGradient><linearGradient id="i54c98f-iccf6c1-paint6_linear_62220_668" x1="14" x2="47.938" y1="13" y2="44.941" gradientUnits="userSpaceOnUse"><stop stop-color="#4BA446"/><stop offset="1" stop-color="#3F7D35"/></linearGradient></defs></svg>
