<svg xmlns="http://www.w3.org/2000/svg" width="64" height="64" fill="currentColor"><path fill="url(#icon-72719e0e9878ef78__icon-50b50c677c066fd5__a)" d="M6 13a7 7 0 0 1 7-7h38a7 7 0 0 1 7 7v38a7 7 0 0 1-7 7H13a7 7 0 0 1-7-7V13Z"/><path fill="url(#icon-92a0e6f53734061c__icon-fc5e496d3be5b8de__b)" fill-opacity=".2" d="M6 13a7 7 0 0 1 7-7h38a7 7 0 0 1 7 7v38a7 7 0 0 1-7 7H13a7 7 0 0 1-7-7V13Z"/><path fill="url(#icon-f45057c1304a175f__icon-03433c0a4ab40800__c)" fill-rule="evenodd" d="M51 7H13a6 6 0 0 0-6 6v38a6 6 0 0 0 6 6h38a6 6 0 0 0 6-6V13a6 6 0 0 0-6-6ZM13 6a7 7 0 0 0-7 7v38a7 7 0 0 0 7 7h38a7 7 0 0 0 7-7V13a7 7 0 0 0-7-7H13Z" clip-rule="evenodd"/><path fill="url(#icon-f876bc5f94174cab__icon-ad1e69a40fea3f7a__d)" d="M31.53 23.122c-2.979-4.166-9.174-4.162-12.146.009a7.462 7.462 0 0 0 .608 9.409l11.276 12.14a1 1 0 0 0 1.464.001l6.56-7.043a1.496 1.496 0 0 1-.179-.317l-2.19-5.317-.977 2.123a1.5 1.5 0 0 1-1.362.873H31.5a1.5 1.5 0 0 1 0-3h2.123l2.014-4.377a1.5 1.5 0 0 1 2.75.056l2.218 5.386 1.543-3.214a1.5 1.5 0 0 1 2.6-.183l.596.894a7.48 7.48 0 0 0-.761-7.464c-3.01-4.155-9.216-4.114-12.171.081l-.418.593-.464-.65Z"/><path fill="url(#icon-18ee9ac1d6d169b3__icon-2163d71baad96596__e)" d="M40.95 36.966a.5.5 0 0 1-.912-.026l-3.063-7.439-1.937 4.208a.5.5 0 0 1-.454.291H31.5a.5.5 0 1 1 0-1h2.764l2.282-4.959a.5.5 0 0 1 .916.019l3.073 7.462 2.514-5.238a.5.5 0 0 1 .867-.061L45.768 33H47.5a.5.5 0 0 1 0 1h-2a.5.5 0 0 1-.416-.223l-1.513-2.27-2.62 5.46Z"/><defs><linearGradient id="icon-72719e0e9878ef78__icon-50b50c677c066fd5__a" x1="20.444" x2="27.022" y1="6" y2="58.622" gradientUnits="userSpaceOnUse"><stop stop-color="#fff"/><stop offset="1" stop-color="#EBEBEB"/></linearGradient><linearGradient id="icon-f45057c1304a175f__icon-03433c0a4ab40800__c" x1="22.792" x2="29.793" y1="6" y2="58.511" gradientUnits="userSpaceOnUse"><stop stop-color="#BBB"/><stop offset="1" stop-color="#888"/></linearGradient><linearGradient id="icon-f876bc5f94174cab__icon-ad1e69a40fea3f7a__d" x1="17.998" x2="42.587" y1="20" y2="49.51" gradientUnits="userSpaceOnUse"><stop stop-color="#7751B8"/><stop offset="1" stop-color="#5A409C"/></linearGradient><linearGradient id="icon-18ee9ac1d6d169b3__icon-2163d71baad96596__e" x1="17.998" x2="42.587" y1="20" y2="49.51" gradientUnits="userSpaceOnUse"><stop stop-color="#7751B8"/><stop offset="1" stop-color="#5A409C"/></linearGradient><radialGradient id="icon-92a0e6f53734061c__icon-fc5e496d3be5b8de__b" cx="0" cy="0" r="1" gradientTransform="rotate(56.31 -6.951 30.895) scale(49.4762 42.8159)" gradientUnits="userSpaceOnUse"><stop offset=".177" stop-color="#fff"/><stop offset="1" stop-color="#B8B8B8"/></radialGradient></defs></svg>
