<svg xmlns="http://www.w3.org/2000/svg" width="64" height="64" fill="currentColor"><path fill="url(#ibf6f10-a)" d="M6 13a7 7 0 0 1 7-7h38a7 7 0 0 1 7 7v38a7 7 0 0 1-7 7H13a7 7 0 0 1-7-7z"/><path fill="url(#ibf6f10-b)" fill-opacity=".2" d="M6 13a7 7 0 0 1 7-7h38a7 7 0 0 1 7 7v38a7 7 0 0 1-7 7H13a7 7 0 0 1-7-7z"/><path fill="url(#ibf6f10-c)" fill-rule="evenodd" d="M51 7H13a6 6 0 0 0-6 6v38a6 6 0 0 0 6 6h38a6 6 0 0 0 6-6V13a6 6 0 0 0-6-6M13 6a7 7 0 0 0-7 7v38a7 7 0 0 0 7 7h38a7 7 0 0 0 7-7V13a7 7 0 0 0-7-7z" clip-rule="evenodd"/><path fill="url(#ibf6f10-d)" d="M21 24.866v16.148h.003c.036.793.426 1.495 1 2.077.601.61 1.439 1.13 2.424 1.553C26.401 45.49 29.085 46 32.02 46s5.61-.51 7.574-1.357c.98-.423 1.814-.943 2.411-1.553.576-.588.964-1.296.994-2.096H43V24.867q-.166.18-.345.337c-.721.643-1.676 1.15-2.723 1.545C37.827 27.54 35.022 28 32 28s-5.827-.459-7.932-1.252c-1.047-.395-2.002-.902-2.723-1.545a5 5 0 0 1-.345-.337"/><path fill="url(#ibf6f10-e)" d="M43 22.484v.032c-.006.76-.418 1.414-1.01 1.94-.597.533-1.43.986-2.41 1.356C37.612 26.553 34.932 27 32 27s-5.613-.447-7.58-1.188c-.85-.32-1.59-.704-2.16-1.148l-.038-.03a5 5 0 0 1-.212-.177c-.596-.531-1.01-1.19-1.01-1.957a2 2 0 0 1 .019-.282c.087-.647.47-1.21.991-1.675.597-.532 1.43-.985 2.41-1.355C26.388 18.447 29.068 18 32 18s5.613.447 7.58 1.188c.98.37 1.813.823 2.41 1.355q.07.063.138.129c.517.503.867 1.113.872 1.812"/><path fill="#F5F5F5" fill-rule="evenodd" d="M48.79 57.24a1.499 1.499 0 1 1-2.12-2.12l2.83-2.83c.15-.15.33-.27.53-.34l-2.39-2.39c-.43-.43-.56-1.07-.32-1.64.23-.56.78-.92 1.38-.92h10.79c.83 0 1.5.67 1.5 1.5v10.79c0 .42-.17.81-.47 1.09-.28.26-.65.41-1.03.41-.4 0-.77-.16-1.06-.44l-2.23-2.23c-.07.19-.19.38-.34.53l-2.83 2.83a1.499 1.499 0 0 1-2.15-2.09l-2.09 2.09a1.5 1.5 0 0 1-2.12 0c-.58-.58-.58-1.54 0-2.12" clip-rule="evenodd"/><path fill="url(#ibf6f10-f)" fill-rule="evenodd" d="M60 48.5c0-.28-.22-.5-.5-.5H48.71c-.45 0-.67.54-.35.85l10.79 10.79a.5.5 0 0 0 .85-.35zm-9.08 5.21c.2-.2.2-.51 0-.71s-.51-.2-.71 0l-2.83 2.83c-.2.2-.2.51 0 .71s.51.2.71 0zm2.12 1.41c.2.2.2.51 0 .71l-4.95 4.95c-.2.2-.51.2-.71 0s-.2-.51 0-.71l4.95-4.95c.2-.2.51-.2.71 0m2.12 2.83c.2-.2.2-.51 0-.71s-.51-.2-.71 0l-2.83 2.83c-.2.2-.2.51 0 .71s.51.2.71 0z" clip-rule="evenodd"/><defs><linearGradient id="ibf6f10-a" x1="20.444" x2="27.022" y1="6" y2="58.622" gradientUnits="userSpaceOnUse"><stop stop-color="#fff"/><stop offset="1" stop-color="#EBEBEB"/></linearGradient><linearGradient id="ibf6f10-c" x1="22.792" x2="29.793" y1="6" y2="58.511" gradientUnits="userSpaceOnUse"><stop stop-color="#BBB"/><stop offset="1" stop-color="#888"/></linearGradient><linearGradient id="ibf6f10-d" x1="21" x2="48.205" y1="18" y2="39.375" gradientUnits="userSpaceOnUse"><stop stop-color="#008EE6"/><stop offset="1" stop-color="#006094"/></linearGradient><linearGradient id="ibf6f10-e" x1="21" x2="48.205" y1="18" y2="39.375" gradientUnits="userSpaceOnUse"><stop stop-color="#008EE6"/><stop offset="1" stop-color="#006094"/></linearGradient><linearGradient id="ibf6f10-f" x1="47.23" x2="60.16" y1="48" y2="60.769" gradientUnits="userSpaceOnUse"><stop stop-color="#008EE6"/><stop offset="1" stop-color="#006094"/></linearGradient><radialGradient id="ibf6f10-b" cx="0" cy="0" r="1" gradientTransform="matrix(27.4444 41.16672 -35.62501 23.74995 22.61 19.541)" gradientUnits="userSpaceOnUse"><stop offset=".177" stop-color="#fff"/><stop offset="1" stop-color="#B8B8B8"/></radialGradient></defs></svg>
