<svg xmlns="http://www.w3.org/2000/svg" width="64" height="64" fill="currentColor"><path fill="url(#a)" d="M12 13a7 7 0 0 1 7-7h30a7 7 0 0 1 7 7v38c0 6.075-4.925 11-11 11H19a7 7 0 0 1-7-7V13Z"/><path fill="url(#b)" fill-opacity=".2" d="M12 13a7 7 0 0 1 7-7h30a7 7 0 0 1 7 7v38c0 6.075-4.925 11-11 11H19a7 7 0 0 1-7-7V13Z"/><path fill="url(#c)" fill-rule="evenodd" d="M49 7H19a6 6 0 0 0-6 6v42a6 6 0 0 0 6 6h26c5.523 0 10-4.477 10-10V13a6 6 0 0 0-6-6ZM19 6a7 7 0 0 0-7 7v42a7 7 0 0 0 7 7h26c6.075 0 11-4.925 11-11V13a7 7 0 0 0-7-7H19Z" clip-rule="evenodd"/><path fill="url(#d)" d="M8 9a7 7 0 0 1 7-7h30a7 7 0 0 1 7 7v42a7 7 0 0 1-7 7H15a7 7 0 0 1-7-7V9Z"/><path fill="url(#e)" fill-opacity=".2" d="M8 9a7 7 0 0 1 7-7h30a7 7 0 0 1 7 7v42a7 7 0 0 1-7 7H15a7 7 0 0 1-7-7V9Z"/><path fill="url(#f)" fill-rule="evenodd" d="M45 3H15a6 6 0 0 0-6 6v42a6 6 0 0 0 6 6h30a6 6 0 0 0 6-6V9a6 6 0 0 0-6-6ZM15 2a7 7 0 0 0-7 7v42a7 7 0 0 0 7 7h30a7 7 0 0 0 7-7V9a7 7 0 0 0-7-7H15Z" clip-rule="evenodd"/><path fill="#F5F5F5" fill-rule="evenodd" d="M46.79 59.24a1.499 1.499 0 1 1-2.12-2.12l2.83-2.83c.15-.15.33-.27.53-.34l-2.39-2.39c-.43-.43-.56-1.07-.32-1.64.23-.56.78-.92 1.38-.92h10.79c.83 0 1.5.67 1.5 1.5v10.79c0 .42-.17.81-.47 1.09-.28.26-.65.41-1.03.41-.4 0-.77-.16-1.06-.44l-2.23-2.23c-.07.19-.19.38-.34.53l-2.83 2.83a1.499 1.499 0 0 1-2.15-2.09l-2.09 2.09a1.499 1.499 0 0 1-2.12 0c-.58-.58-.58-1.54 0-2.12" clip-rule="evenodd"/><path fill="url(#g)" fill-rule="evenodd" d="M58 50.5c0-.28-.22-.5-.5-.5H46.71c-.45 0-.67.54-.35.85l10.79 10.79a.5.5 0 0 0 .85-.35V50.5Zm-9.08 5.21c.2-.2.2-.51 0-.71-.2-.2-.51-.2-.71 0l-2.83 2.83c-.2.2-.2.51 0 .71.2.2.51.2.71 0l2.83-2.83Zm2.12 1.41c.2.2.2.51 0 .71l-4.95 4.95c-.2.2-.51.2-.71 0-.2-.2-.2-.51 0-.71l4.95-4.95c.2-.2.51-.2.71 0Zm2.12 2.83c.2-.2.2-.51 0-.71-.2-.2-.51-.2-.71 0l-2.83 2.83c-.2.2-.2.51 0 .71.2.2.51.2.71 0l2.83-2.83Z" clip-rule="evenodd"/><defs><linearGradient id="a" x1="24.222" x2="33.153" y1="6" y2="62.135" gradientUnits="userSpaceOnUse"><stop stop-color="#fff"/><stop offset="1" stop-color="#EBEBEB"/></linearGradient><linearGradient id="c" x1="26.208" x2="35.702" y1="6" y2="61.944" gradientUnits="userSpaceOnUse"><stop stop-color="#BBB"/><stop offset="1" stop-color="#888"/></linearGradient><linearGradient id="d" x1="20.222" x2="29.153" y1="2" y2="58.135" gradientUnits="userSpaceOnUse"><stop stop-color="#fff"/><stop offset="1" stop-color="#EBEBEB"/></linearGradient><linearGradient id="f" x1="22.208" x2="31.702" y1="2" y2="57.944" gradientUnits="userSpaceOnUse"><stop stop-color="#BBB"/><stop offset="1" stop-color="#888"/></linearGradient><linearGradient id="g" x1="45.23" x2="58.16" y1="50" y2="62.769" gradientUnits="userSpaceOnUse"><stop stop-color="#4BA446"/><stop offset="1" stop-color="#3F7D35"/></linearGradient><radialGradient id="b" cx="0" cy="0" r="1" gradientTransform="matrix(23.22222 44.33329 -34.16705 17.89704 26.056 20.583)" gradientUnits="userSpaceOnUse"><stop offset=".177" stop-color="#fff"/><stop offset="1" stop-color="#B8B8B8"/></radialGradient><radialGradient id="e" cx="0" cy="0" r="1" gradientTransform="matrix(23.22222 44.33329 -34.16705 17.89704 22.056 16.583)" gradientUnits="userSpaceOnUse"><stop offset=".177" stop-color="#fff"/><stop offset="1" stop-color="#B8B8B8"/></radialGradient></defs></svg>
