<svg xmlns="http://www.w3.org/2000/svg" width="64" height="64" fill="currentColor"><path fill="url(#a)" d="M10 11a7 7 0 0 1 7-7h30a7 7 0 0 1 7 7v42a7 7 0 0 1-7 7H17a7 7 0 0 1-7-7V11Z"/><path fill="url(#b)" fill-opacity=".2" d="M10 11a7 7 0 0 1 7-7h30a7 7 0 0 1 7 7v42a7 7 0 0 1-7 7H17a7 7 0 0 1-7-7V11Z"/><path fill="url(#c)" fill-rule="evenodd" d="M47 5H17a6 6 0 0 0-6 6v42a6 6 0 0 0 6 6h30a6 6 0 0 0 6-6V11a6 6 0 0 0-6-6ZM17 4a7 7 0 0 0-7 7v42a7 7 0 0 0 7 7h30a7 7 0 0 0 7-7V11a7 7 0 0 0-7-7H17Z" clip-rule="evenodd"/><path fill="url(#d)" d="M32.837 46H21a2 2 0 0 1-2-2V30.888a2 2 0 0 1 .659-1.484l11-9.942a2 2 0 0 1 2.683 0l11 9.942A2 2 0 0 1 45 30.888v9.116a1.522 1.522 0 0 0-.5-.084c-.62 0-1.16.36-1.39.93-.01.04-.06.09-.11.13a.423.423 0 0 1-.11-.13 1.488 1.488 0 0 0-1.39-.93 1.489 1.489 0 0 0-1.39.92c-.01.04-.06.09-.11.13a.423.423 0 0 1-.11-.13 1.498 1.498 0 0 0-2.45-.488 1.38 1.38 0 0 0-.33.488c-.01.04-.06.09-.11.13a.423.423 0 0 1-.11-.13c-.23-.56-.76-.93-1.4-.93-.62.01-1.16.38-1.38.96-.04.09-.06.13-.06.13a.68.68 0 0 1-.13.04c-.8.18-1.31.99-1.13 1.79a1.477 1.477 0 0 0 1.266 1.157L34.05 44a.68.68 0 0 1-.13.04A1.505 1.505 0 0 0 32.837 46Z"/><path fill="url(#e)" d="M35.76 42.544a2.446 2.446 0 0 1-.23-.207c-.058.066-.12.127-.188.185-.281.242-.613.383-.982.466a.5.5 0 1 1-.22-.976c.257-.058.425-.141.55-.249.126-.107.241-.268.344-.533a.5.5 0 0 1 .93-.007c.072.178.22.382.416.538.196.154.41.239.613.239.204 0 .422-.085.622-.242.198-.154.345-.352.418-.524a.499.499 0 0 1 .935 0 1.4 1.4 0 0 0 .412.526c.196.155.409.24.612.24.205 0 .423-.085.623-.242.2-.156.35-.359.421-.533l.002-.005a.499.499 0 0 1 .27-.27l.012-.005a.498.498 0 0 1 .36 0l.011.004c.12.05.22.145.272.274.073.178.22.382.417.538.196.154.409.239.612.239.205 0 .423-.085.623-.242.202-.157.35-.36.422-.535a.498.498 0 0 1 .82-.162.498.498 0 0 1 .11.17c.102.264.217.425.343.532.125.108.294.191.55.25a.5.5 0 1 1-.22.975c-.368-.083-.7-.224-.982-.466a1.907 1.907 0 0 1-.19-.188 2.472 2.472 0 0 1-.238.213c-.328.256-.757.453-1.238.453s-.907-.197-1.233-.456a2.439 2.439 0 0 1-.261-.24 2.49 2.49 0 0 1-.267.243c-.33.256-.758.453-1.239.453-.481 0-.907-.197-1.233-.456a2.437 2.437 0 0 1-.261-.24 2.478 2.478 0 0 1-.267.243c-.33.256-.758.453-1.238.453-.482 0-.908-.197-1.234-.456Z"/><path fill="url(#f)" d="M35.76 45.544a2.446 2.446 0 0 1-.23-.207c-.058.066-.12.127-.188.185-.281.242-.613.383-.982.466a.5.5 0 1 1-.22-.976c.257-.058.425-.141.55-.249.126-.107.241-.268.344-.533a.5.5 0 0 1 .93-.007c.072.178.22.382.416.538.196.154.41.239.613.239.204 0 .422-.085.622-.242.198-.154.345-.352.418-.524a.499.499 0 0 1 .935 0 1.4 1.4 0 0 0 .412.526c.196.155.409.24.612.24.205 0 .423-.085.623-.242.2-.156.35-.359.421-.533l.002-.005a.499.499 0 0 1 .27-.27l.012-.005a.498.498 0 0 1 .36 0l.011.004c.12.05.22.145.272.274.073.178.22.382.417.538.196.154.409.239.612.239.205 0 .423-.085.623-.242.202-.157.35-.36.422-.535a.498.498 0 0 1 .82-.162.498.498 0 0 1 .11.17c.102.264.217.425.343.532.125.108.294.191.55.25a.5.5 0 1 1-.22.975c-.368-.083-.7-.224-.982-.466a1.907 1.907 0 0 1-.19-.188 2.472 2.472 0 0 1-.238.213c-.328.256-.757.453-1.238.453s-.907-.197-1.233-.456a2.439 2.439 0 0 1-.261-.24 2.49 2.49 0 0 1-.267.243c-.33.256-.758.453-1.239.453-.481 0-.907-.197-1.233-.456a2.437 2.437 0 0 1-.261-.24 2.478 2.478 0 0 1-.267.243c-.33.256-.758.453-1.238.453-.482 0-.908-.197-1.234-.456Z"/><defs><linearGradient id="a" x1="22.222" x2="31.153" y1="4" y2="60.135" gradientUnits="userSpaceOnUse"><stop stop-color="#fff"/><stop offset="1" stop-color="#EBEBEB"/></linearGradient><linearGradient id="c" x1="24.208" x2="33.702" y1="4" y2="59.944" gradientUnits="userSpaceOnUse"><stop stop-color="#BBB"/><stop offset="1" stop-color="#888"/></linearGradient><linearGradient id="d" x1="19" x2="46.053" y1="18.946" y2="46.195" gradientUnits="userSpaceOnUse"><stop stop-color="#3477EA"/><stop offset="1" stop-color="#1D53A4"/></linearGradient><linearGradient id="e" x1="19" x2="46.053" y1="18.946" y2="46.195" gradientUnits="userSpaceOnUse"><stop stop-color="#3477EA"/><stop offset="1" stop-color="#1D53A4"/></linearGradient><linearGradient id="f" x1="19" x2="46.053" y1="18.946" y2="46.195" gradientUnits="userSpaceOnUse"><stop stop-color="#3477EA"/><stop offset="1" stop-color="#1D53A4"/></linearGradient><radialGradient id="b" cx="0" cy="0" r="1" gradientTransform="matrix(23.22222 44.33329 -34.16705 17.89704 24.056 18.583)" gradientUnits="userSpaceOnUse"><stop offset=".177" stop-color="#fff"/><stop offset="1" stop-color="#B8B8B8"/></radialGradient></defs></svg>
