<svg xmlns="http://www.w3.org/2000/svg" width="64" height="64" fill="currentColor"><path fill="url(#icon-c9e36d1ab2725630__icon-1e3f421bb0bca8e4__a)" d="M6 13a7 7 0 0 1 7-7h38a7 7 0 0 1 7 7v38a7 7 0 0 1-7 7H13a7 7 0 0 1-7-7V13Z"/><path fill="url(#icon-b38bf7282fc1d1da__icon-2de667898576a980__b)" fill-opacity=".2" d="M6 13a7 7 0 0 1 7-7h38a7 7 0 0 1 7 7v38a7 7 0 0 1-7 7H13a7 7 0 0 1-7-7V13Z"/><path fill="url(#icon-8ead4d6a1ad55cf0__icon-4d1eb0f3b3ef70c5__c)" fill-rule="evenodd" d="M51 7H13a6 6 0 0 0-6 6v38a6 6 0 0 0 6 6h38a6 6 0 0 0 6-6V13a6 6 0 0 0-6-6ZM13 6a7 7 0 0 0-7 7v38a7 7 0 0 0 7 7h38a7 7 0 0 0 7-7V13a7 7 0 0 0-7-7H13Z" clip-rule="evenodd"/><path fill="url(#icon-39143b0250b0addf__icon-0c817b4ebf840adf__d)" d="M20 32a7 7 0 0 1 7-7h1.25a.75.75 0 0 1 0 1.5H27a5.5 5.5 0 1 0 0 11h1.25a.75.75 0 0 1 0 1.5H27a7 7 0 0 1-7-7Z"/><path fill="url(#icon-8763ad0e35ce0fda__icon-82c2383d34cb3bd5__e)" d="M28 32.001a.75.75 0 0 1 .75-.75h6.5a.75.75 0 0 1 0 1.5h-6.5a.75.75 0 0 1-.75-.75Z"/><path fill="url(#icon-6bc16ef39bc4e05e__icon-a50a4e2eca764036__f)" d="M37 39a7 7 0 1 0 0-14h-1.25a.75.75 0 0 0 0 1.5H37a5.5 5.5 0 1 1 0 11h-1.25a.75.75 0 0 0 0 1.5H37Z"/><defs><linearGradient id="icon-c9e36d1ab2725630__icon-1e3f421bb0bca8e4__a" x1="20.444" x2="27.022" y1="6" y2="58.622" gradientUnits="userSpaceOnUse"><stop stop-color="#fff"/><stop offset="1" stop-color="#EBEBEB"/></linearGradient><linearGradient id="icon-8ead4d6a1ad55cf0__icon-4d1eb0f3b3ef70c5__c" x1="22.792" x2="29.793" y1="6" y2="58.511" gradientUnits="userSpaceOnUse"><stop stop-color="#BBB"/><stop offset="1" stop-color="#888"/></linearGradient><linearGradient id="icon-39143b0250b0addf__icon-0c817b4ebf840adf__d" x1="20" x2="32.187" y1="25" y2="45.891" gradientUnits="userSpaceOnUse"><stop stop-color="#EB6D00"/><stop offset="1" stop-color="#B85500"/></linearGradient><linearGradient id="icon-8763ad0e35ce0fda__icon-82c2383d34cb3bd5__e" x1="20" x2="32.187" y1="25" y2="45.891" gradientUnits="userSpaceOnUse"><stop stop-color="#EB6D00"/><stop offset="1" stop-color="#B85500"/></linearGradient><linearGradient id="icon-6bc16ef39bc4e05e__icon-a50a4e2eca764036__f" x1="20" x2="32.187" y1="25" y2="45.891" gradientUnits="userSpaceOnUse"><stop stop-color="#EB6D00"/><stop offset="1" stop-color="#B85500"/></linearGradient><radialGradient id="icon-b38bf7282fc1d1da__icon-2de667898576a980__b" cx="0" cy="0" r="1" gradientTransform="rotate(56.31 -6.951 30.895) scale(49.4762 42.8159)" gradientUnits="userSpaceOnUse"><stop offset=".177" stop-color="#fff"/><stop offset="1" stop-color="#B8B8B8"/></radialGradient></defs></svg>
