<svg xmlns="http://www.w3.org/2000/svg" width="64" height="64" fill="currentColor"><path fill="url(#a)" d="M6 13a7 7 0 0 1 7-7h38a7 7 0 0 1 7 7v38a7 7 0 0 1-7 7H13a7 7 0 0 1-7-7V13Z"/><path fill="url(#b)" fill-opacity=".2" d="M6 13a7 7 0 0 1 7-7h38a7 7 0 0 1 7 7v38a7 7 0 0 1-7 7H13a7 7 0 0 1-7-7V13Z"/><path fill="url(#c)" fill-rule="evenodd" d="M51 7H13a6 6 0 0 0-6 6v38a6 6 0 0 0 6 6h38a6 6 0 0 0 6-6V13a6 6 0 0 0-6-6ZM13 6a7 7 0 0 0-7 7v38a7 7 0 0 0 7 7h38a7 7 0 0 0 7-7V13a7 7 0 0 0-7-7H13Z" clip-rule="evenodd"/><path fill="url(#d)" d="M21 24.866v16.148h.003c.036.794.426 1.495 1 2.077.601.61 1.439 1.13 2.424 1.553C26.401 45.49 29.085 46 32.02 46c2.934 0 5.61-.509 7.574-1.357.98-.423 1.814-.943 2.411-1.553.576-.588.964-1.296.994-2.095H43v-16.13c-.11.12-.227.233-.345.338-.721.643-1.676 1.15-2.723 1.545C37.827 27.54 35.022 28 32 28c-3.022 0-5.827-.459-7.932-1.252-1.047-.395-2.002-.902-2.723-1.545a5.022 5.022 0 0 1-.345-.337Z"/><path fill="url(#e)" d="M43 22.484v.032c-.006.76-.418 1.414-1.01 1.94-.597.533-1.43.986-2.41 1.356C37.612 26.553 34.932 27 32 27s-5.613-.447-7.58-1.188c-.85-.32-1.59-.704-2.16-1.148l-.038-.03a4.748 4.748 0 0 1-.212-.177c-.596-.531-1.01-1.19-1.01-1.957a2.127 2.127 0 0 1 .019-.282c.087-.647.47-1.21.991-1.675.597-.532 1.43-.985 2.41-1.355C26.388 18.447 29.068 18 32 18s5.613.447 7.58 1.188c.98.37 1.813.823 2.41 1.355.047.042.093.085.138.129.517.503.867 1.113.872 1.812Z"/><path fill="url(#f)" d="M54 48.761a.85.85 0 0 0-1.403-.645l-5.654 4.846a.85.85 0 0 0-.086 1.205l5.654 6.461c.516.591 1.49.225 1.49-.56V48.762Z"/><path fill="url(#g)" d="M55.027 48.761a.85.85 0 0 1 1.403-.645l5.654 4.846a.85.85 0 0 1 .086 1.205l-5.653 6.461c-.517.591-1.49.225-1.49-.56V48.762Z"/><path fill="#F5F5F5" fill-rule="evenodd" d="M54.514 47.506c-.632-.678-1.751-.85-2.568-.15l-5.654 4.846a1.85 1.85 0 0 0-.188 2.623l5.654 6.462c.788.9 2.063.78 2.756.04.693.74 1.967.86 2.755-.04l5.654-6.462a1.85 1.85 0 0 0-.188-2.623l-5.654-4.846c-.816-.7-1.935-.528-2.567.15Zm-1.917.61A.85.85 0 0 1 54 48.76V60.07c0 .784-.973 1.15-1.49.56l-5.653-6.462a.85.85 0 0 1 .086-1.205l5.654-4.846Zm3.833 0a.85.85 0 0 0-1.403.645V60.07c0 .784.973 1.15 1.49.56l5.653-6.462a.85.85 0 0 0-.086-1.205l-5.654-4.846Z" clip-rule="evenodd"/><defs><linearGradient id="a" x1="20.444" x2="27.022" y1="6" y2="58.622" gradientUnits="userSpaceOnUse"><stop stop-color="#fff"/><stop offset="1" stop-color="#EBEBEB"/></linearGradient><linearGradient id="c" x1="22.792" x2="29.793" y1="6" y2="58.511" gradientUnits="userSpaceOnUse"><stop stop-color="#BBB"/><stop offset="1" stop-color="#888"/></linearGradient><linearGradient id="d" x1="21" x2="48.205" y1="18" y2="39.375" gradientUnits="userSpaceOnUse"><stop stop-color="#008EE6"/><stop offset="1" stop-color="#006094"/></linearGradient><linearGradient id="e" x1="21" x2="48.205" y1="18" y2="39.375" gradientUnits="userSpaceOnUse"><stop stop-color="#008EE6"/><stop offset="1" stop-color="#006094"/></linearGradient><linearGradient id="f" x1="46.647" x2="59.426" y1="47.909" y2="63.364" gradientUnits="userSpaceOnUse"><stop stop-color="#008EE6"/><stop offset="1" stop-color="#006094"/></linearGradient><linearGradient id="g" x1="46.647" x2="59.426" y1="47.909" y2="63.364" gradientUnits="userSpaceOnUse"><stop stop-color="#008EE6"/><stop offset="1" stop-color="#006094"/></linearGradient><radialGradient id="b" cx="0" cy="0" r="1" gradientTransform="rotate(56.31 -6.951 30.895) scale(49.4762 42.8159)" gradientUnits="userSpaceOnUse"><stop offset=".177" stop-color="#fff"/><stop offset="1" stop-color="#B8B8B8"/></radialGradient></defs></svg>
