<svg xmlns="http://www.w3.org/2000/svg" width="64" height="64" fill="currentColor"><path fill="url(#a)" d="M6 13a7 7 0 0 1 7-7h38a7 7 0 0 1 7 7v38a7 7 0 0 1-7 7H13a7 7 0 0 1-7-7V13Z"/><path fill="url(#b)" fill-opacity=".2" d="M6 13a7 7 0 0 1 7-7h38a7 7 0 0 1 7 7v38a7 7 0 0 1-7 7H13a7 7 0 0 1-7-7V13Z"/><path fill="url(#c)" fill-rule="evenodd" d="M51 7H13a6 6 0 0 0-6 6v38a6 6 0 0 0 6 6h38a6 6 0 0 0 6-6V13a6 6 0 0 0-6-6ZM13 6a7 7 0 0 0-7 7v38a7 7 0 0 0 7 7h38a7 7 0 0 0 7-7V13a7 7 0 0 0-7-7H13Z" clip-rule="evenodd"/><path fill="url(#d)" d="M18 28a3 3 0 1 0 0-6 3 3 0 0 0 0 6Z"/><path fill="url(#e)" d="M32 28a3 3 0 1 0 0-6 3 3 0 0 0 0 6Z"/><path fill="url(#f)" d="M34.873 39a3 3 0 1 1-6 0 3 3 0 0 1 6 0Z"/><path fill="url(#g)" d="M18 42a3 3 0 1 0 0-6 3 3 0 0 0 0 6Z"/><path fill="url(#h)" d="M49 25a3 3 0 1 1-6 0 3 3 0 0 1 6 0Z"/><path fill="#F5F5F5" d="M59.778 44.222c-4.296-4.296-11.26-4.296-15.556 0-4.296 4.296-4.296 11.26 0 15.556 4.296 4.296 11.26 4.296 15.556 0 4.296-4.296 4.296-11.26 0-15.556Z"/><path fill="url(#i)" fill-rule="evenodd" d="M44.929 44.93c3.905-3.906 10.237-3.906 14.142 0 3.905 3.905 3.905 10.236 0 14.142-3.905 3.905-10.237 3.905-14.142 0-3.905-3.906-3.905-10.237 0-14.143ZM58.708 46l-12.71 12.708a9 9 0 0 0 12.71-12.709Zm-13.072-.364A9 9 0 0 1 58 45.292L45.292 58.001a9 9 0 0 1 .344-12.364Z" clip-rule="evenodd"/><defs><linearGradient id="a" x1="20.444" x2="27.022" y1="6" y2="58.622" gradientUnits="userSpaceOnUse"><stop stop-color="#fff"/><stop offset="1" stop-color="#EBEBEB"/></linearGradient><linearGradient id="c" x1="22.792" x2="29.793" y1="6" y2="58.511" gradientUnits="userSpaceOnUse"><stop stop-color="#BBB"/><stop offset="1" stop-color="#888"/></linearGradient><linearGradient id="d" x1="15" x2="32.481" y1="22" y2="51.717" gradientUnits="userSpaceOnUse"><stop stop-color="#7751B8"/><stop offset="1" stop-color="#5A409C"/></linearGradient><linearGradient id="e" x1="15" x2="32.481" y1="22" y2="51.717" gradientUnits="userSpaceOnUse"><stop stop-color="#7751B8"/><stop offset="1" stop-color="#5A409C"/></linearGradient><linearGradient id="f" x1="15" x2="32.481" y1="22" y2="51.717" gradientUnits="userSpaceOnUse"><stop stop-color="#7751B8"/><stop offset="1" stop-color="#5A409C"/></linearGradient><linearGradient id="g" x1="15" x2="32.481" y1="22" y2="51.717" gradientUnits="userSpaceOnUse"><stop stop-color="#7751B8"/><stop offset="1" stop-color="#5A409C"/></linearGradient><linearGradient id="h" x1="15" x2="32.481" y1="22" y2="51.717" gradientUnits="userSpaceOnUse"><stop stop-color="#7751B8"/><stop offset="1" stop-color="#5A409C"/></linearGradient><linearGradient id="i" x1="42" x2="62" y1="42.001" y2="62.001" gradientUnits="userSpaceOnUse"><stop stop-color="#7751B8"/><stop offset="1" stop-color="#5A409C"/></linearGradient><radialGradient id="b" cx="0" cy="0" r="1" gradientTransform="rotate(56.31 -6.951 30.895) scale(49.4762 42.8159)" gradientUnits="userSpaceOnUse"><stop offset=".177" stop-color="#fff"/><stop offset="1" stop-color="#B8B8B8"/></radialGradient></defs></svg>
