<svg xmlns="http://www.w3.org/2000/svg" width="64" height="64" fill="currentColor"><path fill="url(#icon-2566c712efadcf64__icon-a71e85cf1f76736e__a)" fill-rule="evenodd" d="M13.875 2.5H48.5c2.343 0 4.893 2.759 4.893 5.172v35.73c0 1.479 1.255.442 0 1.348l.348 1.671v8.704l-.348 2.563-3.018 3.5h-35l-4.313-2-1.75-4.563v-2.25s1.143-1.715.348-.88V11.654c0-3.62.7-9.154 4.215-9.154Z" clip-rule="evenodd"/><path fill="url(#icon-7d3bb799f327809e__icon-74d23eb68758823b__b)" fill-opacity=".2" fill-rule="evenodd" d="M13.875 2.5H48.5c2.343 0 4.893 2.759 4.893 5.172v35.73c0 1.479 1.255.442 0 1.348l.348 1.671v8.704l-.348 2.563-3.018 3.5h-35l-4.313-2-1.75-4.563v-2.25s1.143-1.715.348-.88V11.654c0-3.62.7-9.154 4.215-9.154Z" clip-rule="evenodd"/><path fill="url(#icon-6c06e446c66286a4__icon-32bd39479945f705__c)" fill-rule="evenodd" d="M9.006 54.32A8 8 0 0 0 17 62h31a6 6 0 0 0 6-6V8a6 6 0 0 0-6-6H15a6 6 0 0 0-6 6v46c0 .055 0 .11.002.164A7.487 7.487 0 0 0 9 54.32h.006ZM15 3h33a5 5 0 0 1 5 5v35.5a3.5 3.5 0 0 1-3.5 3.5H16.32A7.317 7.317 0 0 0 10 50.625V8a5 5 0 0 1 5-5Zm-4.998 51.164A6.32 6.32 0 0 1 16.32 48H49.5a4.491 4.491 0 0 0 3.5-1.671V50.5a3.5 3.5 0 0 1-3.5 3.5h-34a.5.5 0 0 0 0 1h34a4.491 4.491 0 0 0 3.5-1.671V56a5 5 0 0 1-5 5H17a7 7 0 0 1-6.998-6.836Z" clip-rule="evenodd"/><path fill="url(#icon-86679a6d229430cc__icon-86ee1574a8d9bacb__d)" d="M34.926 14.02a.5.5 0 0 1 .337.623l-6.534 22a.5.5 0 1 1-.958-.285l6.533-22a.5.5 0 0 1 .622-.337Z"/><path fill="url(#icon-431130b786e9f120__icon-9f0212bc3569ae9d__e)" d="M24.854 18.146a.5.5 0 0 0-.708 0l-6.929 6.93a.6.6 0 0 0 0 .848l6.93 6.93a.5.5 0 0 0 .707-.708L18.207 25.5l6.647-6.646a.5.5 0 0 0 0-.708Z"/><path fill="url(#icon-88ed8b56e97feebd__icon-2fcaad9931c80ab1__f)" d="M38.854 32.854a.5.5 0 0 1-.708-.708l6.647-6.646-6.647-6.646a.5.5 0 0 1 .708-.708l6.929 6.93a.6.6 0 0 1 0 .848l-6.93 6.93Z"/><defs><linearGradient id="icon-2566c712efadcf64__icon-a71e85cf1f76736e__a" x1="21.712" x2="31.364" y1="2.5" y2="61.231" gradientUnits="userSpaceOnUse"><stop stop-color="#fff"/><stop offset="1" stop-color="#EBEBEB"/></linearGradient><linearGradient id="icon-6c06e446c66286a4__icon-32bd39479945f705__c" x1="23.531" x2="34.158" y1="2" y2="61.777" gradientUnits="userSpaceOnUse"><stop stop-color="#BBB"/><stop offset="1" stop-color="#888"/></linearGradient><linearGradient id="icon-86679a6d229430cc__icon-86ee1574a8d9bacb__d" x1="17.041" x2="39.452" y1="14" y2="42.176" gradientUnits="userSpaceOnUse"><stop stop-color="#4BA446"/><stop offset="1" stop-color="#3F7D35"/></linearGradient><linearGradient id="icon-431130b786e9f120__icon-9f0212bc3569ae9d__e" x1="17.041" x2="39.452" y1="14" y2="42.176" gradientUnits="userSpaceOnUse"><stop stop-color="#4BA446"/><stop offset="1" stop-color="#3F7D35"/></linearGradient><linearGradient id="icon-88ed8b56e97feebd__icon-2fcaad9931c80ab1__f" x1="17.041" x2="39.452" y1="14" y2="42.176" gradientUnits="userSpaceOnUse"><stop stop-color="#4BA446"/><stop offset="1" stop-color="#3F7D35"/></linearGradient><radialGradient id="icon-7d3bb799f327809e__icon-74d23eb68758823b__b" cx="0" cy="0" r="1" gradientTransform="rotate(63.112 -2.692 28.083) scale(52.0928 39.3979)" gradientUnits="userSpaceOnUse"><stop offset=".177" stop-color="#fff"/><stop offset="1" stop-color="#B8B8B8"/></radialGradient></defs></svg>
