<svg xmlns="http://www.w3.org/2000/svg" width="64" height="64" fill="currentColor"><path fill="url(#a)" d="M12 13a7 7 0 0 1 7-7h30a7 7 0 0 1 7 7v38c0 6.075-4.925 11-11 11H19a7 7 0 0 1-7-7V13Z"/><path fill="url(#b)" fill-opacity=".2" d="M12 13a7 7 0 0 1 7-7h30a7 7 0 0 1 7 7v38c0 6.075-4.925 11-11 11H19a7 7 0 0 1-7-7V13Z"/><path fill="url(#c)" fill-rule="evenodd" d="M49 7H19a6 6 0 0 0-6 6v42a6 6 0 0 0 6 6h26c5.523 0 10-4.477 10-10V13a6 6 0 0 0-6-6ZM19 6a7 7 0 0 0-7 7v42a7 7 0 0 0 7 7h26c6.075 0 11-4.925 11-11V13a7 7 0 0 0-7-7H19Z" clip-rule="evenodd"/><path fill="url(#d)" d="M8 9a7 7 0 0 1 7-7h30a7 7 0 0 1 7 7v42a7 7 0 0 1-7 7H15a7 7 0 0 1-7-7V9Z"/><path fill="url(#e)" fill-opacity=".2" d="M8 9a7 7 0 0 1 7-7h30a7 7 0 0 1 7 7v42a7 7 0 0 1-7 7H15a7 7 0 0 1-7-7V9Z"/><path fill="url(#f)" fill-rule="evenodd" d="M45 3H15a6 6 0 0 0-6 6v42a6 6 0 0 0 6 6h30a6 6 0 0 0 6-6V9a6 6 0 0 0-6-6ZM15 2a7 7 0 0 0-7 7v42a7 7 0 0 0 7 7h30a7 7 0 0 0 7-7V9a7 7 0 0 0-7-7H15Z" clip-rule="evenodd"/><path fill="url(#g)" d="M16 14a2 2 0 0 0-2 2v8a2 2 0 0 0 2 2h8a2 2 0 0 0 2-2v-8a2 2 0 0 0-2-2h-8Z"/><path fill="url(#h)" d="M30.5 17a.5.5 0 0 0 0 1h15a.5.5 0 0 0 0-1h-15Z"/><path fill="url(#i)" d="M30.5 24a.5.5 0 0 0 0 1h15a.5.5 0 0 0 0-1h-15Z"/><path fill="url(#j)" d="M14 31.5a.5.5 0 0 1 .5-.5h31a.5.5 0 0 1 0 1h-31a.5.5 0 0 1-.5-.5Z"/><path fill="url(#k)" d="M14.5 38a.5.5 0 0 0 0 1h31a.5.5 0 0 0 0-1h-31Z"/><path fill="url(#l)" d="M14 45.5a.5.5 0 0 1 .5-.5h31a.5.5 0 0 1 0 1h-31a.5.5 0 0 1-.5-.5Z"/><defs><linearGradient id="a" x1="24.222" x2="33.153" y1="6" y2="62.135" gradientUnits="userSpaceOnUse"><stop stop-color="#fff"/><stop offset="1" stop-color="#EBEBEB"/></linearGradient><linearGradient id="c" x1="26.208" x2="35.702" y1="6" y2="61.944" gradientUnits="userSpaceOnUse"><stop stop-color="#BBB"/><stop offset="1" stop-color="#888"/></linearGradient><linearGradient id="d" x1="20.222" x2="29.153" y1="2" y2="58.135" gradientUnits="userSpaceOnUse"><stop stop-color="#fff"/><stop offset="1" stop-color="#EBEBEB"/></linearGradient><linearGradient id="f" x1="22.208" x2="31.702" y1="2" y2="57.944" gradientUnits="userSpaceOnUse"><stop stop-color="#BBB"/><stop offset="1" stop-color="#888"/></linearGradient><linearGradient id="g" x1="14" x2="46" y1="14" y2="46" gradientUnits="userSpaceOnUse"><stop stop-color="#C28400"/><stop offset="1" stop-color="#A86500"/></linearGradient><linearGradient id="h" x1="14" x2="46" y1="14" y2="46" gradientUnits="userSpaceOnUse"><stop stop-color="#C28400"/><stop offset="1" stop-color="#A86500"/></linearGradient><linearGradient id="i" x1="14" x2="46" y1="14" y2="46" gradientUnits="userSpaceOnUse"><stop stop-color="#C28400"/><stop offset="1" stop-color="#A86500"/></linearGradient><linearGradient id="j" x1="14" x2="46" y1="14" y2="46" gradientUnits="userSpaceOnUse"><stop stop-color="#C28400"/><stop offset="1" stop-color="#A86500"/></linearGradient><linearGradient id="k" x1="14" x2="46" y1="14" y2="46" gradientUnits="userSpaceOnUse"><stop stop-color="#C28400"/><stop offset="1" stop-color="#A86500"/></linearGradient><linearGradient id="l" x1="14" x2="46" y1="14" y2="46" gradientUnits="userSpaceOnUse"><stop stop-color="#C28400"/><stop offset="1" stop-color="#A86500"/></linearGradient><radialGradient id="b" cx="0" cy="0" r="1" gradientTransform="matrix(23.22222 44.33329 -34.16705 17.89704 26.056 20.583)" gradientUnits="userSpaceOnUse"><stop offset=".177" stop-color="#fff"/><stop offset="1" stop-color="#B8B8B8"/></radialGradient><radialGradient id="e" cx="0" cy="0" r="1" gradientTransform="matrix(23.22222 44.33329 -34.16705 17.89704 22.056 16.583)" gradientUnits="userSpaceOnUse"><stop offset=".177" stop-color="#fff"/><stop offset="1" stop-color="#B8B8B8"/></radialGradient></defs></svg>
