<svg xmlns="http://www.w3.org/2000/svg" width="64" height="64" fill="currentColor"><path fill="url(#icon-fee2b0a1c7454a94__icon-918eeca38ce08216__a)" d="M12 13a7 7 0 0 1 7-7h30a7 7 0 0 1 7 7v38c0 6.075-4.925 11-11 11H19a7 7 0 0 1-7-7V13Z"/><path fill="url(#icon-018b743d3c45ed14__icon-22e0c53b627a9425__b)" fill-opacity=".2" d="M12 13a7 7 0 0 1 7-7h30a7 7 0 0 1 7 7v38c0 6.075-4.925 11-11 11H19a7 7 0 0 1-7-7V13Z"/><path fill="url(#icon-4c105e640f0c3b8c__icon-abf83b3d6ddfd85b__c)" fill-rule="evenodd" d="M49 7H19a6 6 0 0 0-6 6v42a6 6 0 0 0 6 6h26c5.523 0 10-4.477 10-10V13a6 6 0 0 0-6-6ZM19 6a7 7 0 0 0-7 7v42a7 7 0 0 0 7 7h26c6.075 0 11-4.925 11-11V13a7 7 0 0 0-7-7H19Z" clip-rule="evenodd"/><path fill="url(#icon-ea0af83a7ad3cde8__icon-b95f84b83ced1859__d)" d="M8 9a7 7 0 0 1 7-7h30a7 7 0 0 1 7 7v42a7 7 0 0 1-7 7H15a7 7 0 0 1-7-7V9Z"/><path fill="url(#icon-905d6ab7779e9cd1__icon-b17434ddc843ce52__e)" fill-opacity=".2" d="M8 9a7 7 0 0 1 7-7h30a7 7 0 0 1 7 7v42a7 7 0 0 1-7 7H15a7 7 0 0 1-7-7V9Z"/><path fill="url(#icon-312de4b3332d44d3__icon-56b635fe8d4879a8__f)" fill-rule="evenodd" d="M45 3H15a6 6 0 0 0-6 6v42a6 6 0 0 0 6 6h30a6 6 0 0 0 6-6V9a6 6 0 0 0-6-6ZM15 2a7 7 0 0 0-7 7v42a7 7 0 0 0 7 7h30a7 7 0 0 0 7-7V9a7 7 0 0 0-7-7H15Z" clip-rule="evenodd"/><path fill="url(#icon-20fc1ab21c23ee32__icon-3bfc8f45f6af747f__g)" d="M16 14a2 2 0 0 0-2 2v8a2 2 0 0 0 2 2h8a2 2 0 0 0 2-2v-8a2 2 0 0 0-2-2h-8Z"/><path fill="url(#icon-484edc00235e4938__icon-d7c2491dc645ab13__h)" d="M30.5 17a.5.5 0 0 0 0 1h15a.5.5 0 0 0 0-1h-15Z"/><path fill="url(#icon-52da285d2214ebfe__icon-340729cbb045b8c7__i)" d="M30.5 24a.5.5 0 0 0 0 1h15a.5.5 0 0 0 0-1h-15Z"/><path fill="url(#icon-47b8303297422288__icon-88f91d464da9dc30__j)" d="M14 31.5a.5.5 0 0 1 .5-.5h31a.5.5 0 0 1 0 1h-31a.5.5 0 0 1-.5-.5Z"/><path fill="url(#icon-77e3c9e512748400__icon-8bee3da24e434a7a__k)" d="M14.5 38a.5.5 0 0 0 0 1h31a.5.5 0 0 0 0-1h-31Z"/><path fill="url(#icon-2630512ba6eb5f72__icon-24c80fd79facbfe6__l)" d="M14 45.5a.5.5 0 0 1 .5-.5h31a.5.5 0 0 1 0 1h-31a.5.5 0 0 1-.5-.5Z"/><defs><linearGradient id="icon-fee2b0a1c7454a94__icon-918eeca38ce08216__a" x1="24.222" x2="33.153" y1="6" y2="62.135" gradientUnits="userSpaceOnUse"><stop stop-color="#fff"/><stop offset="1" stop-color="#EBEBEB"/></linearGradient><linearGradient id="icon-4c105e640f0c3b8c__icon-abf83b3d6ddfd85b__c" x1="26.208" x2="35.702" y1="6" y2="61.944" gradientUnits="userSpaceOnUse"><stop stop-color="#BBB"/><stop offset="1" stop-color="#888"/></linearGradient><linearGradient id="icon-ea0af83a7ad3cde8__icon-b95f84b83ced1859__d" x1="20.222" x2="29.153" y1="2" y2="58.135" gradientUnits="userSpaceOnUse"><stop stop-color="#fff"/><stop offset="1" stop-color="#EBEBEB"/></linearGradient><linearGradient id="icon-312de4b3332d44d3__icon-56b635fe8d4879a8__f" x1="22.208" x2="31.702" y1="2" y2="57.944" gradientUnits="userSpaceOnUse"><stop stop-color="#BBB"/><stop offset="1" stop-color="#888"/></linearGradient><linearGradient id="icon-20fc1ab21c23ee32__icon-3bfc8f45f6af747f__g" x1="14" x2="46" y1="14" y2="46" gradientUnits="userSpaceOnUse"><stop stop-color="#C28400"/><stop offset="1" stop-color="#A86500"/></linearGradient><linearGradient id="icon-484edc00235e4938__icon-d7c2491dc645ab13__h" x1="14" x2="46" y1="14" y2="46" gradientUnits="userSpaceOnUse"><stop stop-color="#C28400"/><stop offset="1" stop-color="#A86500"/></linearGradient><linearGradient id="icon-52da285d2214ebfe__icon-340729cbb045b8c7__i" x1="14" x2="46" y1="14" y2="46" gradientUnits="userSpaceOnUse"><stop stop-color="#C28400"/><stop offset="1" stop-color="#A86500"/></linearGradient><linearGradient id="icon-47b8303297422288__icon-88f91d464da9dc30__j" x1="14" x2="46" y1="14" y2="46" gradientUnits="userSpaceOnUse"><stop stop-color="#C28400"/><stop offset="1" stop-color="#A86500"/></linearGradient><linearGradient id="icon-77e3c9e512748400__icon-8bee3da24e434a7a__k" x1="14" x2="46" y1="14" y2="46" gradientUnits="userSpaceOnUse"><stop stop-color="#C28400"/><stop offset="1" stop-color="#A86500"/></linearGradient><linearGradient id="icon-2630512ba6eb5f72__icon-24c80fd79facbfe6__l" x1="14" x2="46" y1="14" y2="46" gradientUnits="userSpaceOnUse"><stop stop-color="#C28400"/><stop offset="1" stop-color="#A86500"/></linearGradient><radialGradient id="icon-018b743d3c45ed14__icon-22e0c53b627a9425__b" cx="0" cy="0" r="1" gradientTransform="matrix(23.22222 44.33329 -34.16705 17.89704 26.056 20.583)" gradientUnits="userSpaceOnUse"><stop offset=".177" stop-color="#fff"/><stop offset="1" stop-color="#B8B8B8"/></radialGradient><radialGradient id="icon-905d6ab7779e9cd1__icon-b17434ddc843ce52__e" cx="0" cy="0" r="1" gradientTransform="matrix(23.22222 44.33329 -34.16705 17.89704 22.056 16.583)" gradientUnits="userSpaceOnUse"><stop offset=".177" stop-color="#fff"/><stop offset="1" stop-color="#B8B8B8"/></radialGradient></defs></svg>
