<svg xmlns="http://www.w3.org/2000/svg" width="64" height="64" fill="currentColor"><path fill="url(#icon-b8fecfadaae542c9__icon-306ed17b63faf0ba__a)" d="M6 13a7 7 0 0 1 7-7h38a7 7 0 0 1 7 7v38a7 7 0 0 1-7 7H13a7 7 0 0 1-7-7V13Z"/><path fill="url(#icon-66413e8185a4f564__icon-a67eb36cbe0bde3d__b)" fill-opacity=".2" d="M6 13a7 7 0 0 1 7-7h38a7 7 0 0 1 7 7v38a7 7 0 0 1-7 7H13a7 7 0 0 1-7-7V13Z"/><path fill="url(#icon-33577217be2c2d1b__icon-be16db614b6e765c__c)" fill-rule="evenodd" d="M51 7H13a6 6 0 0 0-6 6v38a6 6 0 0 0 6 6h38a6 6 0 0 0 6-6V13a6 6 0 0 0-6-6ZM13 6a7 7 0 0 0-7 7v38a7 7 0 0 0 7 7h38a7 7 0 0 0 7-7V13a7 7 0 0 0-7-7H13Z" clip-rule="evenodd"/><path fill="url(#icon-11a2f42fbdf5b1f0__icon-b77229fa14c7bdf4__d)" d="M32 46c7.732 0 14-6.268 14-14s-6.268-14-14-14-14 6.268-14 14 6.268 14 14 14Z"/><path fill="#F5BCD8" fill-rule="evenodd" d="M31.646 23.188a8.405 8.405 0 0 0-7.074 12.944.75.75 0 0 1-1.262.812 9.866 9.866 0 0 1-1.569-5.352c0-5.47 4.435-9.905 9.905-9.905 1.218 0 2.387.22 3.467.624a.75.75 0 1 1-.525 1.405 8.385 8.385 0 0 0-2.942-.529Z" clip-rule="evenodd"/><path fill="#F5BCD8" d="M33.58 33.88c1.55-2.46 3.12-4.94 4.64-7.39l.63-.99c.65-.98-.83-2.06-1.59-1.18l-.21.18c-.16.14-.32.27-.48.41l-1.03.88c-.71.6-1.42 1.21-2.13 1.81-.91.77-1.82 1.55-2.73 2.32l-.59.5c-3.15 2.42 1.1 6.64 3.48 3.47l.01-.01Z"/><path fill="#F5F5F5" fill-rule="evenodd" d="M48.79 57.24a1.499 1.499 0 1 1-2.12-2.12l2.83-2.83c.15-.15.33-.27.53-.34l-2.39-2.39c-.43-.43-.56-1.07-.32-1.64.23-.56.78-.92 1.38-.92h10.79c.83 0 1.5.67 1.5 1.5v10.79c0 .42-.17.81-.47 1.09-.28.26-.65.41-1.03.41-.4 0-.77-.16-1.06-.44l-2.23-2.23c-.07.19-.19.38-.34.53l-2.83 2.83a1.499 1.499 0 0 1-2.15-2.09l-2.09 2.09a1.499 1.499 0 0 1-2.12 0c-.58-.58-.58-1.54 0-2.12" clip-rule="evenodd"/><path fill="url(#icon-b83e9f1a453926ea__icon-4b5ff3f08aa03486__e)" fill-rule="evenodd" d="M60 48.5c0-.28-.22-.5-.5-.5H48.71c-.45 0-.67.54-.35.85l10.79 10.79a.5.5 0 0 0 .85-.35V48.5Zm-9.08 5.21c.2-.2.2-.51 0-.71-.2-.2-.51-.2-.71 0l-2.83 2.83c-.2.2-.2.51 0 .71.2.2.51.2.71 0l2.83-2.83Zm2.12 1.41c.2.2.2.51 0 .71l-4.95 4.95c-.2.2-.51.2-.71 0-.2-.2-.2-.51 0-.71l4.95-4.95c.2-.2.51-.2.71 0Zm2.12 2.83c.2-.2.2-.51 0-.71-.2-.2-.51-.2-.71 0l-2.83 2.83c-.2.2-.2.51 0 .71.2.2.51.2.71 0l2.83-2.83Z" clip-rule="evenodd"/><defs><linearGradient id="icon-b8fecfadaae542c9__icon-306ed17b63faf0ba__a" x1="20.444" x2="27.022" y1="6" y2="58.622" gradientUnits="userSpaceOnUse"><stop stop-color="#fff"/><stop offset="1" stop-color="#EBEBEB"/></linearGradient><linearGradient id="icon-33577217be2c2d1b__icon-be16db614b6e765c__c" x1="22.792" x2="29.793" y1="6" y2="58.511" gradientUnits="userSpaceOnUse"><stop stop-color="#BBB"/><stop offset="1" stop-color="#888"/></linearGradient><linearGradient id="icon-11a2f42fbdf5b1f0__icon-b77229fa14c7bdf4__d" x1="18" x2="46" y1="18" y2="46" gradientUnits="userSpaceOnUse"><stop stop-color="#E03F8F"/><stop offset="1" stop-color="#BD1E7B"/></linearGradient><linearGradient id="icon-b83e9f1a453926ea__icon-4b5ff3f08aa03486__e" x1="47.23" x2="60.16" y1="48" y2="60.769" gradientUnits="userSpaceOnUse"><stop stop-color="#E03F8F"/><stop offset="1" stop-color="#BD1E7B"/></linearGradient><radialGradient id="icon-66413e8185a4f564__icon-a67eb36cbe0bde3d__b" cx="0" cy="0" r="1" gradientTransform="rotate(56.31 -6.951 30.895) scale(49.4762 42.8159)" gradientUnits="userSpaceOnUse"><stop offset=".177" stop-color="#fff"/><stop offset="1" stop-color="#B8B8B8"/></radialGradient></defs></svg>
