<svg xmlns="http://www.w3.org/2000/svg" width="65" height="64" fill="currentColor"><path fill="url(#a)" d="M6.5 13a7 7 0 0 1 7-7h38a7 7 0 0 1 7 7v38a7 7 0 0 1-7 7h-38a7 7 0 0 1-7-7V13Z"/><path fill="url(#b)" fill-opacity=".2" d="M6.5 13a7 7 0 0 1 7-7h38a7 7 0 0 1 7 7v38a7 7 0 0 1-7 7h-38a7 7 0 0 1-7-7V13Z"/><path fill="url(#c)" fill-rule="evenodd" d="M51.5 7h-38a6 6 0 0 0-6 6v38a6 6 0 0 0 6 6h38a6 6 0 0 0 6-6V13a6 6 0 0 0-6-6Zm-38-1a7 7 0 0 0-7 7v38a7 7 0 0 0 7 7h38a7 7 0 0 0 7-7V13a7 7 0 0 0-7-7h-38Z" clip-rule="evenodd"/><path fill="url(#d)" d="M25.5 22.75A2.75 2.75 0 0 1 28.25 20h8A2.75 2.75 0 0 1 39 22.75V23h2.25c.967 0 1.75.784 1.75 1.75v3A4.25 4.25 0 0 1 38.771 32 6.756 6.756 0 0 1 33 36.959V39h2.75A3.25 3.25 0 0 1 39 42.25v.5c0 .69-.56 1.25-1.25 1.25h-11c-.69 0-1.25-.56-1.25-1.25v-.5A3.25 3.25 0 0 1 28.75 39h2.75v-2.041a6.756 6.756 0 0 1-5.771-4.96A4.25 4.25 0 0 1 21.5 27.75v-3c0-.966.784-1.75 1.75-1.75h2.25v-.25Zm0 1.75h-2.25a.25.25 0 0 0-.25.25v3a2.75 2.75 0 0 0 2.504 2.74 6.785 6.785 0 0 1-.004-.24V24.5Zm13.496 5.99a2.75 2.75 0 0 0 2.504-2.74v-3a.25.25 0 0 0-.25-.25H39v5.75c0 .08-.001.16-.004.24Z"/><path fill="#F5F5F5" d="M60.278 44.222c-4.296-4.296-11.26-4.296-15.556 0-4.296 4.296-4.296 11.26 0 15.556 4.296 4.296 11.26 4.296 15.556 0 4.296-4.296 4.296-11.26 0-15.556Z"/><path fill="url(#e)" fill-rule="evenodd" d="M45.429 44.929c3.905-3.905 10.237-3.905 14.142 0 3.905 3.905 3.905 10.237 0 14.142-3.905 3.905-10.237 3.905-14.142 0-3.905-3.905-3.905-10.237 0-14.142Zm13.779 1.07-12.71 12.709a9 9 0 0 0 12.71-12.71Zm-13.072-.363a9 9 0 0 1 12.364-.344L45.792 58a9 9 0 0 1 .344-12.364Z" clip-rule="evenodd"/><defs><linearGradient id="a" x1="20.944" x2="27.522" y1="6" y2="58.622" gradientUnits="userSpaceOnUse"><stop stop-color="#fff"/><stop offset="1" stop-color="#EBEBEB"/></linearGradient><linearGradient id="c" x1="23.292" x2="30.293" y1="6" y2="58.511" gradientUnits="userSpaceOnUse"><stop stop-color="#BBB"/><stop offset="1" stop-color="#888"/></linearGradient><linearGradient id="d" x1="21.5" x2="45.355" y1="20" y2="41.371" gradientUnits="userSpaceOnUse"><stop stop-color="#C28400"/><stop offset="1" stop-color="#A86500"/></linearGradient><linearGradient id="e" x1="42.5" x2="62.5" y1="42" y2="62" gradientUnits="userSpaceOnUse"><stop stop-color="#C28400"/><stop offset="1" stop-color="#A86500"/></linearGradient><radialGradient id="b" cx="0" cy="0" r="1" gradientTransform="rotate(56.31 -6.701 31.363) scale(49.4762 42.8159)" gradientUnits="userSpaceOnUse"><stop offset=".177" stop-color="#fff"/><stop offset="1" stop-color="#B8B8B8"/></radialGradient></defs></svg>
