<svg xmlns="http://www.w3.org/2000/svg" width="65" height="64" fill="currentColor"><path fill="url(#i69c658-a)" d="M6.5 13a7 7 0 0 1 7-7h38a7 7 0 0 1 7 7v38a7 7 0 0 1-7 7h-38a7 7 0 0 1-7-7z"/><path fill="url(#i69c658-b)" fill-opacity=".2" d="M6.5 13a7 7 0 0 1 7-7h38a7 7 0 0 1 7 7v38a7 7 0 0 1-7 7h-38a7 7 0 0 1-7-7z"/><path fill="url(#i69c658-c)" fill-rule="evenodd" d="M51.5 7h-38a6 6 0 0 0-6 6v38a6 6 0 0 0 6 6h38a6 6 0 0 0 6-6V13a6 6 0 0 0-6-6m-38-1a7 7 0 0 0-7 7v38a7 7 0 0 0 7 7h38a7 7 0 0 0 7-7V13a7 7 0 0 0-7-7z" clip-rule="evenodd"/><path fill="url(#i69c658-d)" d="M25.5 22.75A2.75 2.75 0 0 1 28.25 20h8A2.75 2.75 0 0 1 39 22.75V23h2.25c.967 0 1.75.784 1.75 1.75v3A4.25 4.25 0 0 1 38.771 32 6.76 6.76 0 0 1 33 36.959V39h2.75A3.25 3.25 0 0 1 39 42.25v.5c0 .69-.56 1.25-1.25 1.25h-11c-.69 0-1.25-.56-1.25-1.25v-.5A3.25 3.25 0 0 1 28.75 39h2.75v-2.041a6.76 6.76 0 0 1-5.771-4.96A4.25 4.25 0 0 1 21.5 27.75v-3c0-.966.784-1.75 1.75-1.75h2.25zm0 1.75h-2.25a.25.25 0 0 0-.25.25v3a2.75 2.75 0 0 0 2.504 2.74 7 7 0 0 1-.004-.24zm13.496 5.99a2.75 2.75 0 0 0 2.504-2.74v-3a.25.25 0 0 0-.25-.25H39v5.75q0 .12-.004.24"/><path fill="#F5F5F5" d="M60.278 44.222c-4.296-4.296-11.26-4.296-15.556 0s-4.296 11.26 0 15.556 11.26 4.296 15.556 0 4.296-11.26 0-15.556"/><path fill="url(#i69c658-e)" fill-rule="evenodd" d="M45.429 44.929c3.905-3.905 10.237-3.905 14.142 0s3.905 10.237 0 14.142-10.237 3.905-14.142 0-3.905-10.237 0-14.142m13.779 1.07-12.71 12.709a9 9 0 0 0 12.71-12.71Zm-13.072-.363a9 9 0 0 1 12.364-.344L45.792 58a9 9 0 0 1 .344-12.364" clip-rule="evenodd"/><defs><linearGradient id="i69c658-a" x1="20.944" x2="27.522" y1="6" y2="58.622" gradientUnits="userSpaceOnUse"><stop stop-color="#fff"/><stop offset="1" stop-color="#EBEBEB"/></linearGradient><linearGradient id="i69c658-c" x1="23.292" x2="30.293" y1="6" y2="58.511" gradientUnits="userSpaceOnUse"><stop stop-color="#BBB"/><stop offset="1" stop-color="#888"/></linearGradient><linearGradient id="i69c658-d" x1="21.5" x2="45.355" y1="20" y2="41.371" gradientUnits="userSpaceOnUse"><stop stop-color="#C28400"/><stop offset="1" stop-color="#A86500"/></linearGradient><linearGradient id="i69c658-e" x1="42.5" x2="62.5" y1="42" y2="62" gradientUnits="userSpaceOnUse"><stop stop-color="#C28400"/><stop offset="1" stop-color="#A86500"/></linearGradient><radialGradient id="i69c658-b" cx="0" cy="0" r="1" gradientTransform="matrix(27.4444 41.16672 -35.62501 23.74995 23.112 19.542)" gradientUnits="userSpaceOnUse"><stop offset=".177" stop-color="#fff"/><stop offset="1" stop-color="#B8B8B8"/></radialGradient></defs></svg>
