<svg xmlns="http://www.w3.org/2000/svg" width="64" height="64" fill="currentColor"><path fill="url(#icon-8fb270a87508a89a__icon-5fb833cdf477f582__a)" d="M6 13a7 7 0 0 1 7-7h38a7 7 0 0 1 7 7v38a7 7 0 0 1-7 7H13a7 7 0 0 1-7-7V13Z"/><path fill="url(#icon-85bf10130f87d68f__icon-5f1159cc2977494a__b)" fill-opacity=".2" d="M6 13a7 7 0 0 1 7-7h38a7 7 0 0 1 7 7v38a7 7 0 0 1-7 7H13a7 7 0 0 1-7-7V13Z"/><path fill="url(#icon-6db85a98d814b74b__icon-b87c6eb896b6ce8a__c)" fill-rule="evenodd" d="M51 7H13a6 6 0 0 0-6 6v38a6 6 0 0 0 6 6h38a6 6 0 0 0 6-6V13a6 6 0 0 0-6-6ZM13 6a7 7 0 0 0-7 7v38a7 7 0 0 0 7 7h38a7 7 0 0 0 7-7V13a7 7 0 0 0-7-7H13Z" clip-rule="evenodd"/><path fill="url(#icon-c37ab6ed20cfc2f5__icon-1e0cc8278563c338__d)" d="M41 21a2 2 0 0 0-2-2H25a2 2 0 0 0-2 2v6a2 2 0 0 0 2 2h3.409l-4.978 7H21a2 2 0 0 0-2 2v5a2 2 0 0 0 2 2h6a2 2 0 0 0 2-2v-5a2 2 0 0 0-2-2h-1.115l4.978-7h2.274l4.978 7H37a2 2 0 0 0-2 2v5a2 2 0 0 0 2 2h6a2 2 0 0 0 2-2v-5a2 2 0 0 0-2-2h-2.431l-4.978-7H39a2 2 0 0 0 2-2v-6Z"/><defs><linearGradient id="icon-8fb270a87508a89a__icon-5fb833cdf477f582__a" x1="20.444" x2="27.022" y1="6" y2="58.622" gradientUnits="userSpaceOnUse"><stop stop-color="#fff"/><stop offset="1" stop-color="#EBEBEB"/></linearGradient><linearGradient id="icon-6db85a98d814b74b__icon-b87c6eb896b6ce8a__c" x1="22.792" x2="29.793" y1="6" y2="58.511" gradientUnits="userSpaceOnUse"><stop stop-color="#BBB"/><stop offset="1" stop-color="#888"/></linearGradient><linearGradient id="icon-c37ab6ed20cfc2f5__icon-1e0cc8278563c338__d" x1="19" x2="45" y1="19" y2="45" gradientUnits="userSpaceOnUse"><stop stop-color="#4BA446"/><stop offset="1" stop-color="#3F7D35"/></linearGradient><radialGradient id="icon-85bf10130f87d68f__icon-5f1159cc2977494a__b" cx="0" cy="0" r="1" gradientTransform="rotate(56.31 -6.951 30.895) scale(49.4762 42.8159)" gradientUnits="userSpaceOnUse"><stop offset=".177" stop-color="#fff"/><stop offset="1" stop-color="#B8B8B8"/></radialGradient></defs></svg>
