<svg xmlns="http://www.w3.org/2000/svg" width="64" height="64" fill="currentColor"><path fill="url(#a)" d="M6 13a7 7 0 0 1 7-7h38a7 7 0 0 1 7 7v38a7 7 0 0 1-7 7H13a7 7 0 0 1-7-7V13Z"/><path fill="url(#b)" fill-opacity=".2" d="M6 13a7 7 0 0 1 7-7h38a7 7 0 0 1 7 7v38a7 7 0 0 1-7 7H13a7 7 0 0 1-7-7V13Z"/><path fill="url(#c)" fill-rule="evenodd" d="M51 7H13a6 6 0 0 0-6 6v38a6 6 0 0 0 6 6h38a6 6 0 0 0 6-6V13a6 6 0 0 0-6-6ZM13 6a7 7 0 0 0-7 7v38a7 7 0 0 0 7 7h38a7 7 0 0 0 7-7V13a7 7 0 0 0-7-7H13Z" clip-rule="evenodd"/><path fill="url(#d)" d="M25 22.75A2.75 2.75 0 0 1 27.75 20h8a2.75 2.75 0 0 1 2.75 2.75V23h2.25c.967 0 1.75.784 1.75 1.75v3A4.25 4.25 0 0 1 38.271 32a6.756 6.756 0 0 1-5.771 4.959V39h2.75a3.25 3.25 0 0 1 3.25 3.25v.5c0 .69-.56 1.25-1.25 1.25h-11c-.69 0-1.25-.56-1.25-1.25v-.5A3.25 3.25 0 0 1 28.25 39H31v-2.041a6.756 6.756 0 0 1-5.771-4.96A4.25 4.25 0 0 1 21 27.75v-3c0-.966.784-1.75 1.75-1.75H25v-.25Zm0 1.75h-2.25a.25.25 0 0 0-.25.25v3a2.75 2.75 0 0 0 2.504 2.74 6.785 6.785 0 0 1-.004-.24V24.5Zm13.496 5.99A2.75 2.75 0 0 0 41 27.75v-3a.25.25 0 0 0-.25-.25H38.5v5.75c0 .08-.001.16-.004.24Z"/><defs><linearGradient id="a" x1="20.444" x2="27.022" y1="6" y2="58.622" gradientUnits="userSpaceOnUse"><stop stop-color="#fff"/><stop offset="1" stop-color="#EBEBEB"/></linearGradient><linearGradient id="c" x1="22.792" x2="29.793" y1="6" y2="58.511" gradientUnits="userSpaceOnUse"><stop stop-color="#BBB"/><stop offset="1" stop-color="#888"/></linearGradient><linearGradient id="d" x1="21" x2="44.855" y1="20" y2="41.371" gradientUnits="userSpaceOnUse"><stop stop-color="#C28400"/><stop offset="1" stop-color="#A86500"/></linearGradient><radialGradient id="b" cx="0" cy="0" r="1" gradientTransform="rotate(56.31 -6.951 30.895) scale(49.4762 42.8159)" gradientUnits="userSpaceOnUse"><stop offset=".177" stop-color="#fff"/><stop offset="1" stop-color="#B8B8B8"/></radialGradient></defs></svg>
