<svg xmlns="http://www.w3.org/2000/svg" width="64" height="64" fill="currentColor"><path fill="url(#a)" d="M6 13a7 7 0 0 1 7-7h38a7 7 0 0 1 7 7v38a7 7 0 0 1-7 7H13a7 7 0 0 1-7-7V13Z"/><path fill="url(#b)" fill-opacity=".2" d="M6 13a7 7 0 0 1 7-7h38a7 7 0 0 1 7 7v38a7 7 0 0 1-7 7H13a7 7 0 0 1-7-7V13Z"/><path fill="url(#c)" fill-rule="evenodd" d="M51 7H13a6 6 0 0 0-6 6v38a6 6 0 0 0 6 6h38a6 6 0 0 0 6-6V13a6 6 0 0 0-6-6ZM13 6a7 7 0 0 0-7 7v38a7 7 0 0 0 7 7h38a7 7 0 0 0 7-7V13a7 7 0 0 0-7-7H13Z" clip-rule="evenodd"/><path fill="url(#d)" fill-rule="evenodd" d="M34.376 20.274a5 5 0 0 0-4.752 0l-8.074 4.36a2 2 0 0 0-1.05 1.76v9.524a4 4 0 0 0 2.085 3.512l8.806 4.803c.201.11.42.117.61.05a.74.74 0 0 0 .608-.05l8.806-4.803a4 4 0 0 0 2.085-3.512v-9.524a2 2 0 0 0-1.05-1.76l-8.074-4.36Zm-2.876 14.3v-.038a3 3 0 0 0-1.563-2.596L21.5 27.338v8.58a3 3 0 0 0 1.564 2.634l8.436 4.602v-8.58Zm1 0v8.58l8.437-4.602a3 3 0 0 0 1.563-2.634v-8.58l-8.437 4.602a3 3 0 0 0-1.563 2.596v.038Zm9.924-8.563a4.818 4.818 0 0 0-.185-.29 1 1 0 0 1 .185.29Z" clip-rule="evenodd"/><defs><linearGradient id="a" x1="20.444" x2="27.022" y1="6" y2="58.622" gradientUnits="userSpaceOnUse"><stop stop-color="#fff"/><stop offset="1" stop-color="#EBEBEB"/></linearGradient><linearGradient id="c" x1="22.792" x2="29.793" y1="6" y2="58.511" gradientUnits="userSpaceOnUse"><stop stop-color="#BBB"/><stop offset="1" stop-color="#888"/></linearGradient><linearGradient id="d" x1="20.5" x2="45.093" y1="19.674" y2="42.619" gradientUnits="userSpaceOnUse"><stop stop-color="#4BA446"/><stop offset="1" stop-color="#3F7D35"/></linearGradient><radialGradient id="b" cx="0" cy="0" r="1" gradientTransform="rotate(56.31 -6.951 30.895) scale(49.4762 42.8159)" gradientUnits="userSpaceOnUse"><stop offset=".177" stop-color="#fff"/><stop offset="1" stop-color="#B8B8B8"/></radialGradient></defs></svg>
