<svg xmlns="http://www.w3.org/2000/svg" width="64" height="64" fill="currentColor"><path fill="url(#i68f2ee-a)" d="M6 13a7 7 0 0 1 7-7h38a7 7 0 0 1 7 7v38a7 7 0 0 1-7 7H13a7 7 0 0 1-7-7z"/><path fill="url(#i68f2ee-b)" fill-opacity=".2" d="M6 13a7 7 0 0 1 7-7h38a7 7 0 0 1 7 7v38a7 7 0 0 1-7 7H13a7 7 0 0 1-7-7z"/><path fill="url(#i68f2ee-c)" fill-rule="evenodd" d="M51 7H13a6 6 0 0 0-6 6v38a6 6 0 0 0 6 6h38a6 6 0 0 0 6-6V13a6 6 0 0 0-6-6M13 6a7 7 0 0 0-7 7v38a7 7 0 0 0 7 7h38a7 7 0 0 0 7-7V13a7 7 0 0 0-7-7z" clip-rule="evenodd"/><path fill="url(#i68f2ee-d)" d="M18 28a3 3 0 1 0 0-6 3 3 0 0 0 0 6"/><path fill="url(#i68f2ee-e)" d="M32 28a3 3 0 1 0 0-6 3 3 0 0 0 0 6"/><path fill="url(#i68f2ee-f)" d="M34.873 39a3 3 0 1 1-6 0 3 3 0 0 1 6 0"/><path fill="url(#i68f2ee-g)" d="M18 42a3 3 0 1 0 0-6 3 3 0 0 0 0 6"/><path fill="url(#i68f2ee-h)" d="M49 25a3 3 0 1 1-6 0 3 3 0 0 1 6 0"/><path fill="url(#i68f2ee-i)" d="M55 46a4 4 0 1 0 0 8 4 4 0 0 0 0-8m-4.991 9A2 2 0 0 0 48 57c0 1.691.833 2.966 2.135 3.797C51.417 61.614 53.145 62 55 62s3.583-.386 4.865-1.203C61.167 59.967 62 58.69 62 57a2 2 0 0 0-2-2z"/><path fill="#F5F5F5" fill-rule="evenodd" d="M50 50a5 5 0 1 1 8 4h2a3 3 0 0 1 3 3c0 2.074-1.044 3.65-2.597 4.64C58.909 62.592 56.974 63 55 63s-3.91-.408-5.403-1.36C48.044 60.65 47 59.074 47 57c0-1.673 1.359-3 3.009-3h1.99A5 5 0 0 1 50 50m1 0a4 4 0 1 1 8 0 4 4 0 0 1-8 0m-3 7c0-1.113.903-2 2.009-2H60a2 2 0 0 1 2 2c0 1.691-.833 2.966-2.135 3.797C58.583 61.614 56.855 62 55 62s-3.583-.386-4.865-1.203C48.833 59.967 48 58.69 48 57" clip-rule="evenodd"/><defs><linearGradient id="i68f2ee-a" x1="20.444" x2="27.022" y1="6" y2="58.622" gradientUnits="userSpaceOnUse"><stop stop-color="#fff"/><stop offset="1" stop-color="#EBEBEB"/></linearGradient><linearGradient id="i68f2ee-c" x1="22.792" x2="29.793" y1="6" y2="58.511" gradientUnits="userSpaceOnUse"><stop stop-color="#BBB"/><stop offset="1" stop-color="#888"/></linearGradient><linearGradient id="i68f2ee-d" x1="15" x2="32.481" y1="22" y2="51.717" gradientUnits="userSpaceOnUse"><stop stop-color="#7751B8"/><stop offset="1" stop-color="#5A409C"/></linearGradient><linearGradient id="i68f2ee-e" x1="15" x2="32.481" y1="22" y2="51.717" gradientUnits="userSpaceOnUse"><stop stop-color="#7751B8"/><stop offset="1" stop-color="#5A409C"/></linearGradient><linearGradient id="i68f2ee-f" x1="15" x2="32.481" y1="22" y2="51.717" gradientUnits="userSpaceOnUse"><stop stop-color="#7751B8"/><stop offset="1" stop-color="#5A409C"/></linearGradient><linearGradient id="i68f2ee-g" x1="15" x2="32.481" y1="22" y2="51.717" gradientUnits="userSpaceOnUse"><stop stop-color="#7751B8"/><stop offset="1" stop-color="#5A409C"/></linearGradient><linearGradient id="i68f2ee-h" x1="15" x2="32.481" y1="22" y2="51.717" gradientUnits="userSpaceOnUse"><stop stop-color="#7751B8"/><stop offset="1" stop-color="#5A409C"/></linearGradient><linearGradient id="i68f2ee-i" x1="48" x2="63.858" y1="46" y2="59.876" gradientUnits="userSpaceOnUse"><stop stop-color="#7751B8"/><stop offset="1" stop-color="#5A409C"/></linearGradient><radialGradient id="i68f2ee-b" cx="0" cy="0" r="1" gradientTransform="matrix(27.4444 41.16672 -35.62501 23.74995 22.61 19.541)" gradientUnits="userSpaceOnUse"><stop offset=".177" stop-color="#fff"/><stop offset="1" stop-color="#B8B8B8"/></radialGradient></defs></svg>
