<svg xmlns="http://www.w3.org/2000/svg" width="64" height="64" fill="currentColor"><path fill="url(#a)" d="M6 13a7 7 0 0 1 7-7h38a7 7 0 0 1 7 7v38a7 7 0 0 1-7 7H13a7 7 0 0 1-7-7V13Z"/><path fill="url(#b)" fill-opacity=".2" d="M6 13a7 7 0 0 1 7-7h38a7 7 0 0 1 7 7v38a7 7 0 0 1-7 7H13a7 7 0 0 1-7-7V13Z"/><path fill="url(#c)" fill-rule="evenodd" d="M51 7H13a6 6 0 0 0-6 6v38a6 6 0 0 0 6 6h38a6 6 0 0 0 6-6V13a6 6 0 0 0-6-6ZM13 6a7 7 0 0 0-7 7v38a7 7 0 0 0 7 7h38a7 7 0 0 0 7-7V13a7 7 0 0 0-7-7H13Z" clip-rule="evenodd"/><path fill="url(#d)" d="M18 28a3 3 0 1 0 0-6 3 3 0 0 0 0 6Z"/><path fill="url(#e)" d="M32 28a3 3 0 1 0 0-6 3 3 0 0 0 0 6Z"/><path fill="url(#f)" d="M34.873 39a3 3 0 1 1-6 0 3 3 0 0 1 6 0Z"/><path fill="url(#g)" d="M18 42a3 3 0 1 0 0-6 3 3 0 0 0 0 6Z"/><path fill="url(#h)" d="M49 25a3 3 0 1 1-6 0 3 3 0 0 1 6 0Z"/><path fill="url(#i)" d="M55 46a4 4 0 1 0 0 8 4 4 0 0 0 0-8Zm-4.991 9A2.001 2.001 0 0 0 48 57c0 1.691.833 2.966 2.135 3.797C51.417 61.614 53.145 62 55 62c1.855 0 3.583-.386 4.865-1.203C61.167 59.967 62 58.69 62 57a2 2 0 0 0-2-2h-9.991Z"/><path fill="#F5F5F5" fill-rule="evenodd" d="M50 50a5 5 0 1 1 8 4h2a3 3 0 0 1 3 3c0 2.074-1.044 3.65-2.597 4.64C58.909 62.592 56.974 63 55 63c-1.974 0-3.91-.408-5.403-1.36C48.044 60.65 47 59.074 47 57c0-1.673 1.359-3 3.009-3h1.99A4.992 4.992 0 0 1 50 50Zm1 0a4 4 0 1 1 8 0 4 4 0 0 1-8 0Zm-3 7c0-1.113.903-2 2.009-2H60a2 2 0 0 1 2 2c0 1.691-.833 2.966-2.135 3.797C58.583 61.614 56.855 62 55 62c-1.855 0-3.583-.386-4.865-1.203C48.833 59.967 48 58.69 48 57Z" clip-rule="evenodd"/><defs><linearGradient id="a" x1="20.444" x2="27.022" y1="6" y2="58.622" gradientUnits="userSpaceOnUse"><stop stop-color="#fff"/><stop offset="1" stop-color="#EBEBEB"/></linearGradient><linearGradient id="c" x1="22.792" x2="29.793" y1="6" y2="58.511" gradientUnits="userSpaceOnUse"><stop stop-color="#BBB"/><stop offset="1" stop-color="#888"/></linearGradient><linearGradient id="d" x1="15" x2="32.481" y1="22" y2="51.717" gradientUnits="userSpaceOnUse"><stop stop-color="#7751B8"/><stop offset="1" stop-color="#5A409C"/></linearGradient><linearGradient id="e" x1="15" x2="32.481" y1="22" y2="51.717" gradientUnits="userSpaceOnUse"><stop stop-color="#7751B8"/><stop offset="1" stop-color="#5A409C"/></linearGradient><linearGradient id="f" x1="15" x2="32.481" y1="22" y2="51.717" gradientUnits="userSpaceOnUse"><stop stop-color="#7751B8"/><stop offset="1" stop-color="#5A409C"/></linearGradient><linearGradient id="g" x1="15" x2="32.481" y1="22" y2="51.717" gradientUnits="userSpaceOnUse"><stop stop-color="#7751B8"/><stop offset="1" stop-color="#5A409C"/></linearGradient><linearGradient id="h" x1="15" x2="32.481" y1="22" y2="51.717" gradientUnits="userSpaceOnUse"><stop stop-color="#7751B8"/><stop offset="1" stop-color="#5A409C"/></linearGradient><linearGradient id="i" x1="48" x2="63.858" y1="46" y2="59.876" gradientUnits="userSpaceOnUse"><stop stop-color="#7751B8"/><stop offset="1" stop-color="#5A409C"/></linearGradient><radialGradient id="b" cx="0" cy="0" r="1" gradientTransform="rotate(56.31 -6.951 30.895) scale(49.4762 42.8159)" gradientUnits="userSpaceOnUse"><stop offset=".177" stop-color="#fff"/><stop offset="1" stop-color="#B8B8B8"/></radialGradient></defs></svg>
