<svg xmlns="http://www.w3.org/2000/svg" width="64" height="64" fill="currentColor"><path fill="url(#icon-c7626f9a647f2236__icon-83e82ba09aff922e__a)" d="M6 13a7 7 0 0 1 7-7h38a7 7 0 0 1 7 7v38a7 7 0 0 1-7 7H13a7 7 0 0 1-7-7V13Z"/><path fill="url(#icon-ddf359951222ebbe__icon-f53e0013f5b84a1c__b)" fill-opacity=".2" d="M6 13a7 7 0 0 1 7-7h38a7 7 0 0 1 7 7v38a7 7 0 0 1-7 7H13a7 7 0 0 1-7-7V13Z"/><path fill="url(#icon-e6778f1ea8d2e4cb__icon-f35fc61972b1b8af__c)" fill-rule="evenodd" d="M51 7H13a6 6 0 0 0-6 6v38a6 6 0 0 0 6 6h38a6 6 0 0 0 6-6V13a6 6 0 0 0-6-6ZM13 6a7 7 0 0 0-7 7v38a7 7 0 0 0 7 7h38a7 7 0 0 0 7-7V13a7 7 0 0 0-7-7H13Z" clip-rule="evenodd"/><path fill="url(#icon-d2787ef251d20560__icon-dc23801ac633a223__d)" d="M32.005 18a.75.75 0 0 1 .75.75V30.7l10.35-5.975a.75.75 0 0 1 .75 1.3L33.504 32l10.35 5.976a.75.75 0 1 1-.75 1.299l-10.35-5.976V45.25a.75.75 0 0 1-1.5 0V33.299l-10.35 5.975a.75.75 0 0 1-.75-1.299L30.505 32l-10.35-5.975a.75.75 0 1 1 .75-1.3l10.35 5.976V18.75a.75.75 0 0 1 .75-.75Z"/><defs><linearGradient id="icon-c7626f9a647f2236__icon-83e82ba09aff922e__a" x1="20.444" x2="27.022" y1="6" y2="58.622" gradientUnits="userSpaceOnUse"><stop stop-color="#fff"/><stop offset="1" stop-color="#EBEBEB"/></linearGradient><linearGradient id="icon-e6778f1ea8d2e4cb__icon-f35fc61972b1b8af__c" x1="22.792" x2="29.793" y1="6" y2="58.511" gradientUnits="userSpaceOnUse"><stop stop-color="#BBB"/><stop offset="1" stop-color="#888"/></linearGradient><linearGradient id="icon-d2787ef251d20560__icon-dc23801ac633a223__d" x1="19.779" x2="47.524" y1="18" y2="42.228" gradientUnits="userSpaceOnUse"><stop stop-color="#4BA446"/><stop offset="1" stop-color="#3F7D35"/></linearGradient><radialGradient id="icon-ddf359951222ebbe__icon-f53e0013f5b84a1c__b" cx="0" cy="0" r="1" gradientTransform="rotate(56.31 -6.951 30.895) scale(49.4762 42.8159)" gradientUnits="userSpaceOnUse"><stop offset=".177" stop-color="#fff"/><stop offset="1" stop-color="#B8B8B8"/></radialGradient></defs></svg>
