<svg xmlns="http://www.w3.org/2000/svg" width="64" height="64" fill="currentColor"><path fill="url(#a)" d="M10 11a7 7 0 0 1 7-7h30a7 7 0 0 1 7 7v42a7 7 0 0 1-7 7H17a7 7 0 0 1-7-7V11Z"/><path fill="url(#b)" fill-opacity=".2" d="M10 11a7 7 0 0 1 7-7h30a7 7 0 0 1 7 7v42a7 7 0 0 1-7 7H17a7 7 0 0 1-7-7V11Z"/><path fill="url(#c)" fill-rule="evenodd" d="M47 5H17a6 6 0 0 0-6 6v42a6 6 0 0 0 6 6h30a6 6 0 0 0 6-6V11a6 6 0 0 0-6-6ZM17 4a7 7 0 0 0-7 7v42a7 7 0 0 0 7 7h30a7 7 0 0 0 7-7V11a7 7 0 0 0-7-7H17Z" clip-rule="evenodd"/><path fill="url(#d)" d="M30.9 46H43a2 2 0 0 0 2-2V30.888a2 2 0 0 0-.659-1.484l-10.999-9.942a2 2 0 0 0-2.682 0l-11.001 9.942A2 2 0 0 0 19 30.888V44a2 2 0 0 0 2 2h12.1"/><path fill="#B4CDF8" d="M26.5 33.5a1.5 1.5 0 1 1-3 0 1.5 1.5 0 0 1 3 0ZM33.5 33.5a1.5 1.5 0 1 1-3 0 1.5 1.5 0 0 1 3 0ZM39 35a1.5 1.5 0 1 0 0-3 1.5 1.5 0 0 0 0 3ZM33.5 39.5a1.5 1.5 0 1 1-3 0 1.5 1.5 0 0 1 3 0ZM25 41a1.5 1.5 0 1 0 0-3 1.5 1.5 0 0 0 0 3ZM40.5 39.5a1.5 1.5 0 1 1-3 0 1.5 1.5 0 0 1 3 0Z"/><defs><linearGradient id="a" x1="22.222" x2="31.153" y1="4" y2="60.135" gradientUnits="userSpaceOnUse"><stop stop-color="#fff"/><stop offset="1" stop-color="#EBEBEB"/></linearGradient><linearGradient id="c" x1="24.208" x2="33.702" y1="4" y2="59.944" gradientUnits="userSpaceOnUse"><stop stop-color="#BBB"/><stop offset="1" stop-color="#888"/></linearGradient><linearGradient id="d" x1="19" x2="46.691" y1="18.25" y2="44.195" gradientUnits="userSpaceOnUse"><stop stop-color="#3477EA"/><stop offset="1" stop-color="#1D53A4"/></linearGradient><radialGradient id="b" cx="0" cy="0" r="1" gradientTransform="matrix(23.22222 44.33329 -34.16705 17.89704 24.056 18.583)" gradientUnits="userSpaceOnUse"><stop offset=".177" stop-color="#fff"/><stop offset="1" stop-color="#B8B8B8"/></radialGradient></defs></svg>
