<svg xmlns="http://www.w3.org/2000/svg" width="64" height="64" fill="currentColor"><path fill="url(#i59d569-a)" d="M6 13a7 7 0 0 1 7-7h38a7 7 0 0 1 7 7v38a7 7 0 0 1-7 7H13a7 7 0 0 1-7-7z"/><path fill="url(#i59d569-b)" fill-opacity=".2" d="M6 13a7 7 0 0 1 7-7h38a7 7 0 0 1 7 7v38a7 7 0 0 1-7 7H13a7 7 0 0 1-7-7z"/><path fill="url(#i59d569-c)" fill-rule="evenodd" d="M51 7H13a6 6 0 0 0-6 6v38a6 6 0 0 0 6 6h38a6 6 0 0 0 6-6V13a6 6 0 0 0-6-6M13 6a7 7 0 0 0-7 7v38a7 7 0 0 0 7 7h38a7 7 0 0 0 7-7V13a7 7 0 0 0-7-7z" clip-rule="evenodd"/><path fill="url(#i59d569-d)" d="M26.75 27.93A4.001 4.001 0 0 0 26 20a4 4 0 0 0-.75 7.93v8.14A4.001 4.001 0 0 0 26 44a4 4 0 0 0 .75-7.93v-3.274H34a4.75 4.75 0 0 0 4.75-4.75v-.116a4.001 4.001 0 1 0-1.5 0v.116a3.25 3.25 0 0 1-3.25 3.25h-7.25z"/><path fill="#F5F5F5" d="M46.019 46.402a1.5 1.5 0 0 1 1.263-1.254A14 14 0 0 1 49.306 45c7.598 0 13.757 6.16 13.757 13.758 0 .613-.04 1.315-.121 1.934a1.5 1.5 0 0 1-1.467 1.305V62H49.17v-.001a3.25 3.25 0 0 1-3.168-3.098L46 58.898V46.405z"/><path fill="url(#i59d569-e)" d="M49.306 47q-.884 0-1.732.127a.5.5 0 1 1-.146-.99A13 13 0 0 1 49.306 46c7.045 0 12.757 5.712 12.757 12.758 0 .575-.038 1.233-.113 1.804a.5.5 0 1 1-.992-.13c.07-.522.105-1.137.105-1.674C61.063 52.264 55.799 47 49.305 47Z"/><path fill="url(#i59d569-f)" d="M47.568 50.581a10 10 0 0 1 1.252-.081 8.694 8.694 0 0 1 8.695 8.694c0 .39-.026.868-.074 1.242a.5.5 0 1 0 .992.128c.054-.425.082-.945.082-1.37 0-5.354-4.34-9.694-9.695-9.694-.447 0-.95.03-1.388.09a.5.5 0 0 0 .136.991"/><path fill="url(#i59d569-g)" d="M51.5 58.75a2.25 2.25 0 1 1-4.5 0 2.25 2.25 0 0 1 4.5 0"/><path fill="url(#i59d569-h)" d="M47.574 54.06a5.625 5.625 0 0 1 6.397 6.37.5.5 0 0 0 .99.14 6.625 6.625 0 0 0-7.533-7.499.5.5 0 1 0 .146.99Z"/><defs><linearGradient id="i59d569-a" x1="20.444" x2="27.022" y1="6" y2="58.622" gradientUnits="userSpaceOnUse"><stop stop-color="#fff"/><stop offset="1" stop-color="#EBEBEB"/></linearGradient><linearGradient id="i59d569-c" x1="22.792" x2="29.793" y1="6" y2="58.511" gradientUnits="userSpaceOnUse"><stop stop-color="#BBB"/><stop offset="1" stop-color="#888"/></linearGradient><linearGradient id="i59d569-d" x1="22" x2="45.607" y1="20" y2="39.672" gradientUnits="userSpaceOnUse"><stop stop-color="#7751B8"/><stop offset="1" stop-color="#5A409C"/></linearGradient><linearGradient id="i59d569-e" x1="47" x2="62" y1="46" y2="61.063" gradientUnits="userSpaceOnUse"><stop stop-color="#7751B8"/><stop offset="1" stop-color="#5A409C"/></linearGradient><linearGradient id="i59d569-f" x1="47" x2="62" y1="46" y2="61.063" gradientUnits="userSpaceOnUse"><stop stop-color="#7751B8"/><stop offset="1" stop-color="#5A409C"/></linearGradient><linearGradient id="i59d569-g" x1="47" x2="62" y1="46" y2="61.063" gradientUnits="userSpaceOnUse"><stop stop-color="#7751B8"/><stop offset="1" stop-color="#5A409C"/></linearGradient><linearGradient id="i59d569-h" x1="47" x2="62" y1="46" y2="61.063" gradientUnits="userSpaceOnUse"><stop stop-color="#7751B8"/><stop offset="1" stop-color="#5A409C"/></linearGradient><radialGradient id="i59d569-b" cx="0" cy="0" r="1" gradientTransform="matrix(27.4444 41.16672 -35.62501 23.74995 22.61 19.541)" gradientUnits="userSpaceOnUse"><stop offset=".177" stop-color="#fff"/><stop offset="1" stop-color="#B8B8B8"/></radialGradient></defs></svg>
