<svg xmlns="http://www.w3.org/2000/svg" width="64" height="64" fill="currentColor"><path fill="url(#ibc4c60-i23d998-a)" d="M6 13a7 7 0 0 1 7-7h38a7 7 0 0 1 7 7v38a7 7 0 0 1-7 7H13a7 7 0 0 1-7-7z"/><path fill="url(#ibc4c60-i23d998-b)" fill-opacity=".2" d="M6 13a7 7 0 0 1 7-7h38a7 7 0 0 1 7 7v38a7 7 0 0 1-7 7H13a7 7 0 0 1-7-7z"/><path fill="url(#ibc4c60-i23d998-c)" fill-rule="evenodd" d="M51 7H13a6 6 0 0 0-6 6v38a6 6 0 0 0 6 6h38a6 6 0 0 0 6-6V13a6 6 0 0 0-6-6M13 6a7 7 0 0 0-7 7v38a7 7 0 0 0 7 7h38a7 7 0 0 0 7-7V13a7 7 0 0 0-7-7z" clip-rule="evenodd"/><path fill="url(#ibc4c60-i23d998-d)" d="M32.04 20.148c-.374-.128-.77-.165-1.296-.09-.955.146-1.636.613-2.108 1.28-.477.675-.753 1.578-.835 2.6-.003.295-.062 1.48-.148 3.062H32.5a.5.5 0 0 1 0 1h-4.902c-.214 3.824-.532 9.122-.64 10.522l-.001.003-.009.106c-.08.965-.173 2.07-.498 3.082-.341 1.064-.95 2.06-2.093 2.725-.805.497-1.836.598-2.765.463-.93-.135-1.855-.52-2.446-1.11a.5.5 0 0 1 .708-.707c.394.394 1.095.713 1.881.827.785.114 1.559.01 2.1-.327l.014-.008c.875-.507 1.36-1.268 1.65-2.169.289-.9.373-1.905.456-2.904l.005-.058v-.002c.109-1.4.424-6.646.636-10.443H22.5a.5.5 0 1 1 0-1h4.152c.089-1.631.15-2.84.15-3.084v-.038c.09-1.149.403-2.249 1.018-3.118.623-.882 1.542-1.503 2.776-1.692h.005c.654-.093 1.214-.055 1.764.134.539.185 1.037.504 1.579.917a.5.5 0 1 1-.607.795c-.513-.39-.91-.633-1.297-.766"/><path fill="url(#ibc4c60-i23d998-e)" d="M43.852 31.145a.5.5 0 0 1 .003.707l-5.218 5.266a257 257 0 0 0 1.94 3.355q.184.3.315.527l.066.114c.105.178.183.306.261.412.128.175.26.3.531.439.443.082.641.005.767-.08.15-.1.257-.243.436-.48l.151-.199a.5.5 0 0 1 .792.61l-.103.137c-.184.248-.414.557-.716.761-.417.282-.924.357-1.592.218a.5.5 0 0 1-.117-.04c-.443-.216-.715-.446-.956-.775a6 6 0 0 1-.316-.496l-.07-.122c-.088-.15-.183-.312-.3-.5a244 244 0 0 1-1.819-3.144l-5.052 5.099a.5.5 0 0 1-.71-.704l5.246-5.295a262 262 0 0 0-1.988-3.437 6 6 0 0 0-.549-.893c-.21-.273-.426-.474-.641-.584-.215-.077-.405-.043-.616.085-.238.145-.471.394-.7.693a.5.5 0 0 1-.793-.61c.248-.323.573-.694.973-.937.42-.256.943-.38 1.517-.155l.038.016c.416.203.752.54 1.014.881.26.339.473.71.638 1.03a249 249 0 0 1 1.837 3.175l5.024-5.07a.5.5 0 0 1 .707-.004"/><defs><linearGradient id="ibc4c60-i23d998-a" x1="20.444" x2="27.022" y1="6" y2="58.622" gradientUnits="userSpaceOnUse"><stop stop-color="#fff"/><stop offset="1" stop-color="#EBEBEB"/></linearGradient><linearGradient id="ibc4c60-i23d998-c" x1="22.792" x2="29.793" y1="6" y2="58.511" gradientUnits="userSpaceOnUse"><stop stop-color="#BBB"/><stop offset="1" stop-color="#888"/></linearGradient><linearGradient id="ibc4c60-i23d998-d" x1="19" x2="44.919" y1="19.019" y2="44.002" gradientUnits="userSpaceOnUse"><stop stop-color="#4BA446"/><stop offset="1" stop-color="#3F7D35"/></linearGradient><linearGradient id="ibc4c60-i23d998-e" x1="19" x2="44.919" y1="19.019" y2="44.002" gradientUnits="userSpaceOnUse"><stop stop-color="#4BA446"/><stop offset="1" stop-color="#3F7D35"/></linearGradient><radialGradient id="ibc4c60-i23d998-b" cx="0" cy="0" r="1" gradientTransform="matrix(27.4444 41.16672 -35.62501 23.74995 22.61 19.541)" gradientUnits="userSpaceOnUse"><stop offset=".177" stop-color="#fff"/><stop offset="1" stop-color="#B8B8B8"/></radialGradient></defs></svg>
