<svg xmlns="http://www.w3.org/2000/svg" width="64" height="64" fill="none"><path fill="url(#i9fc5fa-i4476a4-paint0_linear_62447_421)" d="M6 13a7 7 0 0 1 7-7h38a7 7 0 0 1 7 7v38a7 7 0 0 1-7 7H13a7 7 0 0 1-7-7z"/><path fill="url(#i9fc5fa-i4476a4-paint1_radial_62447_421)" fill-opacity=".2" d="M6 13a7 7 0 0 1 7-7h38a7 7 0 0 1 7 7v38a7 7 0 0 1-7 7H13a7 7 0 0 1-7-7z"/><path fill="url(#i9fc5fa-i4476a4-paint2_linear_62447_421)" fill-rule="evenodd" d="M51 7H13a6 6 0 0 0-6 6v38a6 6 0 0 0 6 6h38a6 6 0 0 0 6-6V13a6 6 0 0 0-6-6M13 6a7 7 0 0 0-7 7v38a7 7 0 0 0 7 7h38a7 7 0 0 0 7-7V13a7 7 0 0 0-7-7z" clip-rule="evenodd"/><path fill="url(#i9fc5fa-i4476a4-paint3_linear_62447_421)" d="M17 19.25a3.75 3.75 0 0 1 3.75-3.75.75.75 0 0 1 0 1.5 2.25 2.25 0 0 0-2.25 2.25V30c0 .788-.331 1.498-.862 2 .53.501.862 1.212.862 2v10.75A2.25 2.25 0 0 0 20.75 47a.75.75 0 0 1 0 1.5A3.75 3.75 0 0 1 17 44.75V34a1.25 1.25 0 0 0-1.22-1.25h-.03a.75.75 0 0 1 0-1.5h.03A1.25 1.25 0 0 0 17 30z"/><path fill="url(#i9fc5fa-i4476a4-paint4_linear_62447_421)" d="M40.159 22.634a.76.76 0 0 0-.133-1.057.74.74 0 0 0-1.047.13L32 30.77l-6.978-9.062a.74.74 0 0 0-1.047-.131.76.76 0 0 0-.133 1.057L31.053 32l-7.21 9.366a.76.76 0 0 0 .132 1.057.74.74 0 0 0 1.047-.13l6.979-9.063 6.978 9.063a.74.74 0 0 0 1.048.13.76.76 0 0 0 .133-1.057L32.948 32z"/><path fill="url(#i9fc5fa-i4476a4-paint5_linear_62447_421)" d="M47 19.25a3.75 3.75 0 0 0-3.75-3.75.75.75 0 0 0 0 1.5 2.25 2.25 0 0 1 2.25 2.25V30c0 .788.331 1.498.862 2a2.74 2.74 0 0 0-.862 2v10.75A2.25 2.25 0 0 1 43.25 47a.75.75 0 0 0 0 1.5A3.75 3.75 0 0 0 47 44.75V34a1.25 1.25 0 0 1 1.22-1.25h.03a.75.75 0 0 0 0-1.5h-.03A1.25 1.25 0 0 1 47 30z"/><defs><linearGradient id="i9fc5fa-i4476a4-paint0_linear_62447_421" x1="20.444" x2="27.022" y1="6" y2="58.622" gradientUnits="userSpaceOnUse"><stop stop-color="#fff"/><stop offset="1" stop-color="#EBEBEB"/></linearGradient><radialGradient id="i9fc5fa-i4476a4-paint1_radial_62447_421" cx="0" cy="0" r="1" gradientTransform="matrix(27.4444 41.1667 -41.1667 15.4375 22.611 19.542)" gradientUnits="userSpaceOnUse"><stop offset=".177" stop-color="#fff"/><stop offset="1" stop-color="#B8B8B8"/></radialGradient><linearGradient id="i9fc5fa-i4476a4-paint2_linear_62447_421" x1="22.792" x2="29.793" y1="6" y2="58.511" gradientUnits="userSpaceOnUse"><stop stop-color="#BBB"/><stop offset="1" stop-color="#888"/></linearGradient><linearGradient id="i9fc5fa-i4476a4-paint3_linear_62447_421" x1="15" x2="47.985" y1="15.5" y2="49.485" gradientUnits="userSpaceOnUse"><stop stop-color="#4BA446"/><stop offset="1" stop-color="#3F7D35"/></linearGradient><linearGradient id="i9fc5fa-i4476a4-paint4_linear_62447_421" x1="15" x2="47.985" y1="15.5" y2="49.485" gradientUnits="userSpaceOnUse"><stop stop-color="#4BA446"/><stop offset="1" stop-color="#3F7D35"/></linearGradient><linearGradient id="i9fc5fa-i4476a4-paint5_linear_62447_421" x1="15" x2="47.985" y1="15.5" y2="49.485" gradientUnits="userSpaceOnUse"><stop stop-color="#4BA446"/><stop offset="1" stop-color="#3F7D35"/></linearGradient></defs></svg>
