<svg xmlns="http://www.w3.org/2000/svg" width="64" height="64" fill="currentColor"><path fill="url(#a)" d="M6 13a7 7 0 0 1 7-7h38a7 7 0 0 1 7 7v38a7 7 0 0 1-7 7H13a7 7 0 0 1-7-7V13Z"/><path fill="url(#b)" fill-opacity=".2" d="M6 13a7 7 0 0 1 7-7h38a7 7 0 0 1 7 7v38a7 7 0 0 1-7 7H13a7 7 0 0 1-7-7V13Z"/><path fill="url(#c)" fill-rule="evenodd" d="M51 7H13a6 6 0 0 0-6 6v38a6 6 0 0 0 6 6h38a6 6 0 0 0 6-6V13a6 6 0 0 0-6-6ZM13 6a7 7 0 0 0-7 7v38a7 7 0 0 0 7 7h38a7 7 0 0 0 7-7V13a7 7 0 0 0-7-7H13Z" clip-rule="evenodd"/><path fill="url(#d)" d="M22.553 15A5.553 5.553 0 0 0 17 20.553V28.5a3 3 0 0 1-3 3h-.552a.5.5 0 0 0 0 1h.5a3 3 0 0 1 3 3v7.947A5.553 5.553 0 0 0 22.501 49a.5.5 0 1 0 0-1 4.553 4.553 0 0 1-4.553-4.553V35.5c0-1.495-.82-2.8-2.036-3.486A4 4 0 0 0 18 28.5v-7.947A4.553 4.553 0 0 1 22.553 16a.5.5 0 0 0 0-1Z"/><path fill="url(#e)" d="M41.448 15A5.553 5.553 0 0 1 47 20.553V28.5a3 3 0 0 0 3 3h.552a.5.5 0 1 1 0 1h-.5a3 3 0 0 0-3 3v7.947A5.553 5.553 0 0 1 41.5 49a.5.5 0 0 1 0-1 4.553 4.553 0 0 0 4.553-4.553V35.5c0-1.495.82-2.8 2.036-3.486a4 4 0 0 1-2.088-3.514v-7.947A4.553 4.553 0 0 0 41.448 16a.5.5 0 1 1 0-1Z"/><path fill="url(#f)" d="M39.873 21.775c.218.17.257.487.089.705L32.632 32l7.33 9.52a.506.506 0 0 1-.088.705.494.494 0 0 1-.699-.087l-7.174-9.318-7.176 9.318a.494.494 0 0 1-.698.087.506.506 0 0 1-.088-.704l7.33-9.52-7.33-9.52a.506.506 0 0 1 .089-.706.494.494 0 0 1 .698.087L32 31.18l7.174-9.318a.494.494 0 0 1 .698-.087Z"/><defs><linearGradient id="a" x1="20.444" x2="27.022" y1="6" y2="58.622" gradientUnits="userSpaceOnUse"><stop stop-color="#fff"/><stop offset="1" stop-color="#EBEBEB"/></linearGradient><linearGradient id="c" x1="22.792" x2="29.793" y1="6" y2="58.511" gradientUnits="userSpaceOnUse"><stop stop-color="#BBB"/><stop offset="1" stop-color="#888"/></linearGradient><linearGradient id="d" x1="12.948" x2="46.729" y1="15" y2="52.858" gradientUnits="userSpaceOnUse"><stop stop-color="#4BA446"/><stop offset="1" stop-color="#3F7D35"/></linearGradient><linearGradient id="e" x1="12.948" x2="46.729" y1="15" y2="52.858" gradientUnits="userSpaceOnUse"><stop stop-color="#4BA446"/><stop offset="1" stop-color="#3F7D35"/></linearGradient><linearGradient id="f" x1="12.948" x2="46.729" y1="15" y2="52.858" gradientUnits="userSpaceOnUse"><stop stop-color="#4BA446"/><stop offset="1" stop-color="#3F7D35"/></linearGradient><radialGradient id="b" cx="0" cy="0" r="1" gradientTransform="rotate(56.31 -6.951 30.895) scale(49.4762 42.8159)" gradientUnits="userSpaceOnUse"><stop offset=".177" stop-color="#fff"/><stop offset="1" stop-color="#B8B8B8"/></radialGradient></defs></svg>
