<svg xmlns="http://www.w3.org/2000/svg" width="64" height="64" fill="currentColor" viewBox="0 0 64 64">
	<path fill="url(#a)" d="M6 13a7 7 0 0 1 7-7h38a7 7 0 0 1 7 7v38a7 7 0 0 1-7 7H13a7 7 0 0 1-7-7V13Z" />
	<path fill="url(#b)" fill-opacity=".2" d="M6 13a7 7 0 0 1 7-7h38a7 7 0 0 1 7 7v38a7 7 0 0 1-7 7H13a7 7 0 0 1-7-7V13Z" />
	<path fill="url(#c)" fill-rule="evenodd" d="M51 7H13a6 6 0 0 0-6 6v38a6 6 0 0 0 6 6h38a6 6 0 0 0 6-6V13a6 6 0 0 0-6-6ZM13 6a7 7 0 0 0-7 7v38a7 7 0 0 0 7 7h38a7 7 0 0 0 7-7V13a7 7 0 0 0-7-7H13Z" clip-rule="evenodd" />
	<path fill="url(#d)" d="M17 19.25a3.75 3.75 0 0 1 3.75-3.75.75.75 0 0 1 0 1.5 2.25 2.25 0 0 0-2.25 2.25V30c0 .788-.331 1.498-.862 2 .53.501.862 1.212.862 2v10.75A2.25 2.25 0 0 0 20.75 47a.75.75 0 0 1 0 1.5A3.75 3.75 0 0 1 17 44.75V34a1.25 1.25 0 0 0-1.22-1.25h-.03a.75.75 0 0 1 0-1.5h.03A1.25 1.25 0 0 0 17 30V19.25Z" />
	<path fill="url(#e)" d="M40.159 22.634a.759.759 0 0 0-.133-1.057.741.741 0 0 0-1.047.13L32 30.77l-6.978-9.062a.742.742 0 0 0-1.047-.131.759.759 0 0 0-.133 1.057L31.053 32l-7.21 9.366a.759.759 0 0 0 .132 1.057.742.742 0 0 0 1.047-.13l6.979-9.063 6.978 9.063a.742.742 0 0 0 1.048.13.759.759 0 0 0 .133-1.057L32.948 32l7.211-9.366Z" />
	<path fill="url(#f)" d="M47 19.25a3.75 3.75 0 0 0-3.75-3.75.75.75 0 0 0 0 1.5 2.25 2.25 0 0 1 2.25 2.25V30c0 .788.331 1.498.862 2a2.742 2.742 0 0 0-.862 2v10.75A2.25 2.25 0 0 1 43.25 47a.75.75 0 0 0 0 1.5A3.75 3.75 0 0 0 47 44.75V34c0-.681.544-1.235 1.22-1.25h.03a.75.75 0 0 0 0-1.5h-.03A1.25 1.25 0 0 1 47 30V19.25Z" />
	<defs>
		<linearGradient id="a" x1="20.444" x2="27.022" y1="6" y2="58.622" gradientUnits="userSpaceOnUse">
			<stop stop-color="#fff" />
			<stop offset="1" stop-color="#EBEBEB" />
		</linearGradient>
		<linearGradient id="c" x1="22.792" x2="29.793" y1="6" y2="58.511" gradientUnits="userSpaceOnUse">
			<stop stop-color="#BBB" />
			<stop offset="1" stop-color="#888" />
		</linearGradient>
		<linearGradient id="d" x1="15" x2="47.985" y1="15.5" y2="49.485" gradientUnits="userSpaceOnUse">
			<stop stop-color="#008EE6" />
			<stop offset="1" stop-color="#006094" />
		</linearGradient>
		<linearGradient id="e" x1="15" x2="47.985" y1="15.5" y2="49.485" gradientUnits="userSpaceOnUse">
			<stop stop-color="#008EE6" />
			<stop offset="1" stop-color="#006094" />
		</linearGradient>
		<linearGradient id="f" x1="15" x2="47.985" y1="15.5" y2="49.485" gradientUnits="userSpaceOnUse">
			<stop stop-color="#008EE6" />
			<stop offset="1" stop-color="#006094" />
		</linearGradient>
		<radialGradient id="b" cx="0" cy="0" r="1" gradientTransform="rotate(56.31 -6.951 30.895) scale(49.4762 42.8159)" gradientUnits="userSpaceOnUse">
			<stop offset=".177" stop-color="#fff" />
			<stop offset="1" stop-color="#B8B8B8" />
		</radialGradient>
	</defs>
</svg>

