<svg xmlns="http://www.w3.org/2000/svg" width="64" height="64" fill="currentColor"><path fill="url(#i0996ad-a)" fill-rule="evenodd" d="M12.5 14.5a7.5 7.5 0 1 1 15 0 7.5 7.5 0 0 1-15 0M20 8a6.5 6.5 0 1 0 0 13 6.5 6.5 0 0 0 0-13" clip-rule="evenodd"/><path fill="url(#i0996ad-b)" d="M38.48 25a8.6 8.6 0 0 0-1.003-1h16.022c2.486 0 4.5 2.148 4.5 4.798v.976c0 .565 0 3.824-1.784 6.99-1.617 2.871-4.548 5.402-9.542 6.066a6 6 0 0 0-.424-.954c4.872-.564 7.606-2.96 9.095-5.603 1.652-2.932 1.655-5.971 1.655-6.5v-.975C57 26.64 55.373 25 53.5 25z"/><path fill="url(#i0996ad-c)" d="M25.518 25q.46-.541 1.004-1H10.499C8.014 24 6 26.148 6 28.798v.976c0 .565 0 3.824 1.784 6.99 1.618 2.871 4.549 5.402 9.543 6.066a6 6 0 0 1 .424-.954c-4.872-.564-7.607-2.96-9.095-5.602C7.004 33.341 7 30.302 7 29.774v-.976C7 26.64 8.626 25 10.5 25h15.02Z"/><path fill="url(#i0996ad-d)" fill-rule="evenodd" d="M36.5 14.5a7.5 7.5 0 1 1 15 0 7.5 7.5 0 0 1-15 0M44 8a6.5 6.5 0 1 0 0 13 6.5 6.5 0 0 0 0-13" clip-rule="evenodd"/><path fill="url(#i0996ad-e)" fill-rule="evenodd" d="M24.5 30.5a7.5 7.5 0 1 1 15 0 7.5 7.5 0 0 1-15 0M32 24a6.5 6.5 0 1 0 0 13 6.5 6.5 0 0 0 0-13" clip-rule="evenodd"/><path fill="url(#i0996ad-f)" fill-rule="evenodd" d="M46 45.774c0 .565 0 3.824-1.785 6.99C42.328 56.114 38.653 59 32 59s-10.328-2.886-12.216-6.236C18 49.598 18 46.34 18 45.774v-.976C18 42.148 20.014 40 22.5 40h19c2.486 0 4.5 2.148 4.5 4.798zm-1 0v-.976C45 42.64 43.372 41 41.5 41h-19c-1.874 0-3.5 1.64-3.5 3.798v.976c0 .528.003 3.567 1.655 6.5C22.359 55.297 25.695 58 31.999 58c6.305 0 9.641-2.702 11.345-5.727 1.652-2.932 1.655-5.971 1.655-6.5Z" clip-rule="evenodd"/><defs><linearGradient id="i0996ad-a" x1="5.999" x2="57.999" y1="7" y2="59" gradientUnits="userSpaceOnUse"><stop stop-color="#209782"/><stop offset="1" stop-color="#0C695A"/></linearGradient><linearGradient id="i0996ad-b" x1="5.999" x2="57.999" y1="7" y2="59" gradientUnits="userSpaceOnUse"><stop stop-color="#209782"/><stop offset="1" stop-color="#0C695A"/></linearGradient><linearGradient id="i0996ad-c" x1="5.999" x2="57.999" y1="7" y2="59" gradientUnits="userSpaceOnUse"><stop stop-color="#209782"/><stop offset="1" stop-color="#0C695A"/></linearGradient><linearGradient id="i0996ad-d" x1="5.999" x2="57.999" y1="7" y2="59" gradientUnits="userSpaceOnUse"><stop stop-color="#209782"/><stop offset="1" stop-color="#0C695A"/></linearGradient><linearGradient id="i0996ad-e" x1="5.999" x2="57.999" y1="7" y2="59" gradientUnits="userSpaceOnUse"><stop stop-color="#209782"/><stop offset="1" stop-color="#0C695A"/></linearGradient><linearGradient id="i0996ad-f" x1="5.999" x2="57.999" y1="7" y2="59" gradientUnits="userSpaceOnUse"><stop stop-color="#209782"/><stop offset="1" stop-color="#0C695A"/></linearGradient></defs></svg>