<svg xmlns="http://www.w3.org/2000/svg" width="64" height="64" fill="currentColor"><path fill="url(#icon-cada992dd3af9914__icon-3155605f9a7b5961__a)" fill-rule="evenodd" d="M12.5 14.5a7.5 7.5 0 1 1 15 0 7.5 7.5 0 0 1-15 0ZM20 8a6.5 6.5 0 1 0 0 13 6.5 6.5 0 0 0 0-13Z" clip-rule="evenodd"/><path fill="url(#icon-953703126dcde943__icon-9ab4b7afc6be3c8f__b)" d="M38.48 25a8.546 8.546 0 0 0-1.003-1h16.022c2.486 0 4.5 2.148 4.5 4.798v.976c0 .565 0 3.824-1.784 6.99-1.617 2.871-4.548 5.402-9.542 6.066a5.96 5.96 0 0 0-.424-.954c4.872-.564 7.606-2.96 9.095-5.603 1.652-2.932 1.655-5.971 1.655-6.5v-.975C57 26.64 55.373 25 53.5 25H38.48Z"/><path fill="url(#icon-8d39aa371f18c324__icon-9a35acf5f0253cd5__c)" d="M25.518 25c.306-.36.642-.695 1.004-1H10.499C8.014 24 6 26.148 6 28.798v.976c0 .565 0 3.824 1.784 6.99 1.618 2.871 4.549 5.402 9.543 6.066a5.96 5.96 0 0 1 .424-.954c-4.872-.564-7.607-2.96-9.095-5.602-1.652-2.933-1.656-5.972-1.656-6.5v-.976C7 26.64 8.626 25 10.5 25h15.02Z"/><path fill="url(#icon-ad6cfb0dc569dab3__icon-13a807e602082c66__d)" fill-rule="evenodd" d="M36.5 14.5a7.5 7.5 0 1 1 15 0 7.5 7.5 0 0 1-15 0ZM44 8a6.5 6.5 0 1 0 0 13 6.5 6.5 0 0 0 0-13Z" clip-rule="evenodd"/><path fill="url(#icon-f7a593023576f9a3__icon-7e355245f301227f__e)" fill-rule="evenodd" d="M24.5 30.5a7.5 7.5 0 1 1 15 0 7.5 7.5 0 0 1-15 0ZM32 24a6.5 6.5 0 1 0 0 13 6.5 6.5 0 0 0 0-13Z" clip-rule="evenodd"/><path fill="url(#icon-4b24490cf1859ae0__icon-892489bdcbb8e813__f)" fill-rule="evenodd" d="M46 45.774c0 .565 0 3.824-1.785 6.99C42.328 56.114 38.653 59 32 59c-6.653 0-10.328-2.886-12.216-6.236C18 49.598 18 46.34 18 45.774v-.976C18 42.148 20.014 40 22.5 40h19c2.486 0 4.5 2.148 4.5 4.798v.976Zm-1 0v-.976C45 42.64 43.372 41 41.5 41h-19c-1.874 0-3.5 1.64-3.5 3.798v.976c0 .528.003 3.567 1.655 6.5C22.359 55.297 25.695 58 31.999 58c6.305 0 9.641-2.702 11.345-5.727 1.652-2.932 1.655-5.971 1.655-6.5Z" clip-rule="evenodd"/><defs><linearGradient id="icon-cada992dd3af9914__icon-3155605f9a7b5961__a" x1="5.999" x2="57.999" y1="7" y2="59" gradientUnits="userSpaceOnUse"><stop stop-color="#209782"/><stop offset="1" stop-color="#0C695A"/></linearGradient><linearGradient id="icon-953703126dcde943__icon-9ab4b7afc6be3c8f__b" x1="5.999" x2="57.999" y1="7" y2="59" gradientUnits="userSpaceOnUse"><stop stop-color="#209782"/><stop offset="1" stop-color="#0C695A"/></linearGradient><linearGradient id="icon-8d39aa371f18c324__icon-9a35acf5f0253cd5__c" x1="5.999" x2="57.999" y1="7" y2="59" gradientUnits="userSpaceOnUse"><stop stop-color="#209782"/><stop offset="1" stop-color="#0C695A"/></linearGradient><linearGradient id="icon-ad6cfb0dc569dab3__icon-13a807e602082c66__d" x1="5.999" x2="57.999" y1="7" y2="59" gradientUnits="userSpaceOnUse"><stop stop-color="#209782"/><stop offset="1" stop-color="#0C695A"/></linearGradient><linearGradient id="icon-f7a593023576f9a3__icon-7e355245f301227f__e" x1="5.999" x2="57.999" y1="7" y2="59" gradientUnits="userSpaceOnUse"><stop stop-color="#209782"/><stop offset="1" stop-color="#0C695A"/></linearGradient><linearGradient id="icon-4b24490cf1859ae0__icon-892489bdcbb8e813__f" x1="5.999" x2="57.999" y1="7" y2="59" gradientUnits="userSpaceOnUse"><stop stop-color="#209782"/><stop offset="1" stop-color="#0C695A"/></linearGradient></defs></svg>