<?xml version="1.0" encoding="UTF-8" standalone="no"?>
<svg
   width="48"
   height="48"
   viewBox="0 0 48 48"
   fill="none"
   version="1.1"
   id="svg1"
   sodipodi:docname="fabric_gear.svg"
   inkscape:version="1.3.2 (091e20e, 2023-11-25, custom)"
   xmlns:inkscape="http://www.inkscape.org/namespaces/inkscape"
   xmlns:sodipodi="http://sodipodi.sourceforge.net/DTD/sodipodi-0.dtd"
   xmlns="http://www.w3.org/2000/svg"
   xmlns:svg="http://www.w3.org/2000/svg">
  <defs
     id="defs1" />
  <sodipodi:namedview
     id="namedview1"
     pagecolor="#ffffff"
     bordercolor="#000000"
     borderopacity="0.25"
     inkscape:showpageshadow="2"
     inkscape:pageopacity="0.0"
     inkscape:pagecheckerboard="0"
     inkscape:deskcolor="#d1d1d1"
     inkscape:zoom="15.354167"
     inkscape:cx="36.993216"
     inkscape:cy="43.375848"
     inkscape:window-width="3072"
     inkscape:window-height="1774"
     inkscape:window-x="-12"
     inkscape:window-y="-12"
     inkscape:window-maximized="1"
     inkscape:current-layer="svg1" />
  <path
     fill-rule="evenodd"
     clip-rule="evenodd"
     d="M46.0803 0C45.9962 0 45.8515 0.0261277 45.8515 0.0261277L15.0038 4.585C11.6549 5.12487 8.94224 7.59626 8.06602 10.8115L0.192048 39.6764C0.144036 39.8203 0.228057 39.5324 0.192048 39.6764C0.084021 40.1682 0 40.6721 0 41.2C0 44.6791 2.62866 47.5344 6.0015 47.9063C6.94974 48.0383 8.03001 48.0383 9.23031 47.8583L14.7637 47.0905C16.156 46.8986 17.2963 45.8908 17.6684 44.5352L20.5251 33.9898L24.7742 33.3539L28.8672 32.7541C29.6714 32.6341 30.3316 32.0342 30.5356 31.2664L33.8365 19.1854L40.6061 18.1897V18.1657L42.5146 17.8777C43.2828 17.7698 43.907 17.2059 44.099 16.4741L47.928 2.42554C47.976 2.25758 48 2.08962 48 1.90966C48 0.853924 47.1485 0 46.0803 0ZM14.7877 43.7554C14.7277 43.9473 14.5716 44.1033 14.3676 44.1273L8.8222 44.8951H8.8102C7.84996 45.039 7.06977 45.027 6.44561 44.9431H6.3976L6.34959 44.9311C4.47712 44.7271 3.01275 43.1315 3.01275 41.2C3.01275 40.8161 3.07277 40.4562 3.16879 40.1202C3.79295 38.3327 4.69317 37.049 7.33383 36.1852C8.006 35.9693 8.7982 35.7773 9.72243 35.6094L17.2963 34.4816L14.7877 43.7554ZM28.1547 28.6329C27.946 29.4015 27.3011 29.973 26.5129 30.0878L22.4576 30.6786L7.29782 32.922C6.3976 33.09 5.62941 33.2699 4.95724 33.4859L6.48162 27.9073L6.49362 27.7993C6.52963 27.7033 6.57764 27.5234 6.64966 27.2954L6.48162 27.9073C7.15379 25.4839 7.81395 23.8403 11.0068 22.7965C11.6789 22.5806 12.4711 22.3886 13.3953 22.2207L30.5836 19.6893L28.1547 28.6329ZM41.3983 15.0344L38.1815 15.5143L10.9827 19.5333C10.0825 19.7013 9.30232 19.8812 8.64216 20.0972L10.5266 13.2589L10.9707 11.6153C11.5469 9.52779 13.2993 7.92018 15.4719 7.56027L44.6272 3.25333L41.4103 15.0344H41.3983Z"
     fill="black"
     id="path1" />
  <path
     d="m 40.499975,36.764539 a 3.7354349,3.7354247 0 1 0 3.735434,3.735424 3.7396691,3.7396591 0 0 0 -3.735434,-3.735424 z m 0,6.896168 a 3.1607523,3.1607439 0 1 1 3.160753,-3.160744 3.164328,3.1643199 0 0 1 -3.160753,3.160744 z m 7.442567,-1.378826 -1.128144,-1.503978 c 0.0054,-0.184287 0.0014,-0.421083 -0.0016,-0.553777 l 1.129268,-1.505627 a 0.28732459,0.28732383 0 0 0 0.04752,-0.247282 7.7182277,7.7182071 0 0 0 -0.758339,-1.832531 0.28737274,0.28737196 0 0 0 -0.208562,-0.141356 l -1.859582,-0.265557 c -0.125614,-0.137111 -0.257919,-0.269415 -0.394997,-0.394987 l -0.265503,-1.858768 a 0.28730235,0.28730158 0 0 0 -0.141217,-0.20849 7.7197741,7.7197533 0 0 0 -1.832075,-0.759566 0.28722619,0.28722543 0 0 0 -0.24739,0.04753 l -1.502684,1.12712 c -0.185763,-0.0082 -0.372856,-0.0082 -0.558618,0 l -1.502076,-1.126629 a 0.28732319,0.2873224 0 0 0 -0.247284,-0.04753 7.7172746,7.717254 0 0 0 -1.832607,0.758373 0.28733179,0.28733102 0 0 0 -0.141321,0.208525 l -0.265522,1.85954 c -0.137111,0.125605 -0.269416,0.257911 -0.395022,0.395021 l -1.858777,0.265455 a 0.28750849,0.28750772 0 0 0 -0.208491,0.14125 7.718954,7.7189332 0 0 0 -0.759567,1.83211 0.28736553,0.28736477 0 0 0 0.04752,0.247389 l 1.128144,1.503977 c -0.0054,0.184288 -0.0014,0.421084 0.0016,0.553776 l -1.129266,1.505624 a 0.28732676,0.28732599 0 0 0 -0.04752,0.247286 7.7182398,7.7182185 0 0 0 0.758339,1.83253 0.28736985,0.28736909 0 0 0 0.208561,0.141355 l 1.859577,0.265559 c 0.125609,0.13711 0.257915,0.269416 0.394992,0.394988 l 0.265488,1.858768 a 0.28730018,0.28729941 0 0 0 0.141214,0.20849 7.7198047,7.7197834 0 0 0 1.832082,0.759564 0.28724415,0.28724337 0 0 0 0.247389,-0.04753 l 1.502683,-1.127123 c 0.185762,0.0082 0.372856,0.0082 0.558619,0 l 1.502084,1.126632 a 0.28721039,0.28720963 0 0 0 0.247285,0.04753 7.7172457,7.7172251 0 0 0 1.832607,-0.758373 0.28733035,0.28732957 0 0 0 0.141322,-0.208525 l 0.265769,-1.861188 c 0.13399,-0.126624 0.298706,-0.296778 0.390428,-0.39271 l 1.863121,-0.266118 a 0.28750706,0.28750629 0 0 0 0.20849,-0.141249 7.7189166,7.718896 0 0 0 0.759567,-1.832112 0.2873641,0.28736334 0 0 0 -0.04752,-0.247388 z m -1.142139,1.671884 -1.821662,0.260192 a 0.28734973,0.28734898 0 0 0 -0.168645,0.08755 c -0.0034,0.0035 -0.330064,0.350372 -0.502076,0.50267 a 0.28747618,0.28747541 0 0 0 -0.09397,0.17454 l -0.260227,1.822253 a 7.1449163,7.1448969 0 0 1 -1.440949,0.596217 L 41.040846,46.29314 a 0.28688495,0.2868842 0 0 0 -0.189829,-0.05697 5.7993607,5.7993455 0 0 1 -0.701868,0 0.28730952,0.28730874 0 0 0 -0.189831,0.05697 l -1.47255,1.104536 a 7.1464659,7.1464467 0 0 1 -1.440494,-0.597303 l -0.260191,-1.821554 a 0.28730521,0.28730444 0 0 0 -0.09397,-0.174537 5.8026635,5.8026485 0 0 1 -0.496322,-0.496285 0.28729298,0.28729221 0 0 0 -0.174503,-0.09396 L 34.199029,43.953811 A 7.1451144,7.1450957 0 0 1 33.60281,42.5129 l 1.104117,-1.472128 a 0.28731023,0.28730946 0 0 0 0.05731,-0.18113 c -1.25e-4,-0.0048 -0.01438,-0.481172 -4.22e-4,-0.710495 a 0.28738781,0.28738704 0 0 0 -0.05697,-0.189866 l -1.104547,-1.472513 a 7.1472346,7.1472151 0 0 1 0.597307,-1.440524 l 1.821592,-0.260124 a 0.28743377,0.28743301 0 0 0 0.174503,-0.094 5.7973767,5.7973609 0 0 1 0.496285,-0.496289 0.28748048,0.28747971 0 0 0 0.09397,-0.174537 l 0.260223,-1.822254 a 7.1449369,7.1449178 0 0 1 1.440952,-0.596217 l 1.472029,1.104046 a 0.28832096,0.28832019 0 0 0 0.189828,0.05697 5.799067,5.7990513 0 0 1 0.701869,0 0.28797185,0.28797104 0 0 0 0.18983,-0.05697 l 1.472551,-1.104539 a 7.1464659,7.1464467 0 0 1 1.440494,0.597305 l 0.260192,1.821553 a 0.28729802,0.28729725 0 0 0 0.09397,0.174538 5.8029752,5.8029597 0 0 1 0.496323,0.496285 0.28729731,0.28729653 0 0 0 0.174502,0.09396 l 1.82226,0.260228 a 7.1451052,7.1450862 0 0 1 0.596217,1.440911 l -1.104116,1.472128 a 0.2873081,0.28730732 0 0 0 -0.05731,0.181131 c 1.46e-4,0.0048 0.01438,0.481169 4.21e-4,0.710494 a 0.28738638,0.28738561 0 0 0 0.05697,0.189865 l 1.104539,1.472514 a 7.1472346,7.1472151 0 0 1 -0.597313,1.440527 z"
     id="gear"
     stroke="#000000"
     style="display:inline;fill:#000000;fill-opacity:1;stroke-width:1.5" />
</svg>
