<?xml version="1.0" encoding="UTF-8" standalone="no"?>
<svg
   width="128"
   height="128"
   viewBox="0 0 128 128"
   fill="#000000"
   version="1.1"
   id="svg4"
   sodipodi:docname="fabric_studio_sidebar_new.svg"
   inkscape:version="1.3.2 (091e20e, 2023-11-25, custom)"
   xmlns:inkscape="http://www.inkscape.org/namespaces/inkscape"
   xmlns:sodipodi="http://sodipodi.sourceforge.net/DTD/sodipodi-0.dtd"
   xmlns="http://www.w3.org/2000/svg"
   xmlns:svg="http://www.w3.org/2000/svg"
   xmlns:rdf="http://www.w3.org/1999/02/22-rdf-syntax-ns#"
   xmlns:cc="http://creativecommons.org/ns#"
   xmlns:dc="http://purl.org/dc/elements/1.1/">
  <defs
     id="defs4" />
  <sodipodi:namedview
     id="namedview4"
     pagecolor="#ffffff"
     bordercolor="#000000"
     borderopacity="0.25"
     inkscape:showpageshadow="2"
     inkscape:pageopacity="0.0"
     inkscape:pagecheckerboard="0"
     inkscape:deskcolor="#d1d1d1"
     inkscape:zoom="11.515625"
     inkscape:cx="36.12483"
     inkscape:cy="60.786974"
     inkscape:window-width="3072"
     inkscape:window-height="1774"
     inkscape:window-x="-12"
     inkscape:window-y="-12"
     inkscape:window-maximized="1"
     inkscape:current-layer="svg4" />
  <title
     id="title1">Fabric Studio</title>
  <path
     d="M2 32V2h30M96 2h30v30M126 96v30H96M32 126H2V96"
     fill="none"
     stroke="currentColor"
     stroke-width="2"
     id="path1"
     style="fill:none;stroke:currentColor;stroke-width:5;stroke-linejoin:round;stroke-dasharray:none"
     inkscape:label="border" />
  <metadata
     id="metadata1">
    <rdf:RDF>
      <cc:Work
         rdf:about="">
        <dc:title>Fabric Studio</dc:title>
      </cc:Work>
    </rdf:RDF>
  </metadata>
  <path
     fill-rule="evenodd"
     clip-rule="evenodd"
     d="m 111.84063,12.000031 c -0.1822,0 -0.49573,0.05661 -0.49573,0.05661 L 44.508232,21.934196 C 37.252283,23.103915 31.374854,28.458593 29.476376,35.424944 L 12.416102,97.965555 C 12.182043,99.03112 12,100.1229 12,101.26668 c 0,7.53805 5.695429,13.72454 13.003252,14.53032 2.054519,0.286 4.395102,0.286 6.995754,-0.10404 l 11.989011,-1.66357 c 3.016649,-0.41579 5.487299,-2.59934 6.293515,-5.53649 l 6.189518,-22.848356 9.206383,-1.377784 8.868165,-1.299568 c 1.742435,-0.259998 3.172869,-1.559782 3.614866,-3.223347 l 7.151952,-26.175519 14.667467,-2.157351 v -0.05198 l 4.135077,-0.624005 c 1.66443,-0.233782 3.01687,-1.455567 3.43286,-3.041133 l 8.29616,-30.438544 C 115.94803,16.891427 116,16.527514 116,16.137598 116,13.85017 114.15506,12 111.84063,12 Z M 44.040018,106.80338 c -0.13002,0.41579 -0.468219,0.7538 -0.910218,0.80579 l -12.015034,1.66358 h -0.02593 c -2.08052,0.31178 -3.770935,0.28578 -5.12328,0.10403 h -0.208029 c -4.057018,-0.44201 -7.22982,-3.89913 -7.22982,-8.08405 0,-0.83178 0.130044,-1.611568 0.338087,-2.339569 1.352346,-3.872915 3.302823,-6.654265 9.024253,-8.525832 1.456369,-0.467782 3.172798,-0.883783 5.175296,-1.247566 L 49.47539,86.736144 Z M 73.000443,74.037063 c -0.450777,1.666212 -1.848061,2.904461 -3.555825,3.153194 l -8.786487,1.280067 -32.84619,4.8607 c -1.950476,0.364002 -3.614886,0.753782 -5.071255,1.221783 l 3.302825,-12.086966 0.02592,-0.233999 c 0.07801,-0.207999 0.182025,-0.597782 0.338084,-1.091781 l -0.364079,1.325781 c 1.456374,-5.250699 2.886719,-8.811833 9.804563,-11.073398 1.456216,-0.467784 3.172651,-0.883783 5.175081,-1.247566 l 37.241314,-5.4847 z m 28.694477,-29.463415 -6.969742,1.039785 -58.930736,8.707833 c -1.95043,0.363998 -3.640822,0.753783 -5.071167,1.221783 L 34.806226,40.726734 35.768445,37.1656 c 1.248432,-4.522937 5.045298,-8.006093 9.752596,-8.785896 l 63.169819,-9.331703 z"
     id="path2"
     inkscape:label="icon"
     style="fill:currentColor;stroke:none" />
  <path
     d="m 103.83065,96.342389 a 7.5727336,7.6556929 0 1 0 7.57276,7.655711 7.5813177,7.6643717 0 0 0 -7.57276,-7.655711 z m 0,14.133591 a 6.4076969,6.4778939 0 1 1 6.40768,-6.47788 6.4149468,6.4852227 0 0 1 -6.40768,6.47788 z m 15.0881,-2.82587 -2.28707,-3.08238 c 0.0101,-0.3777 0.002,-0.86301 -0.004,-1.13497 L 118.917,100.347 a 0.58248446,0.58886558 0 0 0 0.0962,-0.506795 15.646929,15.818341 0 0 0 -1.53735,-3.755744 0.58258202,0.58896427 0 0 0 -0.42281,-0.28971 l -3.76985,-0.544243 c -0.25463,-0.281003 -0.52286,-0.552171 -0.80073,-0.809522 l -0.53823,-3.809524 a 0.58243936,0.58881993 0 0 0 -0.28629,-0.427294 15.650064,15.821511 0 0 0 -3.7141,-1.556707 0.58228497,0.58866393 0 0 0 -0.50152,0.09735 l -3.0464,2.310041 c -0.37658,-0.0164 -0.75587,-0.0164 -1.13247,0 l -3.04514,-2.309035 a 0.58248161,0.58886266 0 0 0 -0.501309,-0.09735 15.644999,15.81639 0 0 0 -3.71519,1.554266 0.58249909,0.58888037 0 0 0 -0.286491,0.427358 l -0.538287,3.811102 c -0.277951,0.257435 -0.546187,0.5286 -0.800816,0.809603 l -3.768211,0.544046 a 0.5828573,0.58924244 0 0 0 -0.422665,0.289486 15.648403,15.819829 0 0 0 -1.539832,3.754883 0.58256743,0.58894948 0 0 0 0.0963,0.507019 l 2.287041,3.08238 c -0.01004,0.3777 -0.002,0.86299 0.0039,1.13496 l -2.289333,3.08574 a 0.58248884,0.58887003 0 0 0 -0.09631,0.5068 15.646955,15.818367 0 0 0 1.537365,3.75576 0.58257625,0.58895838 0 0 0 0.422805,0.28969 l 3.769883,0.54427 c 0.254625,0.281 0.522853,0.55217 0.800749,0.80952 l 0.538202,3.80952 a 0.58243492,0.58881553 0 0 0 0.28629,0.4273 15.650125,15.821574 0 0 0 3.714123,1.5567 0.58232137,0.58870073 0 0 0 0.501526,-0.0973 l 3.04634,-2.31002 c 0.37659,0.0164 0.75589,0.0164 1.13248,0 l 3.04511,2.30901 a 0.58225293,0.58863151 0 0 0 0.50134,0.0974 15.644938,15.81633 0 0 0 3.71517,-1.55426 0.58249609,0.58887737 0 0 0 0.28649,-0.42738 l 0.5388,-3.81448 c 0.27162,-0.25951 0.60555,-0.60822 0.79149,-0.80483 l 3.77705,-0.54541 a 0.58285442,0.58923951 0 0 0 0.42262,-0.28949 15.648324,15.819754 0 0 0 1.53986,-3.7549 0.58256456,0.58894657 0 0 0 -0.0962,-0.507 z m -2.31542,3.42649 -3.693,0.53325 a 0.58253545,0.58891713 0 0 0 -0.34189,0.17935 c -0.006,0.008 -0.66913,0.71808 -1.01785,1.03022 a 0.58279174,0.58917624 0 0 0 -0.19054,0.35771 l -0.52757,3.73467 a 14.484671,14.643351 0 0 1 -2.9212,1.22195 l -2.98418,-2.26272 a 0.58159319,0.58796456 0 0 0 -0.38482,-0.11682 11.756867,11.885666 0 0 1 -1.42288,0 0.58245391,0.58883468 0 0 0 -0.38485,0.11682 l -2.985253,2.26372 a 14.487814,14.646528 0 0 1 -2.920271,-1.22416 l -0.527491,-3.73324 a 0.58244518,0.58882583 0 0 0 -0.190553,-0.35771 11.763564,11.892434 0 0 1 -1.006195,-1.01714 0.5824204,0.58880082 0 0 0 -0.353766,-0.19269 l -3.694198,-0.53334 a 14.485074,14.643758 0 0 1 -1.208698,-2.95312 l 2.238355,-3.0171 a 0.58245533,0.58883614 0 0 0 0.116183,-0.37123 c -2.78e-4,-0.0101 -0.02918,-0.98614 -8.34e-4,-1.45616 a 0.5826126,0.58899515 0 0 0 -0.11557,-0.38911 l -2.239206,-3.017897 a 14.489372,14.648104 0 0 1 1.210909,-2.952322 l 3.692853,-0.533109 a 0.58270584,0.58908939 0 0 0 0.353765,-0.192689 11.752847,11.881599 0 0 1 1.00609,-1.017134 0.58280046,0.58918504 0 0 0 0.190556,-0.357695 l 0.52755,-3.734699 a 14.484714,14.643394 0 0 1 2.921199,-1.221925 l 2.984205,2.262723 a 0.58450435,0.59090765 0 0 0 0.38484,0.116791 11.756273,11.885063 0 0 1 1.42287,0 0.58379657,0.59019208 0 0 0 0.38483,-0.116791 l 2.98525,-2.263746 a 14.487814,14.646528 0 0 1 2.92028,1.224179 l 0.52749,3.733239 a 0.58243059,0.58881112 0 0 0 0.19057,0.357719 11.764196,11.893073 0 0 1 1.00618,1.017114 0.58242914,0.58880967 0 0 0 0.35376,0.192691 l 3.69421,0.533336 a 14.485056,14.64374 0 0 1 1.2087,2.953121 l -2.23836,3.017104 a 0.582451,0.58883175 0 0 0 -0.11618,0.37122 c 3e-4,0.0101 0.0292,0.98615 8.8e-4,1.45614 a 0.5826097,0.58899225 0 0 0 0.11556,0.38914 l 2.23921,3.01788 a 14.489372,14.648104 0 0 1 -1.21091,2.95234 z"
     id="gear"
     fill-rule="evenodd"
     clip-rule="evenodd"
     fill="#000000"
     stroke="#000000"
     style="fill:#000000;stroke:#000000;stroke-width:1.2545;stroke-linejoin:round;stroke-dasharray:none" />
</svg>
