<?xml version="1.0" encoding="UTF-8" standalone="no"?>
<svg
   width="48"
   height="48"
   viewBox="0 0 48 48"
   fill="none"
   version="1.1"
   id="svg1"
   sodipodi:docname="fabric_border_gear.svg"
   inkscape:version="1.3.2 (091e20e, 2023-11-25, custom)"
   xmlns:inkscape="http://www.inkscape.org/namespaces/inkscape"
   xmlns:sodipodi="http://sodipodi.sourceforge.net/DTD/sodipodi-0.dtd"
   xmlns="http://www.w3.org/2000/svg"
   xmlns:svg="http://www.w3.org/2000/svg">
  <defs
     id="defs1" />
  <sodipodi:namedview
     id="namedview1"
     pagecolor="#ffffff"
     bordercolor="#000000"
     borderopacity="0.25"
     inkscape:showpageshadow="2"
     inkscape:pageopacity="0.0"
     inkscape:pagecheckerboard="0"
     inkscape:deskcolor="#d1d1d1"
     inkscape:zoom="5.4285178"
     inkscape:cx="1.2894864"
     inkscape:cy="53.42158"
     inkscape:window-width="3072"
     inkscape:window-height="1774"
     inkscape:window-x="-12"
     inkscape:window-y="-12"
     inkscape:window-maximized="1"
     inkscape:current-layer="svg1" />
  <g
     id="g2-9"
     transform="matrix(0,0.99796884,-0.99796889,0,49.549086,-1.0071405)"
     inkscape:label="right top">
    <rect
       style="fill:#000000;fill-opacity:1;stroke-width:0.882;stroke-dasharray:none"
       id="rect2-7"
       width="1.6933514"
       height="16.021709"
       x="1.009498"
       y="1.5630937" />
    <rect
       style="fill:#000000;fill-opacity:1;stroke-width:0.882;stroke-dasharray:none"
       id="rect2-3-5"
       width="1.6933514"
       height="16.021709"
       x="1.5522392"
       y="-17.042063"
       transform="rotate(90)" />
  </g>
  <g
     id="g2-9-6"
     transform="matrix(0.99796884,0,0,0.99796889,-1.0074475,-1.5490864)"
     inkscape:label="left top">
    <rect
       style="fill:#000000;fill-opacity:1;stroke-width:0.882;stroke-dasharray:none"
       id="rect2-7-6"
       width="1.6933514"
       height="16.021709"
       x="1.009498"
       y="1.5630937" />
    <rect
       style="fill:#000000;fill-opacity:1;stroke-width:0.882;stroke-dasharray:none"
       id="rect2-3-5-8"
       width="1.6933514"
       height="16.021709"
       x="1.5522392"
       y="-17.042063"
       transform="rotate(90)" />
  </g>
  <g
     id="g2-9-9"
     transform="matrix(-0.99796884,0,0,-0.99796889,49.007448,49.549086)"
     inkscape:label="right bottom">
    <rect
       style="fill:#000000;fill-opacity:1;stroke-width:0.882;stroke-dasharray:none"
       id="rect2-7-0"
       width="1.6933514"
       height="16.021709"
       x="1.009498"
       y="1.5630937" />
    <rect
       style="fill:#000000;fill-opacity:1;stroke-width:0.882;stroke-dasharray:none"
       id="rect2-3-5-0"
       width="1.6933514"
       height="16.021709"
       x="1.5522392"
       y="-17.042063"
       transform="rotate(90)" />
  </g>
  <g
     id="g2-9-92"
     transform="matrix(0,-0.99796884,0.99796889,0,-1.5490864,49.007448)"
     inkscape:label="left bottom">
    <rect
       style="fill:#000000;fill-opacity:1;stroke-width:0.882;stroke-dasharray:none"
       id="rect2-7-3"
       width="1.6933514"
       height="16.021709"
       x="1.009498"
       y="1.5630937" />
    <rect
       style="fill:#000000;fill-opacity:1;stroke-width:0.882;stroke-dasharray:none"
       id="rect2-3-5-9"
       width="1.6933514"
       height="16.021709"
       x="1.5522392"
       y="-17.042063"
       transform="rotate(90)" />
  </g>
  <path
     fill-rule="evenodd"
     clip-rule="evenodd"
     d="m 52.239674,-19.413341 c -0.06818,0 -0.185493,0.02118 -0.185493,0.02118 l -25.00882,3.695965 c -2.715017,0.437684 -4.914222,2.441287 -5.624591,5.047943 l -6.38358,23.401327 c -0.03892,0.116662 0.02919,-0.116744 0,0 -0.08758,0.398711 -0.155697,0.807233 -0.155697,1.235211 0,2.820573 2.131105,5.135419 4.865532,5.436926 0.768756,0.107015 1.644551,0.107015 2.617658,-0.03891 l 4.486024,-0.62247 c 1.128765,-0.155577 2.053228,-0.97262 2.354896,-2.071631 L 31.521585,8.1428412 34.966411,7.6273045 38.284684,7.141035 c 0.651981,-0.097286 1.187218,-0.5836364 1.352604,-1.2061065 l 2.676103,-9.7942977 5.488244,-0.8072331 v -0.019457 l 1.547258,-0.2334871 c 0.622794,-0.087476 1.128845,-0.5446411 1.284503,-1.1379254 L 53.73764,-17.446908 c 0.03891,-0.136168 0.05837,-0.272336 0.05837,-0.418234 0,-0.855904 -0.690327,-1.548197 -1.556338,-1.548197 z m -25.369509,35.47334 c -0.04865,0.155577 -0.175197,0.282049 -0.340583,0.301506 l -4.495762,0.62247 h -0.0097 c -0.778485,0.116663 -1.411001,0.106934 -1.917019,0.03891 h -0.03892 l -0.03892,-0.0097 c -1.518047,-0.165387 -2.70524,-1.45897 -2.70524,-3.024874 0,-0.311235 0.04866,-0.603013 0.126505,-0.875415 0.506018,-1.44916 1.235844,-2.48988 3.376677,-3.1901796 0.544942,-0.1750337 1.187192,-0.3306917 1.936483,-0.4668118 l 6.140276,-0.914329 z M 37.707047,3.7998987 C 37.53785,4.4230175 37.015017,4.8863435 36.376009,4.9794141 L 33.088299,5.4583869 20.797975,7.2771542 C 20.06815,7.4133554 19.445364,7.559203 18.900423,7.7343187 l 1.235844,-4.5226778 0.0097,-0.087557 c 0.02919,-0.077829 0.06811,-0.2236773 0.126504,-0.4085213 l -0.136233,0.496079 c 0.544944,-1.964697 1.080148,-3.29719492 3.668653,-4.1434235 0.544884,-0.1750343 1.187136,-0.3306924 1.936402,-0.4668121 l 13.934884,-2.0522544 z m 10.73684,-11.0245639 -2.607921,0.3890641 -22.050588,3.2582802 c -0.729809,0.1362008 -1.362316,0.2820491 -1.89752,0.4571645 l 1.527751,-5.5439406 0.360041,-1.332498 c 0.467136,-1.692384 1.88784,-2.995705 3.649208,-3.28749 l 23.63676,-3.491719 -2.608003,9.5511388 z"
     fill="#000000"
     id="path1"
     inkscape:label="fabric-icon"
     style="stroke-width:1;stroke-dasharray:none"
     transform="translate(-10.582986,24.200315)" />
  <path
     d="m 36.840648,33.826528 a 3.09342,3.1732873 0 1 0 3.093425,3.173292 3.0969266,3.1768847 0 0 0 -3.093425,-3.173292 z m 0,5.858378 a 2.617509,2.6850892 0 1 1 2.617506,-2.685086 2.6204705,2.688127 0 0 1 -2.617506,2.685086 z M 43.004054,38.513582 42.0698,37.235935 c 0.0041,-0.156558 8.21e-4,-0.357721 -0.0016,-0.470444 l 0.935174,-1.279051 a 0.2379417,0.24408498 0 0 0 0.03934,-0.210066 6.3916844,6.556708 0 0 0 -0.628004,-1.556757 0.23798155,0.24412589 0 0 0 -0.172715,-0.120085 L 40.701984,33.373943 C 40.597972,33.257467 40.488402,33.145068 40.37489,33.038396 l -0.219859,-1.579049 a 0.23792328,0.24406606 0 0 0 -0.116949,-0.177114 6.3929651,6.5580216 0 0 0 -1.517191,-0.645255 0.23786021,0.2440014 0 0 0 -0.20487,0.04035 l -1.244432,0.957513 c -0.153839,-0.0068 -0.308776,-0.0068 -0.462611,0 l -1.243924,-0.957095 a 0.23794053,0.24408377 0 0 0 -0.204782,-0.04035 6.3908957,6.5558988 0 0 0 -1.517635,0.644244 0.23794767,0.24409111 0 0 0 -0.11703,0.17714 l -0.219887,1.579703 c -0.113542,0.106707 -0.223115,0.219105 -0.327129,0.335581 l -1.539294,0.225507 a 0.238094,0.24424119 0 0 0 -0.172656,0.119992 6.3922861,6.5573246 0 0 0 -0.629013,1.5564 0.23797559,0.24411976 0 0 0 0.03934,0.21016 l 0.934244,1.277647 c -0.0041,0.156557 -8.21e-4,0.357712 0.0016,0.470444 l -0.935179,1.27904 a 0.23794348,0.24408683 0 0 0 -0.03934,0.210067 6.391695,6.5567186 0 0 0 0.628005,1.556765 0.23797919,0.24412345 0 0 0 0.172713,0.120077 l 1.539974,0.225597 c 0.104012,0.116476 0.213582,0.228876 0.327101,0.335548 l 0.219852,1.579048 a 0.23792146,0.24406424 0 0 0 0.116948,0.177115 6.3929902,6.5580479 0 0 0 1.517199,0.645253 0.23787508,0.24401665 0 0 0 0.204872,-0.04034 l 1.244411,-0.957502 c 0.153836,0.0068 0.308778,0.0068 0.462611,0 l 1.243914,0.957085 a 0.23784712,0.24398796 0 0 0 0.204789,0.04036 6.3908712,6.5558742 0 0 0 1.51763,-0.644242 0.23794645,0.24408987 0 0 0 0.117031,-0.17715 l 0.220093,-1.581103 c 0.11096,-0.107566 0.247368,-0.252109 0.323325,-0.333604 l 1.542904,-0.226071 a 0.23809283,0.24423998 0 0 0 0.172642,-0.119993 6.3922546,6.5572935 0 0 0 0.629023,-1.556408 0.23797442,0.24411855 0 0 0 -0.03934,-0.210151 z m -0.945838,1.42028 -1.50857,0.221035 a 0.23796253,0.24410635 0 0 0 -0.139662,0.07434 c -0.0025,0.0033 -0.273334,0.297644 -0.415782,0.427025 a 0.23806722,0.24421375 0 0 0 -0.07784,0.148273 l -0.215508,1.548022 a 5.9169086,6.0696741 0 0 1 -1.19329,0.506496 l -1.219022,-0.937897 a 0.23757762,0.24371151 0 0 0 -0.157203,-0.04842 4.8026159,4.9266124 0 0 1 -0.581237,0 0.23792922,0.24407218 0 0 0 -0.157205,0.04842 l -1.219461,0.938313 a 5.9181925,6.0709911 0 0 1 -1.192915,-0.507413 l -0.215477,-1.54743 a 0.23792565,0.24406851 0 0 0 -0.07784,-0.148272 4.8053513,4.9294182 0 0 1 -0.411025,-0.421603 0.23791553,0.24405814 0 0 0 -0.144511,-0.07987 l -1.50906,-0.221071 a 5.9170729,6.0698427 0 0 1 -0.493747,-1.224069 l 0.914356,-1.250591 a 0.2379298,0.24407278 0 0 0 0.04746,-0.153873 c -1.13e-4,-0.0042 -0.01192,-0.408759 -3.4e-4,-0.603578 a 0.23799405,0.24413869 0 0 0 -0.04721,-0.161287 l -0.914704,-1.25092 a 5.9188289,6.0716439 0 0 1 0.49465,-1.223738 l 1.50851,-0.220974 a 0.23803213,0.24417775 0 0 0 0.144511,-0.07987 4.8009729,4.9249266 0 0 1 0.410983,-0.421602 0.23807078,0.2442174 0 0 0 0.07784,-0.148265 l 0.215502,-1.548034 a 5.9169258,6.069692 0 0 1 1.193294,-0.506488 l 1.21903,0.937899 a 0.23876681,0.24493142 0 0 0 0.157204,0.04841 4.8023725,4.9263626 0 0 1 0.581233,0 0.23847769,0.24463482 0 0 0 0.157201,-0.04841 l 1.219464,-0.938323 a 5.9181925,6.0709911 0 0 1 1.192919,0.507422 l 0.215473,1.547429 a 0.23791969,0.24406241 0 0 0 0.07785,0.148275 4.8056096,4.9296832 0 0 1 0.411016,0.421594 0.2379191,0.24406181 0 0 0 0.144509,0.07987 l 1.509067,0.221068 a 5.9170657,6.0698354 0 0 1 0.493747,1.22407 l -0.914353,1.250592 a 0.23792803,0.24407096 0 0 0 -0.04746,0.15387 c 1.19e-4,0.0042 0.01193,0.408761 3.56e-4,0.603571 a 0.23799286,0.24413749 0 0 0 0.04721,0.161297 l 0.9147,1.250915 a 5.9188289,6.0716439 0 0 1 -0.494654,1.223744 z"
     id="gear"
     fill-rule="evenodd"
     clip-rule="evenodd"
     fill="#000000"
     stroke="#000000"
     style="stroke-width:1.25815;stroke-dasharray:none" />
</svg>
