<svg xmlns="http://www.w3.org/2000/svg" width="64" height="64" fill="currentColor"><path fill="url(#icon-ead83b24989b0a70__icon-c3387f9bfd00a00c__a)" d="M6 13a7 7 0 0 1 7-7h38a7 7 0 0 1 7 7v38a7 7 0 0 1-7 7H13a7 7 0 0 1-7-7V13Z"/><path fill="url(#icon-1f8ad3fad145dd68__icon-2ac141b1c4cc598d__b)" fill-opacity=".2" d="M6 13a7 7 0 0 1 7-7h38a7 7 0 0 1 7 7v38a7 7 0 0 1-7 7H13a7 7 0 0 1-7-7V13Z"/><path fill="url(#icon-ea7269b4719d79c5__icon-6aefcb1b076d5796__c)" fill-rule="evenodd" d="M51 7H13a6 6 0 0 0-6 6v38a6 6 0 0 0 6 6h38a6 6 0 0 0 6-6V13a6 6 0 0 0-6-6ZM13 6a7 7 0 0 0-7 7v38a7 7 0 0 0 7 7h38a7 7 0 0 0 7-7V13a7 7 0 0 0-7-7H13Z" clip-rule="evenodd"/><path fill="url(#icon-939eab77da9c711c__icon-6083b3a3ae6dbc71__d)" d="M32.75 18.777a1.5 1.5 0 0 0-1.5 0l-4.743 2.738a1.5 1.5 0 0 0-.75 1.3v5.476a1.5 1.5 0 0 0 .75 1.299l4.743 2.738a1.5 1.5 0 0 0 1.5 0l4.743-2.738a1.5 1.5 0 0 0 .75-1.299v-5.477a1.5 1.5 0 0 0-.75-1.299l-4.743-2.738Z"/><path fill="url(#icon-5081c37048d7a221__icon-8950fc52c3f68986__e)" fill-rule="evenodd" d="M25.382 31.672a1.5 1.5 0 0 0-1.5 0l-4.743 2.738a1.5 1.5 0 0 0-.75 1.3v5.476a1.5 1.5 0 0 0 .75 1.3l4.743 2.738a1.5 1.5 0 0 0 1.5 0l4.743-2.739a1.5 1.5 0 0 0 .75-1.299v-5.477a1.5 1.5 0 0 0-.75-1.299l-4.743-2.738Zm-1 .866a.5.5 0 0 1 .5 0l4.743 2.738a.5.5 0 0 1 .25.433v5.477a.5.5 0 0 1-.25.433l-4.743 2.739a.5.5 0 0 1-.5 0l-4.743-2.739a.5.5 0 0 1-.25-.433v-5.477a.5.5 0 0 1 .25-.433l4.743-2.738Z" clip-rule="evenodd"/><path fill="url(#icon-5011c6439307363c__icon-3df289a021b7b71b__f)" d="M40.118 31.672a1.5 1.5 0 0 0-1.5 0l-4.743 2.738a1.5 1.5 0 0 0-.75 1.3v5.476a1.5 1.5 0 0 0 .75 1.3l4.743 2.738a1.5 1.5 0 0 0 1.5 0l4.743-2.739a1.5 1.5 0 0 0 .75-1.299v-5.477a1.5 1.5 0 0 0-.75-1.299l-4.743-2.738Z"/><defs><linearGradient id="icon-ead83b24989b0a70__icon-c3387f9bfd00a00c__a" x1="20.444" x2="27.022" y1="6" y2="58.622" gradientUnits="userSpaceOnUse"><stop stop-color="#fff"/><stop offset="1" stop-color="#EBEBEB"/></linearGradient><linearGradient id="icon-ea7269b4719d79c5__icon-6aefcb1b076d5796__c" x1="22.792" x2="29.793" y1="6" y2="58.511" gradientUnits="userSpaceOnUse"><stop stop-color="#BBB"/><stop offset="1" stop-color="#888"/></linearGradient><linearGradient id="icon-939eab77da9c711c__icon-6083b3a3ae6dbc71__d" x1="18.389" x2="45.235" y1="18.576" y2="45.796" gradientUnits="userSpaceOnUse"><stop stop-color="#4BA446"/><stop offset="1" stop-color="#3F7D35"/></linearGradient><linearGradient id="icon-5081c37048d7a221__icon-8950fc52c3f68986__e" x1="18.389" x2="45.235" y1="18.576" y2="45.796" gradientUnits="userSpaceOnUse"><stop stop-color="#4BA446"/><stop offset="1" stop-color="#3F7D35"/></linearGradient><linearGradient id="icon-5011c6439307363c__icon-3df289a021b7b71b__f" x1="18.389" x2="45.235" y1="18.576" y2="45.796" gradientUnits="userSpaceOnUse"><stop stop-color="#4BA446"/><stop offset="1" stop-color="#3F7D35"/></linearGradient><radialGradient id="icon-1f8ad3fad145dd68__icon-2ac141b1c4cc598d__b" cx="0" cy="0" r="1" gradientTransform="rotate(56.31 -6.951 30.895) scale(49.4762 42.8159)" gradientUnits="userSpaceOnUse"><stop offset=".177" stop-color="#fff"/><stop offset="1" stop-color="#B8B8B8"/></radialGradient></defs></svg>