<?xml version="1.0" encoding="UTF-8" standalone="no"?>
<svg
   width="64"
   height="64"
   fill="currentColor"
   version="1.1"
   id="svg17"
   sodipodi:docname="workspace.svg"
   inkscape:version="1.3.2 (091e20e, 2023-11-25, custom)"
   xmlns:inkscape="http://www.inkscape.org/namespaces/inkscape"
   xmlns:sodipodi="http://sodipodi.sourceforge.net/DTD/sodipodi-0.dtd"
   xmlns="http://www.w3.org/2000/svg"
   xmlns:svg="http://www.w3.org/2000/svg">
  <sodipodi:namedview
     id="namedview17"
     pagecolor="#ffffff"
     bordercolor="#000000"
     borderopacity="0.25"
     inkscape:showpageshadow="2"
     inkscape:pageopacity="0.0"
     inkscape:pagecheckerboard="0"
     inkscape:deskcolor="#d1d1d1"
     showgrid="false"
     inkscape:zoom="90.509668"
     inkscape:cx="18.953776"
     inkscape:cy="42.97331"
     inkscape:window-width="3072"
     inkscape:window-height="1774"
     inkscape:window-x="-12"
     inkscape:window-y="-12"
     inkscape:window-maximized="1"
     inkscape:current-layer="svg17" />
  <path
     fill="url(#a)"
     fill-rule="evenodd"
     d="M12.5 14.5a7.5 7.5 0 1 1 15 0 7.5 7.5 0 0 1-15 0ZM20 8a6.5 6.5 0 1 0 0 13 6.5 6.5 0 0 0 0-13Z"
     clip-rule="evenodd"
     id="path1"
     style="fill:#a0aaa8;fill-opacity:1" />
  <path
     fill="url(#b)"
     d="M38.48 25a8.546 8.546 0 0 0-1.003-1h16.022c2.486 0 4.5 2.148 4.5 4.798v.976c0 .565 0 3.824-1.784 6.99-1.617 2.871-4.548 5.402-9.542 6.066a5.96 5.96 0 0 0-.424-.954c4.872-.564 7.606-2.96 9.095-5.603 1.652-2.932 1.655-5.971 1.655-6.5v-.975C57 26.64 55.373 25 53.5 25H38.48Z"
     id="path2" />
  <path
     fill="url(#c)"
     d="M25.518 25c.306-.36.642-.695 1.004-1H10.499C8.014 24 6 26.148 6 28.798v.976c0 .565 0 3.824 1.784 6.99 1.618 2.871 4.549 5.402 9.543 6.066a5.96 5.96 0 0 1 .424-.954c-4.872-.564-7.607-2.96-9.095-5.602-1.652-2.933-1.656-5.972-1.656-6.5v-.976C7 26.64 8.626 25 10.5 25h15.02Z"
     id="path3" />
  <path
     fill="url(#d)"
     fill-rule="evenodd"
     d="M36.5 14.5a7.5 7.5 0 1 1 15 0 7.5 7.5 0 0 1-15 0ZM44 8a6.5 6.5 0 1 0 0 13 6.5 6.5 0 0 0 0-13Z"
     clip-rule="evenodd"
     id="path4" />
  <path
     fill="url(#e)"
     fill-rule="evenodd"
     d="M24.5 30.5a7.5 7.5 0 1 1 15 0 7.5 7.5 0 0 1-15 0ZM32 24a6.5 6.5 0 1 0 0 13 6.5 6.5 0 0 0 0-13Z"
     clip-rule="evenodd"
     id="path5" />
  <path
     fill="url(#f)"
     fill-rule="evenodd"
     d="M46 45.774c0 .565 0 3.824-1.785 6.99C42.328 56.114 38.653 59 32 59c-6.653 0-10.328-2.886-12.216-6.236C18 49.598 18 46.34 18 45.774v-.976C18 42.148 20.014 40 22.5 40h19c2.486 0 4.5 2.148 4.5 4.798v.976Zm-1 0v-.976C45 42.64 43.372 41 41.5 41h-19c-1.874 0-3.5 1.64-3.5 3.798v.976c0 .528.003 3.567 1.655 6.5C22.359 55.297 25.695 58 31.999 58c6.305 0 9.641-2.702 11.345-5.727 1.652-2.932 1.655-5.971 1.655-6.5Z"
     clip-rule="evenodd"
     id="path6" />
  <defs
     id="defs17">
    <linearGradient
       id="a"
       x1="5.999"
       x2="57.999"
       y1="7"
       y2="59"
       gradientUnits="userSpaceOnUse">
      <stop
         stop-color="#a0aaa8"
         id="stop6"
         offset="0"
         style="stop-color:#a0aaa8;stop-opacity:1;" />
      <stop
         offset="1"
         stop-color="#a0aaa8"
         id="stop7" />
    </linearGradient>
    <linearGradient
       id="b"
       x1="5.999"
       x2="57.999"
       y1="7"
       y2="59"
       gradientUnits="userSpaceOnUse">
      <stop
         stop-color="#a0aaa8"
         id="stop8" />
      <stop
         offset="1"
         stop-color="#a0aaa8"
         id="stop9" />
    </linearGradient>
    <linearGradient
       id="c"
       x1="5.999"
       x2="57.999"
       y1="7"
       y2="59"
       gradientUnits="userSpaceOnUse">
      <stop
         stop-color="#a0aaa8"
         id="stop10" />
      <stop
         offset="1"
         stop-color="#a0aaa8"
         id="stop11" />
    </linearGradient>
    <linearGradient
       id="d"
       x1="5.999"
       x2="57.999"
       y1="7"
       y2="59"
       gradientUnits="userSpaceOnUse">
      <stop
         stop-color="#a0aaa8"
         id="stop12" />
      <stop
         offset="1"
         stop-color="#a0aaa8"
         id="stop13" />
    </linearGradient>
    <linearGradient
       id="e"
       x1="5.999"
       x2="57.999"
       y1="7"
       y2="59"
       gradientUnits="userSpaceOnUse">
      <stop
         stop-color="#a0aaa8"
         id="stop14" />
      <stop
         offset="1"
         stop-color="#a0aaa8"
         id="stop15" />
    </linearGradient>
    <linearGradient
       id="f"
       x1="5.999"
       x2="57.999"
       y1="7"
       y2="59"
       gradientUnits="userSpaceOnUse">
      <stop
         stop-color="#a0aaa8"
         id="stop16" />
      <stop
         offset="1"
         stop-color="#a0aaa8"
         id="stop17" />
    </linearGradient>
  </defs>
  <path
     style="fill:#a0aaa8;fill-opacity:1;stroke-width:0.0434193"
     d="M 6.4996013,33.469179 C 6.397504,33.10096 6.2230015,32.206775 6.1408637,31.630936 6.0336346,30.879192 6.0032144,28.486617 6.0942068,27.961334 6.4367299,25.98401 7.8826492,24.449938 9.7350251,24.098548 c 0.2907439,-0.05515 0.8547159,-0.06598 3.4359239,-0.06598 h 3.088086 l -0.476131,0.477612 -0.476131,0.477612 H 12.73161 c -2.157234,0 -2.629477,0.01096 -2.9098312,0.06753 -0.4265533,0.08606 -1.1176623,0.420851 -1.4681116,0.711182 -0.5453093,0.451763 -0.9805363,1.129348 -1.2210842,1.901051 l -0.1188556,0.381301 1.64e-5,1.454545 c 1.73e-5,1.530455 0.029881,1.896703 0.2420301,2.968278 l 0.093381,0.471669 -0.3896405,0.38964 -0.3896405,0.389641 z"
     id="path17" />
  <path
     style="fill:#a0aaa8;fill-opacity:1;stroke-width:0.0434193"
     d="m 41.479728,21.538984 c -1.800322,-0.653852 -3.311122,-1.999659 -4.161395,-3.706933 -0.249317,-0.500607 -0.491557,-1.159133 -0.596332,-1.621117 l -0.0654,-0.288387 0.421817,-0.420235 0.421818,-0.420234 0.05147,0.367931 c 0.373196,2.667729 2.408581,4.83445 5.104174,5.433529 l 0.126705,0.02816 -0.386315,0.388113 c -0.212474,0.213463 -0.416031,0.387138 -0.452349,0.385946 -0.03632,-0.0012 -0.245205,-0.06724 -0.46419,-0.146772 z"
     id="path18" />
  <path
     style="fill:#a0aaa8;fill-opacity:1;stroke-width:0.0434193"
     d="m 43.289009,21.942898 c -0.433868,-0.04399 -1.267892,-0.211466 -1.249921,-0.250985 0.0069,-0.01509 0.18832,-0.195935 0.403246,-0.401886 l 0.390773,-0.374456 0.238806,0.04183 c 0.405853,0.07109 1.536137,0.05616 2.018996,-0.02667 0.91274,-0.156566 1.956253,-0.592833 2.726105,-1.139717 0.455201,-0.323363 1.154026,-1.022188 1.477389,-1.477389 0.51015,-0.718142 0.920364,-1.659262 1.093051,-2.507694 0.157902,-0.775793 0.156395,-1.862948 -0.0037,-2.648724 -0.06998,-0.343513 -0.319648,-1.112223 -0.431487,-1.328496 -0.05648,-0.109217 -0.04723,-0.123661 0.3007,-0.469786 l 0.358969,-0.357105 0.176799,0.382402 c 0.65652,1.420002 0.847431,3.071917 0.533215,4.613802 -0.316209,1.551667 -1.191548,3.065588 -2.366753,4.093363 -1.574233,1.376745 -3.652155,2.055734 -5.666215,1.851514 z"
     id="path19" />
  <path
     style="fill:#a0aaa8;fill-opacity:1;stroke-width:0.0434193"
     d="M 49.777494,11.477859 C 49.472659,10.873124 48.936143,10.173606 48.398223,9.6795431 47.999001,9.3128699 47.292007,8.8381459 46.800324,8.606604 L 46.415136,8.4252126 46.769439,8.06906 47.123741,7.7129074 47.460485,7.8822191 c 1.16914,0.587832 2.331628,1.6977719 3.013298,2.8770879 l 0.120474,0.208424 -0.340646,0.356026 c -0.187355,0.195814 -0.344783,0.362853 -0.34984,0.371198 -0.0051,0.0083 -0.06188,-0.08935 -0.126277,-0.217096 z"
     id="path20" />
  <path
     style="fill:#a0aaa8;fill-opacity:1;stroke-width:0.0434193"
     d="m 36.630595,15.774799 c -0.08708,-0.325964 -0.12814,-1.286893 -0.07915,-1.852285 0.267998,-3.092843 2.279184,-5.6124382 5.235978,-6.5595837 1.293927,-0.4144818 2.932319,-0.4390659 4.228496,-0.063449 0.428551,0.1241893 1.050565,0.3591102 1.050565,0.3967753 0,0.014544 -0.153631,0.1840875 -0.341402,0.3767626 L 46.383681,8.4233379 46.035019,8.3066507 c -1.672766,-0.5598255 -3.575152,-0.3868761 -5.164016,0.4694702 -1.300069,0.7006942 -2.406111,1.9595031 -2.942548,3.3489701 -0.302827,0.784379 -0.491541,1.87804 -0.45074,2.612194 l 0.0183,0.329201 -0.419292,0.404378 c -0.387181,0.37341 -0.421346,0.396686 -0.446124,0.303935 z"
     id="path21" />
  <path
     style="fill:#a0aaa8;fill-opacity:1;stroke-width:0.0434193"
     d="m 25.050463,33.256722 c -0.790002,-2.014526 -0.675839,-4.290056 0.310002,-6.179031 1.060533,-2.032094 2.911081,-3.425327 5.206699,-3.920001 0.397345,-0.08562 0.581383,-0.09824 1.432836,-0.09824 0.852884,0 1.034594,0.0125 1.431033,0.09845 0.49014,0.106264 1.374968,0.379049 1.409206,0.434446 0.01157,0.01872 -0.139172,0.193378 -0.334977,0.388137 L 34.149254,24.33459 33.932157,24.26794 C 33.250383,24.058619 32.913051,24.014345 32,24.014345 c -0.753837,0 -0.954454,0.01437 -1.310513,0.09389 -0.61873,0.138184 -1.036674,0.286579 -1.620288,0.575295 -1.761613,0.871478 -3.020756,2.510627 -3.460117,4.504372 -0.07744,0.351426 -0.09403,0.57273 -0.09685,1.29242 -0.003,0.76088 0.0092,0.924825 0.09855,1.324287 0.05608,0.250747 0.13113,0.541906 0.16678,0.647021 l 0.06482,0.191119 -0.370896,0.370895 -0.370895,0.370896 z"
     id="path22" />
  <path
     style="fill:#a0aaa8;fill-opacity:1;stroke-width:0.0434193"
     d="m 17.085482,24.510176 0.476131,-0.477612 h 4.430295 4.430296 l -0.472843,0.477612 -0.472843,0.477612 h -4.433584 -4.433583 z"
     id="path23" />
  <path
     style="fill:#a0aaa8;fill-opacity:1;stroke-width:0.0434193"
     d="m 30.089552,37.726986 c -1.715797,-0.452485 -3.236884,-1.53011 -4.25219,-3.012496 -0.273409,-0.399188 -0.697606,-1.172787 -0.697606,-1.272208 0,-0.06055 0.681224,-0.754641 0.710136,-0.723549 0.0099,0.01067 0.07884,0.166322 0.153162,0.345899 0.594877,1.437393 1.825871,2.701362 3.273287,3.360971 0.60035,0.273588 1.600882,0.545903 2.005743,0.545903 0.138866,0 0.134579,0.0062 -0.300353,0.434193 -0.242676,0.238806 -0.449884,0.433264 -0.460462,0.432129 -0.01058,-0.0011 -0.204851,-0.05101 -0.431717,-0.110842 z"
     id="path24" />
  <path
     style="fill:#a0aaa8;fill-opacity:1;stroke-width:0.0434193"
     d="m 15.826323,24.510176 0.476131,-0.477612 h 0.60787 0.607869 l -0.476131,0.477612 -0.476131,0.477612 h -0.607869 -0.60787 z"
     id="path25" />
  <path
     style="fill:#a0aaa8;fill-opacity:1;stroke-width:0.0434193"
     d="M 9.0668644,38.570678 C 8.5301641,37.930854 8.0229588,37.168911 7.6234272,36.402293 7.2521267,35.689845 7.0728981,35.264584 6.7974814,34.442549 l -0.2290479,-0.683638 0.3955662,-0.389441 0.3955661,-0.389441 0.034097,0.139565 c 0.411738,1.685297 1.2612022,3.440379 2.2553203,4.659726 l 0.286909,0.351912 -0.3374348,0.335456 -0.3374348,0.335456 z"
     id="path26" />
  <path
     style="fill:#a0aaa8;fill-opacity:1;stroke-width:0.0434193"
     d="M 15.41384,42.437122 C 13.160856,41.853145 11.287307,40.816414 9.7510657,39.303619 L 9.2753762,38.83519 9.6085088,38.500092 9.9416414,38.164994 10.452503,38.666005 c 1.455871,1.4278 3.454873,2.479226 5.569207,2.929266 0.298507,0.06354 0.577337,0.128695 0.619623,0.144794 0.06299,0.02398 0.0041,0.101319 -0.325645,0.427876 l -0.402527,0.398606 z"
     id="path27" />
  <path
     style="fill:#a0aaa8;fill-opacity:1;stroke-width:0.0434193"
     d=""
     id="path28" />
  <path
     style="fill:#a0aaa8;fill-opacity:1;stroke-width:0.0434193"
     d="m 16.738128,42.720781 c -0.191045,-0.03361 -0.441373,-0.08295 -0.556284,-0.109627 l -0.208929,-0.04851 0.321115,-0.331524 c 0.176614,-0.182338 0.339574,-0.365324 0.362135,-0.406635 0.03877,-0.071 0.0684,-0.07113 0.540913,-0.0025 l 0.499895,0.07264 -0.197198,0.447199 c -0.224465,0.509036 -0.171603,0.482738 -0.761647,0.378924 z"
     id="path29" />
  <path
     style="fill:#a0aaa8;fill-opacity:1;stroke-width:0.0434193"
     d="m 18.352664,48.839353 c -0.247586,-1.182521 -0.310579,-1.861936 -0.311311,-3.357671 -5.53e-4,-1.131358 0.01112,-1.378054 0.0801,-1.693351 0.431511,-1.972371 1.912414,-3.435991 3.758073,-3.714213 0.328106,-0.04946 0.977086,-0.0628 3.064108,-0.06301 l 2.647834,-2.56e-4 -0.473446,0.474918 -0.473445,0.474919 -2.326357,0.01686 c -2.599763,0.01885 -2.583891,0.01721 -3.238161,0.333971 -0.987434,0.478061 -1.696204,1.367258 -1.98054,2.484711 -0.181593,0.71367 -0.15546,2.818099 0.05058,4.073104 l 0.08204,0.499722 -0.404139,0.405161 -0.404139,0.40516 z"
     id="path30" />
  <path
     style="fill:#a0aaa8;fill-opacity:1;stroke-width:0.0434193"
     d="m 27.158752,40.488467 0.476131,-0.477612 h 3.755766 3.755767 l -0.476131,0.477612 -0.476131,0.477612 h -3.755767 -3.755766 z"
     id="path31" />
  <path
     style="fill:#a0aaa8;fill-opacity:1;stroke-width:0.0434193"
     d="m 31.131615,37.930671 c -0.131344,-0.01849 -0.309022,-0.04679 -0.39484,-0.06289 l -0.156034,-0.02928 0.419132,-0.411788 0.419132,-0.41179 h 0.534586 c 1.791473,0 3.404888,-0.661214 4.653096,-1.906944 0.887282,-0.885521 1.468581,-1.941361 1.758926,-3.19482 0.109882,-0.474374 0.120908,-0.598792 0.123129,-1.389416 0.0027,-0.954241 -0.0386,-1.246822 -0.286929,-2.033849 l -0.134839,-0.427336 0.341343,-0.343356 c 0.187738,-0.188846 0.352275,-0.343356 0.365637,-0.343356 0.04546,0 0.341672,0.80412 0.450478,1.222893 0.33854,1.302968 0.324482,2.671856 -0.04054,3.947862 -0.775833,2.712062 -2.98743,4.738904 -5.778036,5.295345 -0.512811,0.102253 -1.816746,0.153123 -2.274239,0.08872 z"
     id="path32" />
  <path
     style="fill:#a0aaa8;fill-opacity:1;stroke-width:0.0434193"
     d="m 37.805978,27.537821 c -0.476924,-0.943353 -1.293229,-1.867407 -2.158554,-2.443473 -0.399385,-0.265879 -1.264393,-0.712533 -1.382386,-0.713805 -0.08879,-9.57e-4 -0.05489,-0.04885 0.302548,-0.427539 l 0.331494,-0.351196 0.341505,0.165448 c 1.433141,0.694313 2.594722,1.811219 3.360155,3.230924 0.10045,0.186313 0.175509,0.343189 0.166797,0.348613 -0.0087,0.0054 -0.17316,0.160339 -0.36544,0.344254 l -0.349598,0.334391 z"
     id="path33" />
  <path
     style="fill:#a0aaa8;fill-opacity:1;stroke-width:0.0434193"
     d="m 38.037473,24.504194 -0.453708,-0.47163 h 4.512669 4.512668 l -0.47613,0.477612 -0.476131,0.477612 -3.582831,-0.006 -3.58283,-0.006 z"
     id="path34" />
  <path
     style="fill:#a0aaa8;fill-opacity:1;stroke-width:0.0434193"
     d="M 55.598372,25.739153 C 55.431208,25.6045 55.118589,25.41113 54.903664,25.309442 54.203973,24.978396 54.353823,24.987788 49.771906,24.987788 H 45.70026 l 0.476131,-0.477612 0.476131,-0.477612 h 3.632308 c 3.865796,0 3.956831,0.0043 4.56747,0.214363 0.518946,0.178544 1.098724,0.522152 1.560741,0.924982 l 0.163381,0.142451 -0.337058,0.334808 -0.337057,0.334809 z"
     id="path35" />
  <path
     style="fill:#a0aaa8;fill-opacity:1;stroke-width:0.0434193"
     d="m 56.879689,31.808521 c -2.47e-4,-0.03367 0.03048,-0.356059 0.06829,-0.716417 0.05134,-0.489344 0.06421,-0.957449 0.05086,-1.849227 -0.01721,-1.149814 -0.02225,-1.208422 -0.136199,-1.582661 -0.149217,-0.490091 -0.414325,-1.002056 -0.708328,-1.36789 l -0.228384,-0.284185 0.32368,-0.324285 0.32368,-0.324285 0.154386,0.149637 c 0.356361,0.345399 0.765683,1.049551 0.984114,1.692963 0.216748,0.638453 0.252935,0.972673 0.252935,2.336081 v 1.239224 l -0.542292,0.546133 c -0.298261,0.300373 -0.542495,0.518584 -0.542741,0.484912 z"
     id="path36" />
  <path
     style="fill:#a0aaa8;fill-opacity:1;stroke-width:0.0434193"
     d="m 46.49651,42.336591 c -0.197395,-0.45068 -0.199152,-0.458708 -0.100354,-0.458708 0.05531,0 0.38018,-0.04851 0.721943,-0.107794 2.601109,-0.451226 4.645028,-1.416573 6.299405,-2.975224 1.388269,-1.30794 2.4847,-3.180361 3.06634,-5.236516 0.147679,-0.52206 0.351076,-1.454863 0.351633,-1.612623 1.89e-4,-0.05373 0.01871,-0.09769 0.04116,-0.09769 0.02245,0 0.266684,-0.217134 0.54274,-0.482519 0.572068,-0.549953 0.540691,-0.565739 0.43707,0.219899 -0.347752,2.636621 -1.298315,4.963409 -2.785739,6.818929 -1.120498,1.397791 -2.715274,2.594088 -4.451043,3.338881 -1.094721,0.469729 -2.644942,0.900589 -3.683441,1.023754 l -0.238806,0.02832 z"
     id="path37" />
  <path
     style="fill:#a0aaa8;fill-opacity:1;stroke-width:0.0434193"
     d="m 44.970326,46.871099 c 0.01856,-0.274627 0.03289,-0.987788 0.03184,-1.584803 -0.0017,-0.974776 -0.01182,-1.125336 -0.09909,-1.476255 -0.19612,-0.788561 -0.693279,-1.588849 -1.27419,-2.051094 -0.649648,-0.516937 -1.25415,-0.735648 -2.155976,-0.780037 l -0.535232,-0.02634 0.448393,-0.452654 0.448393,-0.452655 0.271057,0.0264 c 0.310429,0.03023 0.939047,0.22537 1.278136,0.396769 1.243228,0.628412 2.136113,1.792837 2.475473,3.228303 0.07257,0.306966 0.09143,0.568769 0.108137,1.500733 l 0.02023,1.128901 -0.525459,0.521031 -0.525458,0.521032 z"
     id="path38" />
  <path
     style="fill:#a0aaa8;fill-opacity:1;stroke-width:0.0434193"
     d="m 34.713704,40.488467 0.476131,-0.477612 h 3.32012 3.32012 l -0.453708,0.471629 -0.453708,0.47163 -3.342543,0.006 -3.342543,0.006 z"
     id="path39" />
  <path
     style="fill:#a0aaa8;fill-opacity:1;stroke-width:0.0434193"
     d="m 32.520323,58.49038 c 0.461911,-0.466854 0.510741,-0.503949 0.663379,-0.503949 0.274052,0 1.409794,-0.12749 1.964195,-0.220486 4.710423,-0.790136 7.936704,-3.582249 9.28661,-8.036891 0.165704,-0.546818 0.393194,-1.586547 0.441307,-2.016969 l 0.02976,-0.266205 0.516008,-0.514663 0.516007,-0.514663 v 0.261134 c 0,0.143623 -0.02967,0.50077 -0.06593,0.793659 -0.329478,2.661326 -1.284355,5.032225 -2.78351,6.911285 -0.377338,0.472961 -1.235221,1.331025 -1.709585,1.709946 -2.247753,1.795502 -5.040338,2.71952 -8.683854,2.873338 l -0.672998,0.02841 z"
     id="path40" />
  <path
     style="fill:#a0aaa8;fill-opacity:1;stroke-width:0.0434193"
     d="m 30.697422,58.938249 c -1.36646,-0.08584 -2.74544,-0.324641 -3.907734,-0.676712 -0.49829,-0.150937 -1.47104,-0.531591 -1.863408,-0.729185 l -0.319942,-0.16112 0.342693,-0.345498 c 0.209105,-0.210817 0.368081,-0.337705 0.407821,-0.325505 0.03582,0.011 0.240977,0.09719 0.455902,0.191548 1.648467,0.723697 3.696071,1.100623 6.036676,1.111238 l 1.130298,0.0051 -0.500719,0.486772 -0.500719,0.486772 -0.369063,-0.0047 c -0.202985,-0.0026 -0.613298,-0.02001 -0.911805,-0.03876 z"
     id="path41" />
  <path
     style="fill:#a0aaa8;fill-opacity:1;stroke-width:0.0434193"
     d="m 24.118342,57.112558 c -0.886885,-0.508531 -1.634479,-1.082085 -2.366647,-1.815693 -0.626568,-0.6278 -0.991,-1.071592 -1.479329,-1.801473 l -0.346688,-0.518177 0.337364,-0.339354 c 0.18555,-0.186644 0.349339,-0.339354 0.363977,-0.339354 0.01464,0 0.04998,0.05128 0.07854,0.113962 0.106639,0.234047 0.627968,0.983819 0.998923,1.436644 0.866892,1.058214 1.977061,1.964707 3.173042,2.5909 l 0.42604,0.223067 -0.360325,0.336031 c -0.198178,0.184817 -0.37751,0.336031 -0.398515,0.336031 -0.021,0 -0.212875,-0.100163 -0.42638,-0.222584 z"
     id="path42" />
  <path
     style="fill:#a0aaa8;fill-opacity:1;stroke-width:0.0434193"
     d="m 19.684623,52.528879 c -0.433932,-0.795391 -0.9564,-2.141474 -1.165429,-3.0026 l -0.07744,-0.319041 0.383379,-0.385163 c 0.210858,-0.21184 0.390692,-0.37785 0.39963,-0.368911 0.0089,0.0089 0.08195,0.286753 0.162237,0.617365 0.239828,0.987524 0.632871,2.052932 1.053465,2.855592 l 0.176225,0.336306 -0.32655,0.311121 c -0.179603,0.171115 -0.342385,0.317094 -0.361738,0.324395 -0.01935,0.0073 -0.129053,-0.158777 -0.243776,-0.369064 z"
     id="path43" />
  <path
     style="fill:#a0aaa8;fill-opacity:1;stroke-width:0.00390625"
     d="m 19.158808,51.487305 c -0.0027,-0.0044 -0.0859,-0.205407 -0.112748,-0.272461 -0.592983,-1.480768 -0.954179,-3.169155 -1.030373,-4.816407 -0.01001,-0.216354 -0.01212,-0.350098 -0.01431,-0.90625 -0.0024,-0.604101 8.12e-4,-0.880189 0.01198,-1.036207 l 0.0054,-0.07527 0.01665,-0.01616 0.01665,-0.01616 -0.0025,0.06799 c -0.01115,0.300367 -0.01286,1.398356 -0.0028,1.810178 0.02272,0.931595 0.0846,1.51021 0.251904,2.355469 0.03199,0.161624 0.122275,0.596015 0.124298,0.598038 6.89e-4,6.89e-4 0.183589,-0.181089 0.406444,-0.403952 l 0.405191,-0.405206 -0.04078,-0.247955 c -0.02243,-0.136376 -0.04703,-0.288386 -0.05467,-0.3378 -0.07147,-0.462066 -0.123445,-1.065327 -0.146748,-1.703125 -0.01638,-0.448437 -0.01493,-1.025816 0.0035,-1.36914 0.0017,-0.03128 0.0033,0.257256 0.0036,0.644531 3.35e-4,0.385644 0.0024,0.753906 0.0045,0.818359 0.03976,1.190829 0.238706,2.412575 0.578512,3.552735 0.170312,0.571451 0.372657,1.113808 0.613912,1.645507 0.05222,0.115086 0.05263,0.116211 0.04237,0.116211 -0.0088,0 -0.01187,-0.0033 -0.02054,-0.02246 -0.197452,-0.435714 -0.3648,-0.862637 -0.51716,-1.319336 -0.125588,-0.376451 -0.207491,-0.65983 -0.312731,-1.082031 -0.11116,-0.44595 -0.152662,-0.602941 -0.162032,-0.612928 -0.0067,-0.0072 -0.05328,0.03087 -0.163806,0.133988 -0.09034,0.08428 -0.621094,0.614824 -0.621094,0.620841 0,0.0068 0.07602,0.321799 0.100082,0.41474 0.126088,0.487011 0.363317,1.174237 0.613026,1.775867 0.01862,0.04486 0.03472,0.08375 0.03579,0.08644 0.0014,0.0034 -0.0028,0.0049 -0.01387,0.0049 -0.0087,0 -0.01663,-0.0013 -0.01762,-0.0029 z"
     id="path44" />
  <path
     style="fill:#a0aaa8;fill-opacity:1;stroke-width:0.00390625"
     d="m 21.538337,55.131836 c -0.651533,-0.682468 -1.185127,-1.394359 -1.67696,-2.237305 -0.233802,-0.40071 -0.51238,-0.956441 -0.683989,-1.364475 l -0.01693,-0.04026 0.01608,0.0012 0.01608,0.0012 0.05538,0.128907 c 0.21649,0.503906 0.449949,0.964682 0.602501,1.18915 0.03862,0.05683 0.06169,0.08512 0.07209,0.08842 0.0089,0.0028 0.01873,-0.0043 0.08522,-0.06221 0.110313,-0.09608 0.606367,-0.564152 0.608346,-0.574028 5.09e-4,-0.0025 -0.04666,-0.09514 -0.104816,-0.205782 -0.102819,-0.195616 -0.193172,-0.375307 -0.252014,-0.501199 -0.01587,-0.03396 -0.02886,-0.06232 -0.02886,-0.06302 0,-7.02e-4 0.0041,-0.0021 0.0092,-0.003 0.0083,-0.0016 0.01117,0.0026 0.03191,0.0474 0.03677,0.07943 0.188069,0.381123 0.242089,0.48274 0.405728,0.7632 0.881539,1.45655 1.425554,2.077312 0.296316,0.338118 0.662901,0.705385 0.956254,0.958033 0.02082,0.01793 0.02537,0.02375 0.02188,0.02796 -0.0037,0.0044 -0.0058,0.0041 -0.01262,-0.0019 -0.335929,-0.294094 -0.645771,-0.600179 -0.926347,-0.915116 -0.262539,-0.294691 -0.499186,-0.595043 -0.781616,-0.992026 -0.231417,-0.32528 -0.398789,-0.584776 -0.480912,-0.745613 -0.05173,-0.101312 -0.071,-0.129387 -0.0888,-0.129387 -0.01973,0 -0.112808,0.08738 -0.436786,0.410051 -0.183098,0.182359 -0.264324,0.265778 -0.263153,0.27026 0.0021,0.0082 0.396828,0.598154 0.491622,0.734838 0.385988,0.556558 0.687621,0.922845 1.164374,1.413953 l 0.109022,0.112304 h -0.02514 -0.02514 z"
     id="path45" />
  <path
     style="fill:#a0aaa8;fill-opacity:1;stroke-width:0.0110485"
     d="m 16.909796,41.77822 c -0.03646,-0.0056 -0.10487,-0.0087 -0.152022,-0.0069 -0.07123,0.0028 -0.08669,3.21e-4 -0.09141,-0.01454 -0.0031,-0.0099 -0.03162,-0.02587 -0.06343,-0.03564 -0.05396,-0.01658 -0.05485,-0.0174 -0.01355,-0.01249 0.09461,0.01125 0.461882,0.08037 0.425369,0.08006 -0.02127,-1.81e-4 -0.0685,-0.0049 -0.104961,-0.01053 z"
     id="path46" />
  <path
     style="fill:#a0aaa8;fill-opacity:1;stroke-width:0.0110485"
     d=""
     id="path47" />
  <path
     style="fill:#a0aaa8;fill-opacity:1;stroke-width:0.0110485"
     d="m 16.224786,42.641061 c -0.145841,-0.02966 -0.273924,-0.05778 -0.28463,-0.06248 -0.01592,-0.007 0.02805,-0.05582 0.241521,-0.268187 0.143543,-0.142802 0.259197,-0.253741 0.257009,-0.246531 -0.0022,0.0072 -0.11005,0.122801 -0.239694,0.256867 -0.143906,0.148815 -0.229972,0.245728 -0.22097,0.248818 0.01652,0.0057 0.312269,0.07043 0.473259,0.103634 0.05773,0.01191 0.09005,0.02168 0.07182,0.02173 -0.01823,4.4e-5 -0.15247,-0.02419 -0.298311,-0.05385 z"
     id="path48" />
</svg>
